M48
;GenerationSoftware,Autodesk,EAGLE,9.4.2*%
;CreationDate,2019-09-23T01:46:30Z*%
FMAT,2
ICI,OFF
METRIC,TZ,000.000
T4C0.350
T3C0.650
T2C0.813
T1C1.016
%
G90
M71
T1
X12954Y31242
X15494Y31242
X12954Y33782
X15494Y33782
X39624Y43942
X37084Y43942
X39624Y41402
X37084Y41402
X9144Y43942
X6604Y43942
X30734Y31242
X9144Y41402
X6604Y41402
X39624Y23622
X37084Y23622
X39624Y21082
X37084Y21082
X9144Y23622
X6604Y23622
X9144Y21082
X6604Y21082
X24384Y43942
X21844Y43942
X24384Y41402
X21844Y41402
X33274Y33782
X30734Y33782
X33274Y31242
X38354Y4572
X35814Y4572
X33274Y4572
X30734Y4572
X28194Y4572
X25654Y4572
X23114Y4572
X20574Y4572
X18034Y4572
T2
X25654Y8382
X28194Y8382
X30734Y8382
X33274Y8382
X23114Y16002
X33274Y16002
X30734Y16002
X18034Y16002
X15494Y16002
X28194Y16002
X25654Y16002
X20574Y16002
X12954Y16002
X12954Y8382
X15494Y8382
X18034Y8382
X20574Y8382
X23114Y8382
T3
X39624Y29210
X12192Y45720
X4572Y27940
X27432Y44704
X9906Y17526
X8382Y29210
X38354Y38354
X15240Y41402
X23622Y38862
X19304Y31242
X6604Y32512
X39116Y14986
X33274Y18542
X27686Y26416
X8128Y12192
X24384Y26416
X9906Y14732
X18796Y34036
X38862Y12446
X30734Y37338
X12827Y25527
X13462Y28194
X24892Y37592
X18034Y43942
X26670Y36322
X33274Y43942
X4318Y37592
T4
X39624Y32512
M30