G04 EAGLE Gerber RS-274X export*
G75*
%MOMM*%
%FSLAX34Y34*%
%LPD*%
%INBottom Copper*%
%IPPOS*%
%AMOC8*
5,1,8,0,0,1.08239X$1,22.5*%
G01*
%ADD10C,1.524000*%
%ADD11C,1.524000*%
%ADD12P,1.649562X8X22.500000*%
%ADD13C,1.320800*%
%ADD14C,0.304800*%
%ADD15C,1.300000*%

G36*
X162675Y10172D02*
X162675Y10172D01*
X162775Y10174D01*
X162847Y10192D01*
X162921Y10201D01*
X163016Y10235D01*
X163113Y10259D01*
X163179Y10293D01*
X163249Y10318D01*
X163334Y10373D01*
X163423Y10419D01*
X163480Y10467D01*
X163542Y10507D01*
X163612Y10580D01*
X163689Y10645D01*
X163733Y10704D01*
X163784Y10758D01*
X163836Y10844D01*
X163896Y10925D01*
X163925Y10993D01*
X163963Y11057D01*
X163994Y11153D01*
X164034Y11245D01*
X164047Y11318D01*
X164069Y11389D01*
X164077Y11489D01*
X164095Y11588D01*
X164091Y11662D01*
X164097Y11736D01*
X164082Y11836D01*
X164077Y11936D01*
X164057Y12007D01*
X164046Y12081D01*
X164009Y12174D01*
X163981Y12271D01*
X163944Y12336D01*
X163917Y12405D01*
X163860Y12487D01*
X163810Y12575D01*
X163745Y12651D01*
X163718Y12691D01*
X163691Y12715D01*
X163652Y12761D01*
X163549Y12864D01*
X125663Y50750D01*
X124967Y52430D01*
X124967Y67644D01*
X124959Y67720D01*
X124960Y67797D01*
X124939Y67893D01*
X124927Y67990D01*
X124902Y68062D01*
X124885Y68137D01*
X124843Y68226D01*
X124810Y68319D01*
X124768Y68383D01*
X124736Y68452D01*
X124674Y68529D01*
X124621Y68611D01*
X124566Y68664D01*
X124518Y68724D01*
X124441Y68785D01*
X124370Y68854D01*
X124305Y68893D01*
X124245Y68940D01*
X124112Y69008D01*
X124075Y69030D01*
X121357Y71748D01*
X119887Y75296D01*
X119887Y86375D01*
X119873Y86501D01*
X119866Y86627D01*
X119853Y86673D01*
X119847Y86721D01*
X119805Y86840D01*
X119770Y86962D01*
X119746Y87004D01*
X119730Y87049D01*
X119661Y87156D01*
X119600Y87266D01*
X119560Y87312D01*
X119541Y87342D01*
X119506Y87376D01*
X119441Y87452D01*
X95183Y111710D01*
X94487Y113390D01*
X94487Y137861D01*
X94479Y137937D01*
X94480Y138013D01*
X94459Y138109D01*
X94447Y138207D01*
X94422Y138279D01*
X94405Y138354D01*
X94363Y138442D01*
X94330Y138535D01*
X94288Y138599D01*
X94256Y138668D01*
X94194Y138745D01*
X94141Y138828D01*
X94086Y138881D01*
X94038Y138941D01*
X93961Y139002D01*
X93890Y139070D01*
X93825Y139109D01*
X93765Y139157D01*
X93672Y139204D01*
X90965Y141911D01*
X89511Y145421D01*
X89511Y149219D01*
X90965Y152729D01*
X93651Y155415D01*
X97161Y156869D01*
X100959Y156869D01*
X104469Y155415D01*
X107155Y152729D01*
X108609Y149219D01*
X108609Y145421D01*
X107155Y141911D01*
X104454Y139210D01*
X104435Y139203D01*
X104355Y139147D01*
X104269Y139099D01*
X104212Y139047D01*
X104149Y139004D01*
X104083Y138931D01*
X104010Y138865D01*
X103967Y138802D01*
X103916Y138745D01*
X103868Y138659D01*
X103812Y138578D01*
X103784Y138507D01*
X103747Y138440D01*
X103720Y138345D01*
X103684Y138254D01*
X103673Y138178D01*
X103652Y138105D01*
X103640Y137956D01*
X103633Y137909D01*
X103635Y137890D01*
X103633Y137861D01*
X103633Y116825D01*
X103647Y116699D01*
X103654Y116573D01*
X103667Y116527D01*
X103673Y116479D01*
X103715Y116360D01*
X103750Y116238D01*
X103774Y116196D01*
X103790Y116151D01*
X103859Y116044D01*
X103920Y115934D01*
X103960Y115888D01*
X103979Y115858D01*
X104014Y115824D01*
X104047Y115786D01*
X104050Y115781D01*
X104053Y115779D01*
X104079Y115748D01*
X121569Y98258D01*
X121589Y98242D01*
X121606Y98222D01*
X121726Y98133D01*
X121842Y98041D01*
X121866Y98030D01*
X121887Y98015D01*
X122023Y97956D01*
X122157Y97892D01*
X122183Y97887D01*
X122207Y97877D01*
X122353Y97850D01*
X122498Y97819D01*
X122524Y97820D01*
X122550Y97815D01*
X122698Y97823D01*
X122846Y97825D01*
X122871Y97831D01*
X122898Y97833D01*
X123040Y97874D01*
X123184Y97910D01*
X123207Y97922D01*
X123233Y97929D01*
X123362Y98002D01*
X123494Y98070D01*
X123514Y98087D01*
X123537Y98100D01*
X123723Y98258D01*
X124072Y98607D01*
X127620Y100077D01*
X131460Y100077D01*
X135008Y98607D01*
X137723Y95892D01*
X139193Y92344D01*
X139193Y75296D01*
X137723Y71748D01*
X134993Y69018D01*
X134986Y69014D01*
X134915Y68986D01*
X134835Y68930D01*
X134748Y68882D01*
X134692Y68831D01*
X134629Y68787D01*
X134563Y68714D01*
X134490Y68648D01*
X134447Y68585D01*
X134396Y68528D01*
X134348Y68442D01*
X134292Y68361D01*
X134264Y68290D01*
X134227Y68223D01*
X134200Y68129D01*
X134164Y68037D01*
X134153Y67962D01*
X134132Y67888D01*
X134120Y67739D01*
X134113Y67692D01*
X134115Y67673D01*
X134113Y67644D01*
X134113Y55865D01*
X134127Y55739D01*
X134134Y55613D01*
X134147Y55567D01*
X134153Y55519D01*
X134171Y55466D01*
X134172Y55461D01*
X134183Y55435D01*
X134195Y55400D01*
X134230Y55278D01*
X134254Y55236D01*
X134270Y55191D01*
X134295Y55152D01*
X134301Y55137D01*
X134343Y55077D01*
X134400Y54974D01*
X134440Y54928D01*
X134459Y54898D01*
X134484Y54874D01*
X134500Y54851D01*
X134522Y54831D01*
X134559Y54788D01*
X169088Y20259D01*
X169187Y20180D01*
X169281Y20096D01*
X169323Y20072D01*
X169361Y20042D01*
X169475Y19988D01*
X169586Y19927D01*
X169632Y19914D01*
X169676Y19893D01*
X169799Y19867D01*
X169921Y19832D01*
X169982Y19827D01*
X170017Y19820D01*
X170065Y19821D01*
X170165Y19813D01*
X335295Y19813D01*
X335421Y19827D01*
X335547Y19834D01*
X335593Y19847D01*
X335641Y19853D01*
X335760Y19895D01*
X335882Y19930D01*
X335924Y19954D01*
X335969Y19970D01*
X336076Y20039D01*
X336186Y20100D01*
X336232Y20140D01*
X336262Y20159D01*
X336296Y20194D01*
X336372Y20259D01*
X348105Y31992D01*
X348152Y32051D01*
X348207Y32105D01*
X348260Y32188D01*
X348321Y32265D01*
X348354Y32334D01*
X348395Y32398D01*
X348428Y32491D01*
X348470Y32580D01*
X348486Y32654D01*
X348512Y32726D01*
X348523Y32824D01*
X348544Y32920D01*
X348542Y32997D01*
X348551Y33073D01*
X348539Y33171D01*
X348538Y33269D01*
X348519Y33343D01*
X348510Y33419D01*
X348464Y33561D01*
X348453Y33607D01*
X348444Y33624D01*
X348435Y33652D01*
X347471Y35978D01*
X347471Y55462D01*
X349096Y59383D01*
X352097Y62384D01*
X356018Y64009D01*
X360262Y64009D01*
X364183Y62384D01*
X367184Y59383D01*
X368809Y55462D01*
X368809Y35978D01*
X367184Y32057D01*
X364183Y29056D01*
X360262Y27431D01*
X357109Y27431D01*
X356983Y27417D01*
X356857Y27410D01*
X356811Y27397D01*
X356763Y27391D01*
X356644Y27349D01*
X356522Y27314D01*
X356480Y27290D01*
X356435Y27274D01*
X356328Y27205D01*
X356218Y27144D01*
X356172Y27104D01*
X356142Y27085D01*
X356108Y27050D01*
X356032Y26985D01*
X341808Y12761D01*
X341746Y12683D01*
X341676Y12610D01*
X341637Y12546D01*
X341591Y12488D01*
X341548Y12397D01*
X341497Y12311D01*
X341474Y12240D01*
X341442Y12173D01*
X341421Y12075D01*
X341391Y11979D01*
X341385Y11905D01*
X341369Y11832D01*
X341371Y11732D01*
X341363Y11632D01*
X341374Y11558D01*
X341375Y11484D01*
X341399Y11387D01*
X341414Y11287D01*
X341442Y11218D01*
X341460Y11146D01*
X341506Y11056D01*
X341543Y10963D01*
X341585Y10902D01*
X341620Y10836D01*
X341685Y10759D01*
X341742Y10677D01*
X341797Y10627D01*
X341845Y10571D01*
X341926Y10511D01*
X342001Y10444D01*
X342066Y10408D01*
X342126Y10363D01*
X342218Y10324D01*
X342306Y10275D01*
X342377Y10255D01*
X342446Y10225D01*
X342544Y10208D01*
X342641Y10180D01*
X342741Y10172D01*
X342789Y10164D01*
X342824Y10166D01*
X342885Y10161D01*
X435864Y10161D01*
X435990Y10175D01*
X436116Y10182D01*
X436162Y10195D01*
X436210Y10201D01*
X436329Y10243D01*
X436451Y10278D01*
X436493Y10302D01*
X436538Y10318D01*
X436645Y10387D01*
X436755Y10448D01*
X436801Y10488D01*
X436831Y10507D01*
X436865Y10542D01*
X436941Y10607D01*
X438773Y12439D01*
X438852Y12538D01*
X438936Y12632D01*
X438960Y12674D01*
X438990Y12712D01*
X439044Y12826D01*
X439105Y12937D01*
X439118Y12983D01*
X439139Y13027D01*
X439165Y13150D01*
X439200Y13272D01*
X439205Y13333D01*
X439212Y13368D01*
X439211Y13416D01*
X439219Y13516D01*
X439219Y135465D01*
X439214Y135515D01*
X439216Y135565D01*
X439194Y135687D01*
X439179Y135811D01*
X439162Y135858D01*
X439153Y135908D01*
X439104Y136022D01*
X439062Y136139D01*
X439035Y136181D01*
X439015Y136228D01*
X438940Y136327D01*
X438873Y136432D01*
X438837Y136467D01*
X438807Y136507D01*
X438712Y136588D01*
X438622Y136674D01*
X438579Y136700D01*
X438541Y136732D01*
X438430Y136789D01*
X438323Y136853D01*
X438275Y136868D01*
X438230Y136891D01*
X438110Y136921D01*
X437991Y136959D01*
X437941Y136963D01*
X437892Y136975D01*
X437768Y136977D01*
X437644Y136987D01*
X437594Y136980D01*
X437544Y136980D01*
X437422Y136954D01*
X437299Y136935D01*
X437252Y136917D01*
X437203Y136906D01*
X437091Y136853D01*
X436975Y136807D01*
X436934Y136778D01*
X436888Y136756D01*
X436791Y136679D01*
X436689Y136608D01*
X436655Y136570D01*
X436616Y136539D01*
X436539Y136441D01*
X436456Y136349D01*
X436431Y136305D01*
X436400Y136265D01*
X436289Y136048D01*
X435677Y134570D01*
X423191Y122084D01*
X421690Y120583D01*
X420010Y119887D01*
X398079Y119887D01*
X398003Y119879D01*
X397927Y119880D01*
X397831Y119859D01*
X397733Y119847D01*
X397661Y119822D01*
X397586Y119805D01*
X397498Y119763D01*
X397405Y119730D01*
X397341Y119688D01*
X397272Y119656D01*
X397195Y119594D01*
X397112Y119541D01*
X397059Y119486D01*
X396999Y119438D01*
X396938Y119361D01*
X396870Y119290D01*
X396831Y119225D01*
X396783Y119165D01*
X396736Y119072D01*
X394029Y116365D01*
X390519Y114911D01*
X386721Y114911D01*
X383211Y116365D01*
X380525Y119051D01*
X379071Y122561D01*
X379071Y126359D01*
X380525Y129869D01*
X383211Y132555D01*
X386721Y134009D01*
X390519Y134009D01*
X394029Y132555D01*
X396730Y129854D01*
X396737Y129835D01*
X396793Y129755D01*
X396841Y129669D01*
X396893Y129612D01*
X396936Y129549D01*
X397009Y129483D01*
X397075Y129410D01*
X397138Y129367D01*
X397195Y129316D01*
X397281Y129268D01*
X397362Y129212D01*
X397433Y129184D01*
X397500Y129147D01*
X397595Y129120D01*
X397686Y129084D01*
X397762Y129073D01*
X397835Y129052D01*
X397984Y129040D01*
X398031Y129033D01*
X398050Y129035D01*
X398079Y129033D01*
X416575Y129033D01*
X416701Y129047D01*
X416827Y129054D01*
X416873Y129067D01*
X416921Y129073D01*
X417040Y129115D01*
X417162Y129150D01*
X417204Y129174D01*
X417249Y129190D01*
X417356Y129259D01*
X417466Y129320D01*
X417512Y129360D01*
X417542Y129379D01*
X417576Y129414D01*
X417652Y129479D01*
X426781Y138608D01*
X426851Y138696D01*
X426865Y138711D01*
X426870Y138718D01*
X426944Y138801D01*
X426968Y138843D01*
X426998Y138881D01*
X427052Y138995D01*
X427113Y139106D01*
X427126Y139152D01*
X427147Y139196D01*
X427173Y139319D01*
X427208Y139441D01*
X427213Y139502D01*
X427220Y139537D01*
X427219Y139585D01*
X427227Y139685D01*
X427227Y401335D01*
X427213Y401461D01*
X427206Y401587D01*
X427193Y401633D01*
X427187Y401681D01*
X427145Y401800D01*
X427110Y401922D01*
X427086Y401964D01*
X427070Y402009D01*
X427001Y402116D01*
X426940Y402226D01*
X426900Y402272D01*
X426881Y402302D01*
X426846Y402336D01*
X426781Y402412D01*
X409509Y419684D01*
X409431Y419746D01*
X409358Y419816D01*
X409294Y419855D01*
X409236Y419901D01*
X409145Y419944D01*
X409059Y419995D01*
X408988Y420018D01*
X408921Y420050D01*
X408823Y420071D01*
X408727Y420101D01*
X408653Y420107D01*
X408580Y420123D01*
X408480Y420121D01*
X408380Y420129D01*
X408306Y420118D01*
X408232Y420117D01*
X408135Y420093D01*
X408035Y420078D01*
X407966Y420050D01*
X407894Y420032D01*
X407804Y419986D01*
X407711Y419949D01*
X407650Y419907D01*
X407584Y419872D01*
X407507Y419807D01*
X407425Y419750D01*
X407375Y419695D01*
X407319Y419647D01*
X407259Y419566D01*
X407192Y419491D01*
X407156Y419426D01*
X407111Y419366D01*
X407072Y419274D01*
X407023Y419186D01*
X407003Y419115D01*
X406973Y419046D01*
X406956Y418948D01*
X406928Y418851D01*
X406920Y418751D01*
X406912Y418703D01*
X406914Y418668D01*
X406909Y418607D01*
X406909Y409601D01*
X401259Y403951D01*
X401180Y403852D01*
X401096Y403758D01*
X401072Y403716D01*
X401042Y403678D01*
X400988Y403564D01*
X400927Y403453D01*
X400914Y403407D01*
X400893Y403363D01*
X400867Y403240D01*
X400832Y403118D01*
X400827Y403057D01*
X400820Y403022D01*
X400821Y402974D01*
X400813Y402874D01*
X400813Y395330D01*
X400117Y393650D01*
X393462Y386995D01*
X393415Y386935D01*
X393360Y386882D01*
X393306Y386799D01*
X393245Y386722D01*
X393213Y386653D01*
X393171Y386589D01*
X393139Y386496D01*
X393097Y386407D01*
X393080Y386332D01*
X393055Y386260D01*
X393044Y386162D01*
X393023Y386066D01*
X393024Y385990D01*
X393016Y385914D01*
X393027Y385816D01*
X393029Y385718D01*
X393048Y385644D01*
X393057Y385568D01*
X393089Y385469D01*
X393089Y381641D01*
X391635Y378131D01*
X388949Y375445D01*
X385439Y373991D01*
X381641Y373991D01*
X378131Y375445D01*
X375445Y378131D01*
X373991Y381641D01*
X373991Y385439D01*
X375445Y388949D01*
X378131Y391635D01*
X381641Y393089D01*
X385460Y393089D01*
X385479Y393081D01*
X385576Y393063D01*
X385670Y393036D01*
X385746Y393032D01*
X385822Y393019D01*
X385920Y393024D01*
X386018Y393019D01*
X386094Y393033D01*
X386170Y393037D01*
X386264Y393064D01*
X386361Y393082D01*
X386431Y393112D01*
X386505Y393133D01*
X386591Y393181D01*
X386681Y393221D01*
X386742Y393266D01*
X386809Y393304D01*
X386922Y393400D01*
X386960Y393428D01*
X386973Y393443D01*
X386995Y393462D01*
X391221Y397688D01*
X391300Y397787D01*
X391384Y397881D01*
X391408Y397923D01*
X391438Y397961D01*
X391492Y398075D01*
X391553Y398186D01*
X391566Y398232D01*
X391587Y398276D01*
X391613Y398399D01*
X391648Y398521D01*
X391653Y398582D01*
X391660Y398617D01*
X391659Y398665D01*
X391667Y398765D01*
X391667Y402874D01*
X391653Y403000D01*
X391646Y403126D01*
X391633Y403172D01*
X391627Y403220D01*
X391585Y403339D01*
X391550Y403461D01*
X391526Y403503D01*
X391510Y403548D01*
X391441Y403654D01*
X391380Y403765D01*
X391340Y403811D01*
X391321Y403841D01*
X391286Y403875D01*
X391221Y403951D01*
X385571Y409601D01*
X385571Y418439D01*
X391821Y424689D01*
X400827Y424689D01*
X400927Y424700D01*
X401027Y424702D01*
X401099Y424720D01*
X401173Y424729D01*
X401268Y424763D01*
X401365Y424787D01*
X401431Y424821D01*
X401501Y424846D01*
X401586Y424901D01*
X401675Y424947D01*
X401732Y424995D01*
X401794Y425035D01*
X401864Y425107D01*
X401940Y425172D01*
X401985Y425232D01*
X402036Y425286D01*
X402088Y425372D01*
X402148Y425453D01*
X402177Y425521D01*
X402215Y425585D01*
X402246Y425681D01*
X402286Y425773D01*
X402299Y425846D01*
X402321Y425917D01*
X402329Y426017D01*
X402347Y426116D01*
X402343Y426190D01*
X402349Y426264D01*
X402334Y426364D01*
X402329Y426464D01*
X402309Y426535D01*
X402298Y426609D01*
X402261Y426702D01*
X402233Y426799D01*
X402196Y426864D01*
X402169Y426933D01*
X402112Y427015D01*
X402063Y427103D01*
X401997Y427179D01*
X401970Y427219D01*
X401944Y427243D01*
X401904Y427289D01*
X400888Y428305D01*
X400789Y428384D01*
X400695Y428468D01*
X400653Y428492D01*
X400615Y428522D01*
X400501Y428576D01*
X400390Y428637D01*
X400344Y428650D01*
X400300Y428671D01*
X400176Y428697D01*
X400055Y428732D01*
X399994Y428737D01*
X399959Y428744D01*
X399911Y428743D01*
X399811Y428751D01*
X391821Y428751D01*
X385571Y435001D01*
X385571Y443839D01*
X391821Y450089D01*
X400659Y450089D01*
X406909Y443839D01*
X406909Y435849D01*
X406923Y435723D01*
X406930Y435597D01*
X406943Y435551D01*
X406949Y435503D01*
X406991Y435384D01*
X407026Y435262D01*
X407050Y435220D01*
X407066Y435175D01*
X407135Y435068D01*
X407196Y434958D01*
X407236Y434912D01*
X407255Y434882D01*
X407290Y434848D01*
X407355Y434772D01*
X435677Y406450D01*
X436289Y404972D01*
X436313Y404928D01*
X436330Y404881D01*
X436398Y404776D01*
X436458Y404668D01*
X436492Y404630D01*
X436519Y404588D01*
X436609Y404502D01*
X436692Y404410D01*
X436734Y404381D01*
X436770Y404346D01*
X436877Y404282D01*
X436979Y404211D01*
X437026Y404193D01*
X437069Y404167D01*
X437187Y404129D01*
X437303Y404084D01*
X437353Y404076D01*
X437401Y404061D01*
X437525Y404051D01*
X437648Y404033D01*
X437698Y404037D01*
X437748Y404033D01*
X437871Y404051D01*
X437995Y404062D01*
X438043Y404077D01*
X438093Y404085D01*
X438208Y404131D01*
X438327Y404169D01*
X438370Y404195D01*
X438417Y404213D01*
X438519Y404284D01*
X438625Y404348D01*
X438662Y404384D01*
X438703Y404412D01*
X438786Y404504D01*
X438875Y404591D01*
X438903Y404634D01*
X438936Y404671D01*
X438996Y404780D01*
X439064Y404885D01*
X439081Y404932D01*
X439105Y404976D01*
X439139Y405096D01*
X439180Y405213D01*
X439186Y405263D01*
X439200Y405312D01*
X439219Y405555D01*
X439219Y465076D01*
X439216Y465102D01*
X439218Y465128D01*
X439196Y465275D01*
X439179Y465422D01*
X439171Y465447D01*
X439167Y465473D01*
X439112Y465611D01*
X439062Y465750D01*
X439048Y465772D01*
X439038Y465797D01*
X438953Y465918D01*
X438873Y466043D01*
X438854Y466061D01*
X438839Y466083D01*
X438729Y466182D01*
X438622Y466285D01*
X438600Y466299D01*
X438580Y466316D01*
X438450Y466388D01*
X438323Y466464D01*
X438298Y466472D01*
X438275Y466485D01*
X438132Y466525D01*
X437991Y466570D01*
X437965Y466572D01*
X437940Y466580D01*
X437696Y466599D01*
X300465Y466599D01*
X300365Y466588D01*
X300265Y466586D01*
X300193Y466568D01*
X300119Y466559D01*
X300024Y466526D01*
X299927Y466501D01*
X299861Y466467D01*
X299791Y466442D01*
X299706Y466387D01*
X299617Y466341D01*
X299560Y466293D01*
X299498Y466253D01*
X299428Y466181D01*
X299352Y466116D01*
X299307Y466056D01*
X299256Y466002D01*
X299204Y465916D01*
X299144Y465835D01*
X299115Y465767D01*
X299077Y465703D01*
X299046Y465607D01*
X299006Y465515D01*
X298993Y465442D01*
X298971Y465371D01*
X298963Y465271D01*
X298945Y465172D01*
X298949Y465098D01*
X298943Y465024D01*
X298958Y464924D01*
X298963Y464824D01*
X298983Y464753D01*
X298994Y464679D01*
X299031Y464586D01*
X299059Y464489D01*
X299096Y464424D01*
X299123Y464355D01*
X299180Y464273D01*
X299229Y464185D01*
X299295Y464109D01*
X299322Y464069D01*
X299348Y464045D01*
X299388Y463999D01*
X307176Y456211D01*
X308677Y454710D01*
X309373Y453030D01*
X309373Y430890D01*
X308677Y429210D01*
X258842Y379375D01*
X258795Y379315D01*
X258740Y379262D01*
X258687Y379179D01*
X258625Y379102D01*
X258593Y379033D01*
X258552Y378969D01*
X258519Y378876D01*
X258477Y378787D01*
X258460Y378713D01*
X258435Y378640D01*
X258424Y378542D01*
X258403Y378446D01*
X258404Y378370D01*
X258396Y378294D01*
X258407Y378196D01*
X258409Y378098D01*
X258428Y378024D01*
X258437Y377948D01*
X258469Y377849D01*
X258469Y374021D01*
X257490Y371659D01*
X257477Y371610D01*
X257455Y371565D01*
X257429Y371443D01*
X257395Y371324D01*
X257392Y371273D01*
X257382Y371224D01*
X257384Y371100D01*
X257378Y370976D01*
X257387Y370926D01*
X257388Y370876D01*
X257418Y370755D01*
X257440Y370633D01*
X257460Y370587D01*
X257473Y370538D01*
X257530Y370427D01*
X257579Y370313D01*
X257609Y370273D01*
X257632Y370228D01*
X257713Y370133D01*
X257787Y370033D01*
X257826Y370001D01*
X257858Y369963D01*
X257958Y369889D01*
X258053Y369808D01*
X258098Y369785D01*
X258138Y369755D01*
X258253Y369706D01*
X258363Y369649D01*
X258412Y369637D01*
X258458Y369617D01*
X258581Y369595D01*
X258702Y369565D01*
X258752Y369565D01*
X258801Y369556D01*
X258926Y369562D01*
X259050Y369560D01*
X259099Y369571D01*
X259150Y369574D01*
X259269Y369608D01*
X259391Y369635D01*
X259436Y369656D01*
X259484Y369670D01*
X259593Y369731D01*
X259705Y369784D01*
X259745Y369816D01*
X259789Y369840D01*
X259975Y369999D01*
X261291Y371315D01*
X264801Y372769D01*
X268599Y372769D01*
X272109Y371315D01*
X274795Y368629D01*
X276249Y365119D01*
X276249Y361321D01*
X274795Y357811D01*
X273952Y356969D01*
X273936Y356948D01*
X273916Y356931D01*
X273828Y356812D01*
X273736Y356696D01*
X273725Y356672D01*
X273709Y356651D01*
X273650Y356515D01*
X273587Y356380D01*
X273581Y356355D01*
X273571Y356331D01*
X273545Y356185D01*
X273514Y356040D01*
X273514Y356014D01*
X273509Y355988D01*
X273517Y355839D01*
X273520Y355691D01*
X273526Y355666D01*
X273527Y355640D01*
X273568Y355497D01*
X273605Y355353D01*
X273617Y355330D01*
X273624Y355305D01*
X273696Y355175D01*
X273764Y355043D01*
X273781Y355024D01*
X273794Y355001D01*
X273952Y354814D01*
X285928Y342839D01*
X286027Y342760D01*
X286121Y342676D01*
X286163Y342652D01*
X286201Y342622D01*
X286315Y342568D01*
X286426Y342507D01*
X286472Y342494D01*
X286516Y342473D01*
X286639Y342447D01*
X286761Y342412D01*
X286822Y342407D01*
X286857Y342400D01*
X286905Y342401D01*
X287005Y342393D01*
X296194Y342393D01*
X296320Y342407D01*
X296446Y342414D01*
X296492Y342427D01*
X296540Y342433D01*
X296659Y342475D01*
X296781Y342510D01*
X296823Y342534D01*
X296868Y342550D01*
X296974Y342619D01*
X297085Y342680D01*
X297131Y342720D01*
X297161Y342739D01*
X297195Y342774D01*
X297271Y342839D01*
X302921Y348489D01*
X311759Y348489D01*
X318009Y342239D01*
X318009Y333401D01*
X316901Y332293D01*
X316838Y332214D01*
X316769Y332142D01*
X316730Y332078D01*
X316684Y332020D01*
X316641Y331929D01*
X316590Y331843D01*
X316567Y331772D01*
X316535Y331705D01*
X316514Y331607D01*
X316484Y331511D01*
X316478Y331437D01*
X316462Y331364D01*
X316464Y331264D01*
X316456Y331164D01*
X316467Y331090D01*
X316468Y331016D01*
X316492Y330919D01*
X316507Y330819D01*
X316535Y330750D01*
X316553Y330678D01*
X316599Y330589D01*
X316636Y330495D01*
X316679Y330434D01*
X316713Y330368D01*
X316778Y330292D01*
X316835Y330209D01*
X316890Y330159D01*
X316938Y330103D01*
X317019Y330043D01*
X317094Y329976D01*
X317159Y329940D01*
X317219Y329895D01*
X317311Y329856D01*
X317399Y329807D01*
X317470Y329787D01*
X317539Y329757D01*
X317638Y329740D01*
X317734Y329712D01*
X317834Y329704D01*
X317882Y329696D01*
X317917Y329698D01*
X317978Y329693D01*
X320950Y329693D01*
X322120Y329208D01*
X322168Y329194D01*
X322214Y329173D01*
X322335Y329147D01*
X322455Y329112D01*
X322505Y329110D01*
X322554Y329099D01*
X322679Y329101D01*
X322803Y329095D01*
X322852Y329104D01*
X322903Y329105D01*
X323023Y329136D01*
X323146Y329158D01*
X323192Y329178D01*
X323241Y329190D01*
X323351Y329247D01*
X323465Y329297D01*
X323506Y329327D01*
X323551Y329350D01*
X323645Y329431D01*
X323745Y329505D01*
X323778Y329543D01*
X323816Y329576D01*
X323890Y329676D01*
X323970Y329771D01*
X323993Y329816D01*
X324023Y329856D01*
X324072Y329970D01*
X324129Y330081D01*
X324141Y330130D01*
X324161Y330176D01*
X324183Y330299D01*
X324213Y330419D01*
X324214Y330469D01*
X324223Y330519D01*
X324216Y330643D01*
X324218Y330768D01*
X324207Y330817D01*
X324205Y330867D01*
X324170Y330987D01*
X324144Y331108D01*
X324122Y331154D01*
X324108Y331202D01*
X324048Y331311D01*
X323994Y331423D01*
X323963Y331462D01*
X323938Y331506D01*
X323780Y331692D01*
X322071Y333401D01*
X322071Y342239D01*
X327721Y347889D01*
X327800Y347988D01*
X327884Y348082D01*
X327908Y348124D01*
X327938Y348162D01*
X327992Y348276D01*
X328053Y348387D01*
X328066Y348433D01*
X328087Y348477D01*
X328113Y348600D01*
X328148Y348722D01*
X328153Y348783D01*
X328160Y348818D01*
X328159Y348866D01*
X328167Y348966D01*
X328167Y363235D01*
X328153Y363361D01*
X328146Y363487D01*
X328133Y363533D01*
X328127Y363581D01*
X328085Y363700D01*
X328050Y363822D01*
X328026Y363864D01*
X328010Y363909D01*
X327941Y364016D01*
X327880Y364126D01*
X327840Y364172D01*
X327821Y364202D01*
X327786Y364236D01*
X327721Y364312D01*
X323672Y368361D01*
X323573Y368440D01*
X323479Y368524D01*
X323437Y368548D01*
X323399Y368578D01*
X323285Y368632D01*
X323174Y368693D01*
X323128Y368706D01*
X323084Y368727D01*
X322961Y368753D01*
X322839Y368788D01*
X322778Y368793D01*
X322743Y368800D01*
X322695Y368799D01*
X322595Y368807D01*
X316799Y368807D01*
X316723Y368799D01*
X316647Y368800D01*
X316551Y368779D01*
X316453Y368767D01*
X316381Y368742D01*
X316306Y368725D01*
X316218Y368683D01*
X316125Y368650D01*
X316061Y368608D01*
X315992Y368576D01*
X315915Y368514D01*
X315832Y368461D01*
X315779Y368406D01*
X315719Y368358D01*
X315658Y368281D01*
X315590Y368210D01*
X315551Y368145D01*
X315503Y368085D01*
X315456Y367992D01*
X312749Y365285D01*
X309239Y363831D01*
X305441Y363831D01*
X301931Y365285D01*
X299245Y367971D01*
X297791Y371481D01*
X297791Y375279D01*
X299245Y378789D01*
X301931Y381475D01*
X305441Y382929D01*
X309239Y382929D01*
X312749Y381475D01*
X315450Y378774D01*
X315457Y378755D01*
X315513Y378675D01*
X315561Y378589D01*
X315613Y378532D01*
X315656Y378469D01*
X315729Y378403D01*
X315795Y378330D01*
X315858Y378287D01*
X315915Y378236D01*
X316001Y378188D01*
X316082Y378132D01*
X316153Y378104D01*
X316220Y378067D01*
X316315Y378040D01*
X316406Y378004D01*
X316482Y377993D01*
X316555Y377972D01*
X316704Y377960D01*
X316751Y377953D01*
X316770Y377955D01*
X316799Y377953D01*
X326030Y377953D01*
X327710Y377257D01*
X336617Y368350D01*
X337313Y366670D01*
X337313Y348966D01*
X337327Y348840D01*
X337334Y348714D01*
X337347Y348668D01*
X337353Y348620D01*
X337395Y348501D01*
X337430Y348379D01*
X337454Y348337D01*
X337470Y348292D01*
X337539Y348186D01*
X337600Y348075D01*
X337640Y348029D01*
X337659Y347999D01*
X337694Y347965D01*
X337759Y347889D01*
X343409Y342239D01*
X343409Y333401D01*
X337159Y327151D01*
X328153Y327151D01*
X328053Y327140D01*
X327953Y327138D01*
X327881Y327120D01*
X327807Y327111D01*
X327712Y327078D01*
X327615Y327053D01*
X327549Y327019D01*
X327479Y326994D01*
X327394Y326939D01*
X327305Y326893D01*
X327248Y326845D01*
X327186Y326805D01*
X327116Y326733D01*
X327040Y326668D01*
X326995Y326608D01*
X326944Y326554D01*
X326892Y326468D01*
X326832Y326387D01*
X326803Y326319D01*
X326765Y326255D01*
X326734Y326159D01*
X326694Y326067D01*
X326681Y325994D01*
X326659Y325923D01*
X326651Y325823D01*
X326633Y325724D01*
X326637Y325650D01*
X326631Y325576D01*
X326646Y325476D01*
X326651Y325376D01*
X326671Y325305D01*
X326682Y325231D01*
X326719Y325138D01*
X326747Y325041D01*
X326784Y324976D01*
X326811Y324907D01*
X326868Y324825D01*
X326917Y324737D01*
X326983Y324661D01*
X327010Y324621D01*
X327036Y324597D01*
X327076Y324551D01*
X328092Y323535D01*
X328191Y323456D01*
X328285Y323372D01*
X328327Y323348D01*
X328365Y323318D01*
X328479Y323264D01*
X328590Y323203D01*
X328636Y323190D01*
X328680Y323169D01*
X328803Y323143D01*
X328925Y323108D01*
X328986Y323103D01*
X329021Y323096D01*
X329069Y323097D01*
X329169Y323089D01*
X337159Y323089D01*
X343409Y316839D01*
X343409Y308001D01*
X337159Y301751D01*
X328321Y301751D01*
X322071Y308001D01*
X322071Y315991D01*
X322057Y316117D01*
X322050Y316243D01*
X322037Y316289D01*
X322031Y316337D01*
X321989Y316456D01*
X321954Y316578D01*
X321930Y316620D01*
X321914Y316665D01*
X321845Y316771D01*
X321784Y316882D01*
X321744Y316928D01*
X321725Y316958D01*
X321690Y316992D01*
X321625Y317068D01*
X318592Y320101D01*
X318493Y320180D01*
X318399Y320264D01*
X318357Y320288D01*
X318319Y320318D01*
X318205Y320372D01*
X318094Y320433D01*
X318048Y320446D01*
X318004Y320467D01*
X317881Y320493D01*
X317759Y320528D01*
X317698Y320533D01*
X317663Y320540D01*
X317615Y320539D01*
X317515Y320547D01*
X316984Y320547D01*
X316830Y320530D01*
X316675Y320516D01*
X316657Y320510D01*
X316638Y320507D01*
X316492Y320455D01*
X316344Y320406D01*
X316328Y320396D01*
X316310Y320390D01*
X316180Y320306D01*
X316047Y320225D01*
X316033Y320211D01*
X316017Y320201D01*
X315909Y320089D01*
X315799Y319980D01*
X315788Y319964D01*
X315775Y319950D01*
X315695Y319817D01*
X315612Y319686D01*
X315606Y319668D01*
X315596Y319651D01*
X315549Y319503D01*
X315498Y319357D01*
X315496Y319338D01*
X315490Y319319D01*
X315477Y319165D01*
X315461Y319010D01*
X315463Y318991D01*
X315462Y318972D01*
X315485Y318818D01*
X315504Y318664D01*
X315511Y318646D01*
X315513Y318627D01*
X315571Y318483D01*
X315624Y318337D01*
X315636Y318318D01*
X315642Y318303D01*
X315667Y318267D01*
X315752Y318129D01*
X316030Y317745D01*
X316756Y316320D01*
X317199Y314959D01*
X308356Y314959D01*
X308330Y314956D01*
X308304Y314958D01*
X308157Y314936D01*
X308010Y314919D01*
X307985Y314911D01*
X307959Y314907D01*
X307822Y314852D01*
X307682Y314802D01*
X307660Y314788D01*
X307635Y314778D01*
X307514Y314693D01*
X307389Y314613D01*
X307371Y314594D01*
X307349Y314579D01*
X307335Y314563D01*
X307250Y314645D01*
X307227Y314659D01*
X307208Y314676D01*
X307078Y314748D01*
X306951Y314824D01*
X306926Y314832D01*
X306903Y314845D01*
X306760Y314885D01*
X306619Y314930D01*
X306593Y314932D01*
X306568Y314940D01*
X306324Y314959D01*
X297481Y314959D01*
X297924Y316320D01*
X298650Y317745D01*
X298928Y318129D01*
X299004Y318264D01*
X299084Y318397D01*
X299090Y318415D01*
X299099Y318432D01*
X299143Y318581D01*
X299190Y318729D01*
X299192Y318748D01*
X299197Y318767D01*
X299206Y318922D01*
X299218Y319076D01*
X299215Y319095D01*
X299216Y319115D01*
X299190Y319268D01*
X299167Y319421D01*
X299159Y319439D01*
X299156Y319458D01*
X299095Y319601D01*
X299038Y319745D01*
X299027Y319761D01*
X299019Y319778D01*
X298927Y319904D01*
X298839Y320031D01*
X298825Y320044D01*
X298813Y320059D01*
X298695Y320161D01*
X298580Y320264D01*
X298563Y320274D01*
X298549Y320286D01*
X298411Y320358D01*
X298275Y320433D01*
X298257Y320438D01*
X298239Y320447D01*
X298089Y320485D01*
X297940Y320528D01*
X297917Y320530D01*
X297902Y320533D01*
X297858Y320534D01*
X297696Y320547D01*
X265790Y320547D01*
X264110Y321243D01*
X227263Y358090D01*
X226567Y359770D01*
X226567Y384450D01*
X226848Y385128D01*
X226883Y385249D01*
X226925Y385368D01*
X226931Y385416D01*
X226944Y385463D01*
X226950Y385589D01*
X226964Y385715D01*
X226958Y385763D01*
X226961Y385811D01*
X226938Y385935D01*
X226923Y386061D01*
X226905Y386119D01*
X226898Y386154D01*
X226879Y386198D01*
X226848Y386294D01*
X226671Y386721D01*
X226671Y390519D01*
X228125Y394029D01*
X230811Y396715D01*
X234321Y398169D01*
X237744Y398169D01*
X237770Y398172D01*
X237796Y398170D01*
X237943Y398192D01*
X238090Y398209D01*
X238115Y398217D01*
X238141Y398221D01*
X238279Y398276D01*
X238418Y398326D01*
X238440Y398340D01*
X238465Y398350D01*
X238586Y398435D01*
X238711Y398515D01*
X238729Y398534D01*
X238751Y398549D01*
X238850Y398659D01*
X238953Y398766D01*
X238967Y398788D01*
X238984Y398808D01*
X239056Y398938D01*
X239132Y399065D01*
X239140Y399090D01*
X239153Y399113D01*
X239193Y399256D01*
X239238Y399397D01*
X239240Y399423D01*
X239248Y399448D01*
X239267Y399692D01*
X239267Y402874D01*
X239253Y403000D01*
X239246Y403126D01*
X239233Y403172D01*
X239227Y403220D01*
X239185Y403339D01*
X239150Y403461D01*
X239126Y403503D01*
X239110Y403548D01*
X239041Y403654D01*
X238980Y403765D01*
X238940Y403811D01*
X238921Y403841D01*
X238886Y403875D01*
X238821Y403951D01*
X233171Y409601D01*
X233171Y418439D01*
X239421Y424689D01*
X244871Y424689D01*
X244996Y424703D01*
X245123Y424710D01*
X245169Y424723D01*
X245217Y424729D01*
X245336Y424771D01*
X245458Y424806D01*
X245500Y424830D01*
X245545Y424846D01*
X245651Y424915D01*
X245762Y424976D01*
X245808Y425016D01*
X245838Y425035D01*
X245872Y425070D01*
X245948Y425135D01*
X246964Y426151D01*
X247027Y426230D01*
X247096Y426302D01*
X247134Y426366D01*
X247181Y426424D01*
X247224Y426515D01*
X247275Y426601D01*
X247298Y426672D01*
X247330Y426739D01*
X247351Y426837D01*
X247381Y426933D01*
X247387Y427007D01*
X247403Y427080D01*
X247401Y427180D01*
X247409Y427280D01*
X247398Y427354D01*
X247397Y427428D01*
X247373Y427525D01*
X247358Y427625D01*
X247330Y427694D01*
X247312Y427766D01*
X247266Y427855D01*
X247229Y427949D01*
X247186Y428010D01*
X247152Y428076D01*
X247087Y428152D01*
X247030Y428235D01*
X246975Y428285D01*
X246927Y428341D01*
X246846Y428401D01*
X246771Y428468D01*
X246706Y428504D01*
X246646Y428549D01*
X246554Y428588D01*
X246466Y428637D01*
X246395Y428657D01*
X246326Y428687D01*
X246227Y428704D01*
X246131Y428732D01*
X246031Y428740D01*
X245983Y428748D01*
X245948Y428746D01*
X245887Y428751D01*
X239421Y428751D01*
X233171Y435001D01*
X233171Y443839D01*
X238821Y449489D01*
X238900Y449588D01*
X238984Y449682D01*
X239008Y449724D01*
X239038Y449762D01*
X239092Y449876D01*
X239153Y449987D01*
X239166Y450033D01*
X239187Y450077D01*
X239213Y450200D01*
X239248Y450322D01*
X239253Y450383D01*
X239260Y450418D01*
X239259Y450466D01*
X239267Y450566D01*
X239267Y455570D01*
X239963Y457250D01*
X246712Y463999D01*
X246774Y464077D01*
X246844Y464150D01*
X246883Y464214D01*
X246929Y464272D01*
X246972Y464363D01*
X247023Y464449D01*
X247046Y464520D01*
X247078Y464587D01*
X247099Y464685D01*
X247129Y464781D01*
X247135Y464855D01*
X247151Y464928D01*
X247149Y465028D01*
X247157Y465128D01*
X247146Y465202D01*
X247145Y465276D01*
X247121Y465373D01*
X247106Y465473D01*
X247078Y465542D01*
X247060Y465614D01*
X247014Y465704D01*
X246977Y465797D01*
X246935Y465858D01*
X246900Y465924D01*
X246835Y466001D01*
X246778Y466083D01*
X246723Y466133D01*
X246675Y466189D01*
X246594Y466249D01*
X246519Y466316D01*
X246454Y466352D01*
X246394Y466397D01*
X246302Y466436D01*
X246214Y466485D01*
X246143Y466505D01*
X246074Y466535D01*
X245976Y466552D01*
X245879Y466580D01*
X245779Y466588D01*
X245731Y466596D01*
X245696Y466594D01*
X245635Y466599D01*
X129702Y466599D01*
X129602Y466588D01*
X129502Y466586D01*
X129430Y466568D01*
X129356Y466559D01*
X129261Y466526D01*
X129164Y466501D01*
X129098Y466467D01*
X129028Y466442D01*
X128943Y466387D01*
X128854Y466341D01*
X128798Y466293D01*
X128735Y466253D01*
X128665Y466181D01*
X128589Y466116D01*
X128545Y466056D01*
X128493Y466002D01*
X128441Y465916D01*
X128382Y465835D01*
X128352Y465767D01*
X128314Y465703D01*
X128283Y465607D01*
X128244Y465515D01*
X128230Y465442D01*
X128208Y465371D01*
X128200Y465271D01*
X128182Y465172D01*
X128186Y465098D01*
X128180Y465024D01*
X128195Y464924D01*
X128200Y464824D01*
X128220Y464753D01*
X128231Y464679D01*
X128269Y464586D01*
X128296Y464489D01*
X128333Y464424D01*
X128360Y464355D01*
X128417Y464273D01*
X128467Y464185D01*
X128532Y464109D01*
X128559Y464069D01*
X128586Y464045D01*
X128625Y463999D01*
X130015Y462609D01*
X131469Y459099D01*
X131469Y455301D01*
X130015Y451791D01*
X127329Y449105D01*
X123819Y447651D01*
X120021Y447651D01*
X116511Y449105D01*
X113810Y451806D01*
X113803Y451825D01*
X113747Y451905D01*
X113699Y451991D01*
X113647Y452048D01*
X113604Y452111D01*
X113531Y452177D01*
X113465Y452250D01*
X113402Y452293D01*
X113345Y452344D01*
X113259Y452392D01*
X113178Y452448D01*
X113107Y452476D01*
X113040Y452513D01*
X112945Y452540D01*
X112854Y452576D01*
X112778Y452587D01*
X112705Y452608D01*
X112556Y452620D01*
X112509Y452627D01*
X112490Y452625D01*
X112461Y452627D01*
X96998Y452627D01*
X96898Y452616D01*
X96798Y452614D01*
X96726Y452596D01*
X96652Y452587D01*
X96557Y452554D01*
X96460Y452529D01*
X96394Y452495D01*
X96324Y452470D01*
X96239Y452415D01*
X96150Y452369D01*
X96093Y452321D01*
X96031Y452281D01*
X95961Y452209D01*
X95885Y452144D01*
X95840Y452084D01*
X95789Y452030D01*
X95737Y451944D01*
X95677Y451863D01*
X95648Y451795D01*
X95610Y451731D01*
X95579Y451635D01*
X95539Y451543D01*
X95526Y451470D01*
X95504Y451399D01*
X95496Y451299D01*
X95478Y451200D01*
X95482Y451126D01*
X95476Y451052D01*
X95491Y450952D01*
X95496Y450852D01*
X95516Y450781D01*
X95527Y450707D01*
X95564Y450614D01*
X95592Y450517D01*
X95629Y450452D01*
X95656Y450383D01*
X95713Y450301D01*
X95762Y450213D01*
X95828Y450137D01*
X95855Y450097D01*
X95881Y450073D01*
X95921Y450027D01*
X102109Y443839D01*
X102109Y435001D01*
X95859Y428751D01*
X87869Y428751D01*
X87743Y428737D01*
X87617Y428730D01*
X87571Y428717D01*
X87523Y428711D01*
X87404Y428669D01*
X87282Y428634D01*
X87240Y428610D01*
X87195Y428594D01*
X87088Y428525D01*
X86978Y428464D01*
X86932Y428424D01*
X86902Y428405D01*
X86868Y428370D01*
X86792Y428305D01*
X85776Y427289D01*
X85714Y427211D01*
X85644Y427138D01*
X85605Y427074D01*
X85559Y427016D01*
X85516Y426925D01*
X85465Y426839D01*
X85442Y426768D01*
X85410Y426701D01*
X85389Y426603D01*
X85359Y426507D01*
X85353Y426433D01*
X85337Y426360D01*
X85339Y426260D01*
X85331Y426160D01*
X85342Y426086D01*
X85343Y426012D01*
X85367Y425915D01*
X85382Y425815D01*
X85410Y425746D01*
X85428Y425674D01*
X85474Y425584D01*
X85511Y425491D01*
X85553Y425430D01*
X85588Y425364D01*
X85653Y425287D01*
X85710Y425205D01*
X85765Y425155D01*
X85813Y425099D01*
X85894Y425039D01*
X85969Y424972D01*
X86034Y424936D01*
X86094Y424891D01*
X86186Y424852D01*
X86274Y424803D01*
X86345Y424783D01*
X86414Y424753D01*
X86512Y424736D01*
X86609Y424708D01*
X86709Y424700D01*
X86757Y424692D01*
X86792Y424694D01*
X86853Y424689D01*
X95859Y424689D01*
X101509Y419039D01*
X101608Y418960D01*
X101702Y418876D01*
X101744Y418852D01*
X101782Y418822D01*
X101896Y418768D01*
X102007Y418707D01*
X102053Y418694D01*
X102097Y418673D01*
X102220Y418647D01*
X102342Y418612D01*
X102403Y418607D01*
X102438Y418600D01*
X102486Y418601D01*
X102586Y418593D01*
X142941Y418593D01*
X143017Y418601D01*
X143093Y418600D01*
X143189Y418621D01*
X143287Y418633D01*
X143359Y418658D01*
X143434Y418675D01*
X143522Y418717D01*
X143615Y418750D01*
X143679Y418792D01*
X143748Y418824D01*
X143825Y418886D01*
X143908Y418939D01*
X143961Y418994D01*
X144021Y419042D01*
X144082Y419119D01*
X144150Y419190D01*
X144189Y419255D01*
X144237Y419315D01*
X144284Y419408D01*
X146991Y422115D01*
X150501Y423569D01*
X154299Y423569D01*
X157809Y422115D01*
X160495Y419429D01*
X161949Y415919D01*
X161949Y412121D01*
X160495Y408611D01*
X157809Y405925D01*
X154299Y404471D01*
X150501Y404471D01*
X146991Y405925D01*
X144290Y408626D01*
X144283Y408645D01*
X144227Y408725D01*
X144179Y408811D01*
X144127Y408868D01*
X144084Y408931D01*
X144011Y408997D01*
X143945Y409070D01*
X143882Y409113D01*
X143825Y409164D01*
X143739Y409212D01*
X143658Y409268D01*
X143587Y409296D01*
X143520Y409333D01*
X143425Y409360D01*
X143334Y409396D01*
X143258Y409407D01*
X143185Y409428D01*
X143036Y409440D01*
X142989Y409447D01*
X142970Y409445D01*
X142941Y409447D01*
X102586Y409447D01*
X102460Y409433D01*
X102334Y409426D01*
X102288Y409413D01*
X102240Y409407D01*
X102121Y409365D01*
X101999Y409330D01*
X101957Y409306D01*
X101912Y409290D01*
X101806Y409221D01*
X101695Y409160D01*
X101649Y409120D01*
X101619Y409101D01*
X101585Y409066D01*
X101509Y409001D01*
X95859Y403351D01*
X87021Y403351D01*
X80771Y409601D01*
X80771Y418439D01*
X82480Y420148D01*
X82511Y420187D01*
X82548Y420221D01*
X82619Y420323D01*
X82696Y420421D01*
X82718Y420466D01*
X82746Y420508D01*
X82792Y420623D01*
X82845Y420736D01*
X82856Y420785D01*
X82874Y420832D01*
X82893Y420955D01*
X82919Y421076D01*
X82918Y421127D01*
X82925Y421177D01*
X82915Y421301D01*
X82913Y421425D01*
X82900Y421474D01*
X82896Y421524D01*
X82858Y421642D01*
X82828Y421763D01*
X82805Y421808D01*
X82789Y421856D01*
X82725Y421962D01*
X82668Y422073D01*
X82635Y422111D01*
X82609Y422154D01*
X82523Y422243D01*
X82442Y422338D01*
X82402Y422368D01*
X82367Y422404D01*
X82262Y422471D01*
X82162Y422545D01*
X82116Y422565D01*
X82073Y422592D01*
X81956Y422634D01*
X81842Y422683D01*
X81792Y422692D01*
X81745Y422709D01*
X81621Y422723D01*
X81499Y422745D01*
X81449Y422742D01*
X81399Y422748D01*
X81275Y422733D01*
X81151Y422727D01*
X81102Y422713D01*
X81052Y422707D01*
X80820Y422632D01*
X80816Y422630D01*
X79650Y422147D01*
X75684Y422147D01*
X75530Y422130D01*
X75375Y422116D01*
X75357Y422110D01*
X75338Y422107D01*
X75192Y422055D01*
X75044Y422006D01*
X75028Y421996D01*
X75010Y421990D01*
X74880Y421906D01*
X74747Y421825D01*
X74733Y421811D01*
X74717Y421801D01*
X74609Y421689D01*
X74499Y421580D01*
X74488Y421564D01*
X74475Y421550D01*
X74395Y421417D01*
X74312Y421286D01*
X74306Y421268D01*
X74296Y421251D01*
X74249Y421103D01*
X74198Y420957D01*
X74196Y420938D01*
X74190Y420919D01*
X74177Y420765D01*
X74161Y420610D01*
X74163Y420591D01*
X74162Y420572D01*
X74185Y420418D01*
X74204Y420264D01*
X74211Y420246D01*
X74213Y420227D01*
X74271Y420083D01*
X74324Y419937D01*
X74336Y419918D01*
X74342Y419903D01*
X74367Y419867D01*
X74452Y419729D01*
X74730Y419345D01*
X75456Y417920D01*
X75899Y416559D01*
X67056Y416559D01*
X67030Y416556D01*
X67004Y416558D01*
X66857Y416536D01*
X66710Y416519D01*
X66685Y416511D01*
X66659Y416507D01*
X66522Y416452D01*
X66382Y416402D01*
X66360Y416388D01*
X66335Y416378D01*
X66214Y416293D01*
X66089Y416213D01*
X66071Y416194D01*
X66049Y416179D01*
X66035Y416163D01*
X65950Y416245D01*
X65927Y416259D01*
X65908Y416276D01*
X65778Y416348D01*
X65651Y416424D01*
X65626Y416432D01*
X65603Y416445D01*
X65460Y416485D01*
X65319Y416530D01*
X65293Y416532D01*
X65268Y416540D01*
X65024Y416559D01*
X56181Y416559D01*
X56624Y417920D01*
X57350Y419345D01*
X57628Y419729D01*
X57704Y419864D01*
X57784Y419997D01*
X57790Y420015D01*
X57799Y420032D01*
X57843Y420181D01*
X57890Y420329D01*
X57892Y420348D01*
X57897Y420367D01*
X57906Y420522D01*
X57918Y420676D01*
X57915Y420695D01*
X57916Y420715D01*
X57890Y420868D01*
X57867Y421021D01*
X57859Y421039D01*
X57856Y421058D01*
X57795Y421201D01*
X57738Y421345D01*
X57727Y421361D01*
X57719Y421378D01*
X57627Y421504D01*
X57539Y421631D01*
X57525Y421644D01*
X57513Y421659D01*
X57395Y421761D01*
X57280Y421864D01*
X57263Y421874D01*
X57249Y421886D01*
X57111Y421958D01*
X56975Y422033D01*
X56957Y422038D01*
X56939Y422047D01*
X56789Y422085D01*
X56640Y422128D01*
X56617Y422130D01*
X56602Y422133D01*
X56558Y422134D01*
X56396Y422147D01*
X40625Y422147D01*
X40499Y422133D01*
X40373Y422126D01*
X40327Y422113D01*
X40279Y422107D01*
X40160Y422065D01*
X40038Y422030D01*
X39996Y422006D01*
X39951Y421990D01*
X39844Y421921D01*
X39734Y421860D01*
X39688Y421820D01*
X39658Y421801D01*
X39624Y421766D01*
X39548Y421701D01*
X22799Y404952D01*
X22720Y404853D01*
X22636Y404759D01*
X22612Y404717D01*
X22582Y404679D01*
X22528Y404565D01*
X22467Y404454D01*
X22454Y404408D01*
X22433Y404364D01*
X22407Y404241D01*
X22372Y404119D01*
X22367Y404058D01*
X22360Y404023D01*
X22361Y403975D01*
X22353Y403875D01*
X22353Y185405D01*
X22367Y185279D01*
X22374Y185153D01*
X22387Y185107D01*
X22393Y185059D01*
X22435Y184940D01*
X22470Y184818D01*
X22494Y184776D01*
X22510Y184731D01*
X22579Y184624D01*
X22640Y184514D01*
X22680Y184468D01*
X22699Y184438D01*
X22734Y184404D01*
X22799Y184328D01*
X76029Y131098D01*
X76089Y131051D01*
X76142Y130996D01*
X76225Y130943D01*
X76302Y130881D01*
X76371Y130849D01*
X76435Y130808D01*
X76528Y130775D01*
X76617Y130733D01*
X76691Y130717D01*
X76764Y130691D01*
X76862Y130680D01*
X76958Y130659D01*
X77034Y130661D01*
X77110Y130652D01*
X77208Y130663D01*
X77306Y130665D01*
X77380Y130684D01*
X77456Y130693D01*
X77598Y130739D01*
X77644Y130750D01*
X77661Y130759D01*
X77689Y130768D01*
X79381Y131469D01*
X83179Y131469D01*
X86689Y130015D01*
X89375Y127329D01*
X90829Y123819D01*
X90829Y120021D01*
X89375Y116511D01*
X86689Y113825D01*
X83179Y112371D01*
X79381Y112371D01*
X75871Y113825D01*
X73185Y116511D01*
X71731Y120021D01*
X71731Y121831D01*
X71717Y121957D01*
X71710Y122083D01*
X71697Y122129D01*
X71691Y122177D01*
X71649Y122296D01*
X71614Y122418D01*
X71590Y122460D01*
X71574Y122505D01*
X71505Y122612D01*
X71444Y122722D01*
X71404Y122768D01*
X71385Y122798D01*
X71350Y122832D01*
X71285Y122908D01*
X13903Y180290D01*
X13207Y181970D01*
X13207Y407310D01*
X13903Y408990D01*
X35510Y430597D01*
X37190Y431293D01*
X55402Y431293D01*
X55502Y431304D01*
X55602Y431306D01*
X55674Y431324D01*
X55748Y431333D01*
X55843Y431366D01*
X55940Y431391D01*
X56006Y431425D01*
X56076Y431450D01*
X56161Y431505D01*
X56250Y431551D01*
X56307Y431599D01*
X56369Y431639D01*
X56439Y431711D01*
X56515Y431776D01*
X56560Y431836D01*
X56611Y431890D01*
X56663Y431976D01*
X56723Y432057D01*
X56752Y432125D01*
X56790Y432189D01*
X56821Y432285D01*
X56861Y432377D01*
X56874Y432450D01*
X56896Y432521D01*
X56904Y432621D01*
X56922Y432720D01*
X56918Y432794D01*
X56924Y432868D01*
X56909Y432968D01*
X56904Y433068D01*
X56884Y433139D01*
X56873Y433213D01*
X56836Y433306D01*
X56808Y433403D01*
X56771Y433468D01*
X56744Y433537D01*
X56687Y433619D01*
X56638Y433707D01*
X56572Y433783D01*
X56545Y433823D01*
X56519Y433847D01*
X56479Y433893D01*
X55371Y435001D01*
X55371Y443839D01*
X61021Y449489D01*
X61100Y449588D01*
X61184Y449682D01*
X61208Y449724D01*
X61238Y449762D01*
X61292Y449876D01*
X61353Y449987D01*
X61366Y450033D01*
X61387Y450077D01*
X61413Y450200D01*
X61448Y450322D01*
X61453Y450383D01*
X61460Y450418D01*
X61459Y450466D01*
X61460Y450471D01*
X62163Y452170D01*
X71070Y461077D01*
X72750Y461773D01*
X112461Y461773D01*
X112537Y461781D01*
X112613Y461780D01*
X112709Y461801D01*
X112807Y461813D01*
X112879Y461838D01*
X112954Y461855D01*
X113042Y461897D01*
X113135Y461930D01*
X113199Y461972D01*
X113268Y462004D01*
X113345Y462066D01*
X113428Y462119D01*
X113481Y462174D01*
X113541Y462222D01*
X113602Y462299D01*
X113670Y462370D01*
X113709Y462435D01*
X113757Y462495D01*
X113804Y462588D01*
X115215Y463999D01*
X115277Y464078D01*
X115347Y464150D01*
X115385Y464214D01*
X115432Y464272D01*
X115474Y464363D01*
X115526Y464449D01*
X115549Y464520D01*
X115580Y464587D01*
X115602Y464685D01*
X115632Y464781D01*
X115638Y464855D01*
X115654Y464928D01*
X115652Y465028D01*
X115660Y465128D01*
X115649Y465202D01*
X115648Y465276D01*
X115623Y465373D01*
X115609Y465473D01*
X115581Y465542D01*
X115563Y465614D01*
X115517Y465703D01*
X115480Y465797D01*
X115437Y465858D01*
X115403Y465924D01*
X115338Y466000D01*
X115281Y466083D01*
X115226Y466133D01*
X115177Y466189D01*
X115097Y466249D01*
X115022Y466316D01*
X114957Y466352D01*
X114897Y466397D01*
X114805Y466436D01*
X114717Y466485D01*
X114645Y466505D01*
X114577Y466535D01*
X114478Y466552D01*
X114382Y466580D01*
X114282Y466588D01*
X114234Y466596D01*
X114198Y466594D01*
X114138Y466599D01*
X11684Y466599D01*
X11658Y466596D01*
X11632Y466598D01*
X11485Y466576D01*
X11338Y466559D01*
X11313Y466551D01*
X11287Y466547D01*
X11149Y466492D01*
X11010Y466442D01*
X10988Y466428D01*
X10963Y466418D01*
X10842Y466333D01*
X10717Y466253D01*
X10699Y466234D01*
X10677Y466219D01*
X10578Y466109D01*
X10475Y466002D01*
X10461Y465980D01*
X10444Y465960D01*
X10372Y465830D01*
X10296Y465703D01*
X10288Y465678D01*
X10275Y465655D01*
X10235Y465512D01*
X10190Y465371D01*
X10188Y465345D01*
X10180Y465320D01*
X10161Y465076D01*
X10161Y11684D01*
X10164Y11658D01*
X10162Y11632D01*
X10184Y11485D01*
X10201Y11338D01*
X10209Y11313D01*
X10213Y11287D01*
X10268Y11149D01*
X10318Y11010D01*
X10332Y10988D01*
X10342Y10963D01*
X10427Y10842D01*
X10507Y10717D01*
X10526Y10699D01*
X10541Y10677D01*
X10651Y10578D01*
X10758Y10475D01*
X10780Y10461D01*
X10800Y10444D01*
X10930Y10372D01*
X11057Y10296D01*
X11082Y10288D01*
X11105Y10275D01*
X11248Y10235D01*
X11389Y10190D01*
X11415Y10188D01*
X11440Y10180D01*
X11684Y10161D01*
X162575Y10161D01*
X162675Y10172D01*
G37*
%LPC*%
G36*
X97161Y165711D02*
X97161Y165711D01*
X93651Y167165D01*
X90965Y169851D01*
X89511Y173361D01*
X89511Y177159D01*
X90965Y180669D01*
X93666Y183370D01*
X93685Y183377D01*
X93765Y183433D01*
X93851Y183481D01*
X93908Y183533D01*
X93971Y183576D01*
X94037Y183649D01*
X94110Y183715D01*
X94153Y183778D01*
X94204Y183835D01*
X94252Y183921D01*
X94308Y184002D01*
X94336Y184073D01*
X94373Y184140D01*
X94400Y184235D01*
X94436Y184326D01*
X94447Y184402D01*
X94468Y184475D01*
X94480Y184624D01*
X94487Y184671D01*
X94485Y184690D01*
X94487Y184719D01*
X94487Y198628D01*
X94484Y198654D01*
X94486Y198680D01*
X94464Y198827D01*
X94447Y198974D01*
X94439Y198999D01*
X94435Y199025D01*
X94380Y199163D01*
X94330Y199302D01*
X94316Y199324D01*
X94306Y199349D01*
X94221Y199470D01*
X94141Y199595D01*
X94122Y199613D01*
X94107Y199635D01*
X93997Y199734D01*
X93890Y199837D01*
X93868Y199851D01*
X93848Y199868D01*
X93718Y199940D01*
X93591Y200016D01*
X93566Y200024D01*
X93543Y200037D01*
X93400Y200077D01*
X93259Y200122D01*
X93233Y200124D01*
X93208Y200132D01*
X92964Y200151D01*
X87021Y200151D01*
X80771Y206401D01*
X80771Y211851D01*
X80757Y211977D01*
X80750Y212103D01*
X80737Y212149D01*
X80731Y212197D01*
X80689Y212316D01*
X80654Y212438D01*
X80630Y212480D01*
X80614Y212525D01*
X80545Y212632D01*
X80484Y212742D01*
X80444Y212788D01*
X80425Y212818D01*
X80390Y212852D01*
X80325Y212928D01*
X78462Y214791D01*
X78334Y214893D01*
X78205Y214998D01*
X78196Y215002D01*
X78189Y215008D01*
X78040Y215078D01*
X77892Y215150D01*
X77883Y215153D01*
X77874Y215157D01*
X77713Y215191D01*
X77552Y215228D01*
X77543Y215228D01*
X77533Y215230D01*
X77370Y215227D01*
X77204Y215226D01*
X77194Y215224D01*
X77185Y215224D01*
X77025Y215184D01*
X76865Y215146D01*
X76856Y215141D01*
X76847Y215139D01*
X76700Y215063D01*
X76553Y214990D01*
X76545Y214984D01*
X76537Y214979D01*
X76411Y214873D01*
X76285Y214767D01*
X76279Y214760D01*
X76272Y214754D01*
X76173Y214621D01*
X76074Y214490D01*
X76070Y214481D01*
X76064Y214473D01*
X75999Y214322D01*
X75932Y214171D01*
X75930Y214162D01*
X75926Y214153D01*
X75897Y213990D01*
X75866Y213829D01*
X75866Y213820D01*
X75865Y213810D01*
X75873Y213645D01*
X75880Y213481D01*
X75882Y213470D01*
X75883Y213462D01*
X75891Y213433D01*
X75909Y213359D01*
X68579Y213359D01*
X68579Y220679D01*
X69940Y220236D01*
X71365Y219510D01*
X71749Y219232D01*
X71884Y219156D01*
X72017Y219076D01*
X72035Y219070D01*
X72052Y219061D01*
X72201Y219017D01*
X72349Y218970D01*
X72368Y218968D01*
X72387Y218963D01*
X72542Y218954D01*
X72696Y218942D01*
X72715Y218945D01*
X72735Y218944D01*
X72888Y218970D01*
X73041Y218993D01*
X73059Y219001D01*
X73078Y219004D01*
X73221Y219065D01*
X73365Y219122D01*
X73381Y219133D01*
X73398Y219141D01*
X73524Y219233D01*
X73651Y219321D01*
X73664Y219335D01*
X73679Y219347D01*
X73781Y219465D01*
X73884Y219580D01*
X73894Y219597D01*
X73906Y219611D01*
X73978Y219749D01*
X74053Y219885D01*
X74058Y219903D01*
X74067Y219921D01*
X74105Y220071D01*
X74148Y220220D01*
X74150Y220243D01*
X74153Y220258D01*
X74154Y220302D01*
X74167Y220464D01*
X74167Y225582D01*
X74156Y225682D01*
X74154Y225782D01*
X74136Y225854D01*
X74127Y225928D01*
X74094Y226023D01*
X74069Y226120D01*
X74035Y226186D01*
X74010Y226256D01*
X73955Y226341D01*
X73909Y226430D01*
X73861Y226487D01*
X73821Y226549D01*
X73749Y226619D01*
X73684Y226695D01*
X73624Y226740D01*
X73570Y226791D01*
X73484Y226843D01*
X73403Y226903D01*
X73335Y226932D01*
X73271Y226970D01*
X73175Y227001D01*
X73083Y227041D01*
X73010Y227054D01*
X72939Y227076D01*
X72839Y227084D01*
X72740Y227102D01*
X72666Y227098D01*
X72592Y227104D01*
X72492Y227089D01*
X72392Y227084D01*
X72321Y227064D01*
X72247Y227053D01*
X72154Y227016D01*
X72057Y226988D01*
X71992Y226951D01*
X71923Y226924D01*
X71841Y226867D01*
X71753Y226818D01*
X71677Y226752D01*
X71637Y226725D01*
X71613Y226699D01*
X71567Y226659D01*
X70459Y225551D01*
X61621Y225551D01*
X55371Y231801D01*
X55371Y239791D01*
X55357Y239917D01*
X55350Y240043D01*
X55337Y240089D01*
X55331Y240137D01*
X55289Y240256D01*
X55254Y240378D01*
X55230Y240420D01*
X55214Y240465D01*
X55145Y240572D01*
X55084Y240682D01*
X55044Y240728D01*
X55025Y240758D01*
X54990Y240792D01*
X54925Y240868D01*
X36763Y259030D01*
X36067Y260710D01*
X36067Y275230D01*
X36348Y275908D01*
X36383Y276029D01*
X36425Y276148D01*
X36431Y276196D01*
X36444Y276243D01*
X36450Y276369D01*
X36464Y276495D01*
X36458Y276543D01*
X36461Y276591D01*
X36438Y276715D01*
X36423Y276841D01*
X36405Y276899D01*
X36398Y276934D01*
X36379Y276978D01*
X36348Y277074D01*
X36171Y277501D01*
X36171Y281299D01*
X37625Y284809D01*
X40311Y287495D01*
X43821Y288949D01*
X47619Y288949D01*
X51129Y287495D01*
X53815Y284809D01*
X55269Y281299D01*
X55269Y277501D01*
X53815Y273991D01*
X51129Y271305D01*
X47619Y269851D01*
X46736Y269851D01*
X46710Y269848D01*
X46684Y269850D01*
X46537Y269828D01*
X46390Y269811D01*
X46365Y269803D01*
X46339Y269799D01*
X46201Y269744D01*
X46062Y269694D01*
X46040Y269680D01*
X46015Y269670D01*
X45894Y269585D01*
X45769Y269505D01*
X45751Y269486D01*
X45729Y269471D01*
X45630Y269361D01*
X45527Y269254D01*
X45513Y269232D01*
X45496Y269212D01*
X45424Y269082D01*
X45348Y268955D01*
X45340Y268930D01*
X45327Y268907D01*
X45287Y268764D01*
X45242Y268623D01*
X45240Y268597D01*
X45232Y268572D01*
X45213Y268328D01*
X45213Y264145D01*
X45227Y264019D01*
X45234Y263893D01*
X45247Y263847D01*
X45253Y263799D01*
X45295Y263680D01*
X45330Y263558D01*
X45354Y263516D01*
X45370Y263471D01*
X45439Y263364D01*
X45500Y263254D01*
X45540Y263208D01*
X45559Y263178D01*
X45594Y263144D01*
X45659Y263068D01*
X61392Y247335D01*
X61491Y247256D01*
X61585Y247172D01*
X61627Y247148D01*
X61665Y247118D01*
X61779Y247064D01*
X61890Y247003D01*
X61936Y246990D01*
X61980Y246969D01*
X62103Y246943D01*
X62225Y246908D01*
X62286Y246903D01*
X62321Y246896D01*
X62369Y246897D01*
X62469Y246889D01*
X70459Y246889D01*
X71567Y245781D01*
X71646Y245718D01*
X71718Y245649D01*
X71782Y245610D01*
X71840Y245564D01*
X71931Y245521D01*
X72017Y245470D01*
X72088Y245447D01*
X72155Y245415D01*
X72253Y245394D01*
X72349Y245364D01*
X72423Y245358D01*
X72496Y245342D01*
X72596Y245344D01*
X72696Y245336D01*
X72770Y245347D01*
X72844Y245348D01*
X72941Y245372D01*
X73041Y245387D01*
X73110Y245415D01*
X73182Y245433D01*
X73271Y245479D01*
X73365Y245516D01*
X73426Y245559D01*
X73492Y245593D01*
X73568Y245658D01*
X73651Y245715D01*
X73701Y245770D01*
X73757Y245818D01*
X73817Y245899D01*
X73884Y245974D01*
X73920Y246039D01*
X73965Y246099D01*
X74004Y246191D01*
X74053Y246279D01*
X74073Y246350D01*
X74103Y246419D01*
X74120Y246518D01*
X74148Y246614D01*
X74156Y246714D01*
X74164Y246762D01*
X74162Y246797D01*
X74167Y246858D01*
X74167Y293021D01*
X74203Y293149D01*
X74251Y293316D01*
X74251Y293318D01*
X74252Y293320D01*
X74271Y293564D01*
X74271Y293999D01*
X75725Y297509D01*
X78411Y300195D01*
X81921Y301649D01*
X85719Y301649D01*
X89229Y300195D01*
X91915Y297509D01*
X93369Y293999D01*
X93369Y290201D01*
X91915Y286691D01*
X89229Y284005D01*
X85719Y282551D01*
X84836Y282551D01*
X84810Y282548D01*
X84784Y282550D01*
X84637Y282528D01*
X84490Y282511D01*
X84465Y282503D01*
X84439Y282499D01*
X84301Y282444D01*
X84162Y282394D01*
X84140Y282380D01*
X84115Y282370D01*
X83994Y282285D01*
X83869Y282205D01*
X83851Y282186D01*
X83829Y282171D01*
X83730Y282061D01*
X83627Y281954D01*
X83613Y281932D01*
X83596Y281912D01*
X83524Y281782D01*
X83448Y281655D01*
X83440Y281630D01*
X83427Y281607D01*
X83387Y281464D01*
X83342Y281323D01*
X83340Y281297D01*
X83332Y281272D01*
X83313Y281028D01*
X83313Y246858D01*
X83324Y246758D01*
X83326Y246658D01*
X83344Y246586D01*
X83353Y246512D01*
X83386Y246417D01*
X83411Y246320D01*
X83445Y246254D01*
X83470Y246184D01*
X83525Y246099D01*
X83571Y246010D01*
X83619Y245953D01*
X83659Y245891D01*
X83731Y245821D01*
X83796Y245745D01*
X83856Y245700D01*
X83910Y245649D01*
X83996Y245597D01*
X84077Y245537D01*
X84145Y245508D01*
X84209Y245470D01*
X84305Y245439D01*
X84397Y245399D01*
X84470Y245386D01*
X84541Y245364D01*
X84641Y245356D01*
X84740Y245338D01*
X84814Y245342D01*
X84888Y245336D01*
X84988Y245351D01*
X85088Y245356D01*
X85159Y245376D01*
X85233Y245387D01*
X85326Y245424D01*
X85423Y245452D01*
X85488Y245489D01*
X85557Y245516D01*
X85639Y245573D01*
X85727Y245622D01*
X85803Y245688D01*
X85843Y245715D01*
X85867Y245741D01*
X85913Y245781D01*
X87021Y246889D01*
X95859Y246889D01*
X102109Y240639D01*
X102109Y232649D01*
X102123Y232523D01*
X102130Y232397D01*
X102143Y232351D01*
X102149Y232303D01*
X102191Y232184D01*
X102226Y232062D01*
X102250Y232020D01*
X102266Y231975D01*
X102335Y231868D01*
X102396Y231758D01*
X102436Y231712D01*
X102455Y231682D01*
X102490Y231648D01*
X102555Y231572D01*
X103048Y231079D01*
X103147Y231000D01*
X103241Y230916D01*
X103283Y230892D01*
X103321Y230862D01*
X103435Y230808D01*
X103546Y230747D01*
X103592Y230734D01*
X103636Y230713D01*
X103759Y230687D01*
X103881Y230652D01*
X103942Y230647D01*
X103977Y230640D01*
X104025Y230641D01*
X104125Y230633D01*
X203215Y230633D01*
X203341Y230647D01*
X203467Y230654D01*
X203513Y230667D01*
X203561Y230673D01*
X203680Y230715D01*
X203802Y230750D01*
X203844Y230774D01*
X203889Y230790D01*
X203996Y230859D01*
X204106Y230920D01*
X204152Y230960D01*
X204182Y230979D01*
X204216Y231014D01*
X204292Y231079D01*
X233918Y260705D01*
X233965Y260765D01*
X234020Y260818D01*
X234074Y260901D01*
X234135Y260978D01*
X234167Y261047D01*
X234209Y261111D01*
X234241Y261204D01*
X234283Y261293D01*
X234300Y261368D01*
X234325Y261440D01*
X234336Y261538D01*
X234357Y261634D01*
X234356Y261710D01*
X234364Y261786D01*
X234353Y261884D01*
X234351Y261982D01*
X234332Y262056D01*
X234323Y262132D01*
X234291Y262231D01*
X234291Y266059D01*
X235745Y269569D01*
X238431Y272255D01*
X241941Y273709D01*
X245739Y273709D01*
X249249Y272255D01*
X251935Y269569D01*
X253389Y266059D01*
X253389Y262261D01*
X251935Y258751D01*
X249249Y256065D01*
X245739Y254611D01*
X241920Y254611D01*
X241901Y254619D01*
X241804Y254637D01*
X241710Y254664D01*
X241634Y254668D01*
X241558Y254681D01*
X241460Y254676D01*
X241362Y254681D01*
X241286Y254667D01*
X241210Y254663D01*
X241116Y254636D01*
X241019Y254618D01*
X240949Y254588D01*
X240875Y254567D01*
X240789Y254519D01*
X240699Y254479D01*
X240638Y254434D01*
X240571Y254396D01*
X240458Y254300D01*
X240420Y254272D01*
X240407Y254257D01*
X240385Y254238D01*
X209831Y223684D01*
X208330Y222183D01*
X206650Y221487D01*
X100690Y221487D01*
X99520Y221972D01*
X99472Y221986D01*
X99426Y222007D01*
X99305Y222033D01*
X99185Y222068D01*
X99135Y222070D01*
X99086Y222081D01*
X98961Y222079D01*
X98837Y222085D01*
X98788Y222076D01*
X98737Y222075D01*
X98617Y222044D01*
X98494Y222022D01*
X98448Y222002D01*
X98399Y221990D01*
X98288Y221933D01*
X98175Y221883D01*
X98134Y221853D01*
X98089Y221830D01*
X97995Y221749D01*
X97895Y221675D01*
X97862Y221637D01*
X97824Y221604D01*
X97750Y221504D01*
X97670Y221409D01*
X97647Y221364D01*
X97617Y221324D01*
X97568Y221210D01*
X97511Y221099D01*
X97499Y221050D01*
X97479Y221004D01*
X97457Y220881D01*
X97427Y220761D01*
X97426Y220711D01*
X97417Y220661D01*
X97424Y220537D01*
X97422Y220412D01*
X97432Y220363D01*
X97435Y220313D01*
X97470Y220193D01*
X97496Y220072D01*
X97518Y220027D01*
X97532Y219978D01*
X97592Y219869D01*
X97646Y219757D01*
X97677Y219718D01*
X97702Y219674D01*
X97860Y219488D01*
X102109Y215239D01*
X102109Y207249D01*
X102123Y207123D01*
X102130Y206997D01*
X102143Y206951D01*
X102149Y206903D01*
X102191Y206784D01*
X102226Y206662D01*
X102250Y206620D01*
X102266Y206575D01*
X102335Y206468D01*
X102396Y206358D01*
X102436Y206312D01*
X102455Y206282D01*
X102490Y206248D01*
X102555Y206172D01*
X102937Y205790D01*
X103633Y204110D01*
X103633Y184719D01*
X103641Y184643D01*
X103640Y184567D01*
X103661Y184471D01*
X103673Y184373D01*
X103698Y184301D01*
X103715Y184226D01*
X103757Y184138D01*
X103790Y184045D01*
X103832Y183980D01*
X103864Y183912D01*
X103926Y183835D01*
X103979Y183752D01*
X104034Y183699D01*
X104082Y183639D01*
X104159Y183578D01*
X104230Y183510D01*
X104295Y183471D01*
X104355Y183423D01*
X104448Y183376D01*
X107155Y180669D01*
X108609Y177159D01*
X108609Y173361D01*
X107155Y169851D01*
X104469Y167165D01*
X100959Y165711D01*
X97161Y165711D01*
G37*
%LPD*%
%LPC*%
G36*
X330820Y143763D02*
X330820Y143763D01*
X327272Y145233D01*
X324557Y147948D01*
X323087Y151496D01*
X323087Y168544D01*
X324557Y172092D01*
X327483Y175018D01*
X327500Y175039D01*
X327520Y175056D01*
X327608Y175175D01*
X327700Y175291D01*
X327711Y175315D01*
X327727Y175336D01*
X327786Y175472D01*
X327849Y175607D01*
X327854Y175632D01*
X327865Y175656D01*
X327891Y175802D01*
X327922Y175947D01*
X327922Y175973D01*
X327927Y175999D01*
X327919Y176148D01*
X327916Y176296D01*
X327910Y176321D01*
X327909Y176347D01*
X327867Y176490D01*
X327831Y176634D01*
X327819Y176657D01*
X327812Y176682D01*
X327740Y176812D01*
X327672Y176943D01*
X327655Y176963D01*
X327642Y176986D01*
X327483Y177173D01*
X324645Y180011D01*
X323636Y182447D01*
X323599Y182514D01*
X323571Y182585D01*
X323515Y182666D01*
X323467Y182752D01*
X323415Y182808D01*
X323372Y182871D01*
X323299Y182937D01*
X323233Y183010D01*
X323170Y183053D01*
X323113Y183104D01*
X323027Y183152D01*
X322946Y183208D01*
X322875Y183236D01*
X322808Y183273D01*
X322713Y183300D01*
X322622Y183336D01*
X322546Y183347D01*
X322472Y183368D01*
X322324Y183380D01*
X322277Y183387D01*
X322258Y183385D01*
X322229Y183387D01*
X306430Y183387D01*
X304750Y184083D01*
X285683Y203150D01*
X284987Y204830D01*
X284987Y248935D01*
X284973Y249061D01*
X284966Y249187D01*
X284953Y249233D01*
X284947Y249281D01*
X284905Y249400D01*
X284870Y249522D01*
X284846Y249564D01*
X284830Y249609D01*
X284761Y249716D01*
X284700Y249826D01*
X284660Y249872D01*
X284641Y249902D01*
X284606Y249936D01*
X284541Y250012D01*
X280315Y254238D01*
X280255Y254285D01*
X280202Y254340D01*
X280119Y254393D01*
X280042Y254455D01*
X279973Y254487D01*
X279909Y254528D01*
X279816Y254561D01*
X279727Y254603D01*
X279653Y254620D01*
X279580Y254645D01*
X279482Y254656D01*
X279386Y254677D01*
X279310Y254676D01*
X279234Y254684D01*
X279136Y254673D01*
X279038Y254671D01*
X278964Y254652D01*
X278888Y254643D01*
X278789Y254611D01*
X274961Y254611D01*
X271451Y256065D01*
X268765Y258751D01*
X267311Y262261D01*
X267311Y266059D01*
X268765Y269569D01*
X271451Y272255D01*
X274961Y273709D01*
X278759Y273709D01*
X282269Y272255D01*
X284955Y269569D01*
X286409Y266059D01*
X286409Y262240D01*
X286401Y262221D01*
X286383Y262124D01*
X286356Y262030D01*
X286352Y261953D01*
X286339Y261878D01*
X286344Y261780D01*
X286339Y261682D01*
X286353Y261606D01*
X286357Y261530D01*
X286384Y261436D01*
X286402Y261339D01*
X286432Y261269D01*
X286453Y261195D01*
X286501Y261109D01*
X286541Y261019D01*
X286586Y260958D01*
X286624Y260891D01*
X286720Y260777D01*
X286749Y260739D01*
X286763Y260727D01*
X286782Y260705D01*
X293437Y254050D01*
X294133Y252370D01*
X294133Y208265D01*
X294147Y208139D01*
X294154Y208013D01*
X294167Y207967D01*
X294173Y207919D01*
X294215Y207800D01*
X294250Y207678D01*
X294274Y207636D01*
X294290Y207591D01*
X294359Y207484D01*
X294420Y207374D01*
X294460Y207328D01*
X294479Y207298D01*
X294514Y207264D01*
X294579Y207188D01*
X308788Y192979D01*
X308887Y192900D01*
X308981Y192816D01*
X309023Y192792D01*
X309061Y192762D01*
X309175Y192708D01*
X309286Y192647D01*
X309332Y192634D01*
X309376Y192613D01*
X309499Y192587D01*
X309621Y192552D01*
X309682Y192547D01*
X309717Y192540D01*
X309765Y192541D01*
X309865Y192533D01*
X325718Y192533D01*
X325843Y192547D01*
X325970Y192554D01*
X326016Y192567D01*
X326064Y192573D01*
X326183Y192615D01*
X326304Y192650D01*
X326347Y192674D01*
X326392Y192690D01*
X326498Y192759D01*
X326609Y192820D01*
X326655Y192860D01*
X326685Y192879D01*
X326718Y192914D01*
X326795Y192979D01*
X327331Y193515D01*
X330841Y194969D01*
X334639Y194969D01*
X338149Y193515D01*
X340835Y190829D01*
X342289Y187319D01*
X342289Y183521D01*
X340835Y180011D01*
X337997Y177173D01*
X337980Y177152D01*
X337960Y177135D01*
X337872Y177016D01*
X337780Y176900D01*
X337769Y176876D01*
X337753Y176855D01*
X337694Y176719D01*
X337631Y176585D01*
X337626Y176559D01*
X337615Y176535D01*
X337589Y176388D01*
X337558Y176244D01*
X337558Y176218D01*
X337553Y176192D01*
X337561Y176043D01*
X337564Y175895D01*
X337570Y175870D01*
X337571Y175844D01*
X337612Y175701D01*
X337649Y175557D01*
X337661Y175534D01*
X337668Y175509D01*
X337740Y175379D01*
X337808Y175248D01*
X337825Y175228D01*
X337838Y175205D01*
X337997Y175018D01*
X340923Y172092D01*
X342393Y168544D01*
X342393Y151496D01*
X340923Y147948D01*
X338208Y145233D01*
X334660Y143763D01*
X330820Y143763D01*
G37*
%LPD*%
%LPC*%
G36*
X389261Y140311D02*
X389261Y140311D01*
X385751Y141765D01*
X383065Y144451D01*
X381611Y147961D01*
X381611Y151759D01*
X383065Y155269D01*
X385751Y157955D01*
X389261Y159409D01*
X393080Y159409D01*
X393099Y159401D01*
X393196Y159383D01*
X393290Y159356D01*
X393367Y159352D01*
X393442Y159339D01*
X393540Y159344D01*
X393638Y159339D01*
X393714Y159353D01*
X393790Y159357D01*
X393884Y159384D01*
X393981Y159402D01*
X394051Y159432D01*
X394125Y159453D01*
X394211Y159501D01*
X394301Y159541D01*
X394362Y159586D01*
X394429Y159624D01*
X394543Y159720D01*
X394581Y159749D01*
X394593Y159763D01*
X394615Y159782D01*
X411541Y176708D01*
X411620Y176807D01*
X411704Y176901D01*
X411728Y176943D01*
X411758Y176981D01*
X411812Y177095D01*
X411873Y177206D01*
X411886Y177252D01*
X411907Y177296D01*
X411933Y177419D01*
X411968Y177541D01*
X411973Y177602D01*
X411980Y177637D01*
X411979Y177685D01*
X411987Y177785D01*
X411987Y226075D01*
X411973Y226201D01*
X411966Y226327D01*
X411953Y226373D01*
X411947Y226421D01*
X411905Y226540D01*
X411870Y226662D01*
X411846Y226704D01*
X411830Y226749D01*
X411761Y226856D01*
X411700Y226966D01*
X411660Y227012D01*
X411641Y227042D01*
X411606Y227076D01*
X411541Y227152D01*
X407978Y230716D01*
X407957Y230732D01*
X407940Y230752D01*
X407821Y230840D01*
X407705Y230932D01*
X407681Y230943D01*
X407660Y230959D01*
X407524Y231018D01*
X407390Y231081D01*
X407364Y231087D01*
X407340Y231097D01*
X407194Y231123D01*
X407049Y231154D01*
X407023Y231154D01*
X406997Y231159D01*
X406848Y231151D01*
X406700Y231149D01*
X406675Y231142D01*
X406649Y231141D01*
X406506Y231100D01*
X406362Y231064D01*
X406339Y231052D01*
X406314Y231044D01*
X406184Y230972D01*
X406053Y230904D01*
X406033Y230887D01*
X406010Y230874D01*
X405823Y230716D01*
X400659Y225551D01*
X391821Y225551D01*
X385571Y231801D01*
X385571Y240639D01*
X391821Y246889D01*
X400659Y246889D01*
X406309Y241239D01*
X406408Y241160D01*
X406502Y241076D01*
X406544Y241052D01*
X406582Y241022D01*
X406696Y240968D01*
X406807Y240907D01*
X406853Y240894D01*
X406897Y240873D01*
X407020Y240847D01*
X407142Y240812D01*
X407203Y240807D01*
X407238Y240800D01*
X407286Y240801D01*
X407386Y240793D01*
X409850Y240793D01*
X411530Y240097D01*
X420437Y231190D01*
X421133Y229510D01*
X421133Y174350D01*
X420437Y172670D01*
X401082Y153315D01*
X401035Y153255D01*
X400980Y153202D01*
X400927Y153119D01*
X400865Y153042D01*
X400833Y152973D01*
X400792Y152909D01*
X400759Y152816D01*
X400717Y152727D01*
X400700Y152653D01*
X400675Y152580D01*
X400664Y152482D01*
X400643Y152386D01*
X400644Y152310D01*
X400636Y152234D01*
X400647Y152136D01*
X400649Y152038D01*
X400668Y151964D01*
X400677Y151888D01*
X400709Y151789D01*
X400709Y147961D01*
X399255Y144451D01*
X396569Y141765D01*
X393059Y140311D01*
X389261Y140311D01*
G37*
%LPD*%
%LPC*%
G36*
X125121Y327151D02*
X125121Y327151D01*
X118871Y333401D01*
X118871Y341391D01*
X118857Y341517D01*
X118850Y341643D01*
X118837Y341689D01*
X118831Y341737D01*
X118789Y341856D01*
X118754Y341978D01*
X118730Y342020D01*
X118714Y342065D01*
X118645Y342172D01*
X118584Y342282D01*
X118544Y342328D01*
X118525Y342358D01*
X118490Y342392D01*
X118425Y342468D01*
X107772Y353121D01*
X107673Y353200D01*
X107579Y353284D01*
X107537Y353308D01*
X107499Y353338D01*
X107385Y353392D01*
X107274Y353453D01*
X107228Y353466D01*
X107184Y353487D01*
X107061Y353513D01*
X106939Y353548D01*
X106878Y353553D01*
X106843Y353560D01*
X106795Y353559D01*
X106695Y353567D01*
X49890Y353567D01*
X48210Y354263D01*
X39303Y363170D01*
X38607Y364850D01*
X38607Y366461D01*
X38599Y366537D01*
X38600Y366613D01*
X38579Y366709D01*
X38567Y366807D01*
X38542Y366879D01*
X38525Y366954D01*
X38483Y367042D01*
X38450Y367135D01*
X38408Y367199D01*
X38376Y367268D01*
X38314Y367345D01*
X38261Y367428D01*
X38206Y367481D01*
X38158Y367541D01*
X38081Y367602D01*
X38010Y367670D01*
X37945Y367709D01*
X37885Y367757D01*
X37792Y367804D01*
X35085Y370511D01*
X33631Y374021D01*
X33631Y377819D01*
X35085Y381329D01*
X37771Y384015D01*
X41281Y385469D01*
X45079Y385469D01*
X48589Y384015D01*
X51275Y381329D01*
X52729Y377819D01*
X52729Y374021D01*
X51275Y370511D01*
X49162Y368399D01*
X49146Y368378D01*
X49126Y368361D01*
X49038Y368241D01*
X48946Y368126D01*
X48935Y368102D01*
X48919Y368081D01*
X48860Y367944D01*
X48797Y367810D01*
X48791Y367785D01*
X48781Y367761D01*
X48755Y367615D01*
X48724Y367470D01*
X48724Y367444D01*
X48719Y367418D01*
X48727Y367269D01*
X48730Y367121D01*
X48736Y367096D01*
X48737Y367070D01*
X48778Y366927D01*
X48815Y366783D01*
X48827Y366760D01*
X48834Y366735D01*
X48906Y366605D01*
X48974Y366473D01*
X48991Y366454D01*
X49004Y366431D01*
X49162Y366244D01*
X52248Y363159D01*
X52347Y363080D01*
X52441Y362996D01*
X52483Y362972D01*
X52521Y362942D01*
X52635Y362888D01*
X52746Y362827D01*
X52792Y362814D01*
X52836Y362793D01*
X52959Y362767D01*
X53081Y362732D01*
X53142Y362727D01*
X53177Y362720D01*
X53225Y362721D01*
X53325Y362713D01*
X110130Y362713D01*
X111810Y362017D01*
X113311Y360516D01*
X124892Y348935D01*
X124991Y348856D01*
X125085Y348772D01*
X125127Y348748D01*
X125165Y348718D01*
X125279Y348664D01*
X125390Y348603D01*
X125436Y348590D01*
X125480Y348569D01*
X125603Y348543D01*
X125725Y348508D01*
X125786Y348503D01*
X125821Y348496D01*
X125869Y348497D01*
X125969Y348489D01*
X133959Y348489D01*
X140209Y342239D01*
X140209Y333401D01*
X133959Y327151D01*
X125121Y327151D01*
G37*
%LPD*%
%LPC*%
G36*
X178218Y27431D02*
X178218Y27431D01*
X174297Y29056D01*
X171296Y32057D01*
X169671Y35978D01*
X169671Y55462D01*
X171296Y59383D01*
X174297Y62384D01*
X174827Y62604D01*
X174894Y62641D01*
X174965Y62670D01*
X175046Y62726D01*
X175132Y62773D01*
X175188Y62825D01*
X175251Y62868D01*
X175317Y62941D01*
X175390Y63008D01*
X175433Y63071D01*
X175484Y63127D01*
X175532Y63213D01*
X175588Y63294D01*
X175616Y63365D01*
X175653Y63432D01*
X175680Y63527D01*
X175716Y63618D01*
X175727Y63694D01*
X175748Y63768D01*
X175760Y63917D01*
X175767Y63963D01*
X175765Y63982D01*
X175767Y64011D01*
X175767Y67644D01*
X175759Y67720D01*
X175760Y67797D01*
X175739Y67893D01*
X175727Y67990D01*
X175702Y68062D01*
X175685Y68137D01*
X175643Y68226D01*
X175610Y68319D01*
X175568Y68383D01*
X175536Y68452D01*
X175474Y68529D01*
X175421Y68611D01*
X175366Y68664D01*
X175318Y68724D01*
X175241Y68785D01*
X175170Y68854D01*
X175105Y68893D01*
X175045Y68940D01*
X174912Y69008D01*
X174875Y69030D01*
X172157Y71748D01*
X170687Y75296D01*
X170687Y92344D01*
X172157Y95892D01*
X174872Y98607D01*
X178420Y100077D01*
X182260Y100077D01*
X185808Y98607D01*
X188523Y95892D01*
X189993Y92344D01*
X189993Y75296D01*
X188523Y71748D01*
X185793Y69018D01*
X185786Y69014D01*
X185715Y68986D01*
X185635Y68930D01*
X185548Y68882D01*
X185492Y68831D01*
X185429Y68787D01*
X185363Y68714D01*
X185290Y68648D01*
X185247Y68585D01*
X185196Y68528D01*
X185148Y68442D01*
X185092Y68361D01*
X185064Y68290D01*
X185027Y68223D01*
X185000Y68129D01*
X184964Y68037D01*
X184953Y67962D01*
X184932Y67888D01*
X184920Y67739D01*
X184913Y67692D01*
X184915Y67673D01*
X184913Y67644D01*
X184913Y64011D01*
X184921Y63936D01*
X184920Y63859D01*
X184941Y63763D01*
X184953Y63665D01*
X184978Y63593D01*
X184995Y63519D01*
X185037Y63430D01*
X185070Y63337D01*
X185112Y63273D01*
X185144Y63204D01*
X185206Y63127D01*
X185259Y63044D01*
X185314Y62991D01*
X185362Y62931D01*
X185439Y62871D01*
X185510Y62802D01*
X185575Y62763D01*
X185635Y62716D01*
X185768Y62647D01*
X185809Y62623D01*
X185827Y62617D01*
X185853Y62604D01*
X186383Y62384D01*
X189384Y59383D01*
X191009Y55462D01*
X191009Y35978D01*
X189384Y32057D01*
X186383Y29056D01*
X182462Y27431D01*
X178218Y27431D01*
G37*
%LPD*%
%LPC*%
G36*
X203618Y27431D02*
X203618Y27431D01*
X199697Y29056D01*
X196696Y32057D01*
X195071Y35978D01*
X195071Y55462D01*
X196696Y59383D01*
X199697Y62384D01*
X200227Y62604D01*
X200294Y62641D01*
X200365Y62670D01*
X200446Y62726D01*
X200532Y62773D01*
X200588Y62825D01*
X200651Y62868D01*
X200717Y62941D01*
X200790Y63008D01*
X200833Y63071D01*
X200884Y63127D01*
X200932Y63213D01*
X200988Y63294D01*
X201016Y63365D01*
X201053Y63432D01*
X201080Y63527D01*
X201116Y63618D01*
X201127Y63694D01*
X201148Y63768D01*
X201160Y63917D01*
X201167Y63963D01*
X201165Y63982D01*
X201167Y64011D01*
X201167Y67644D01*
X201159Y67720D01*
X201160Y67797D01*
X201139Y67893D01*
X201127Y67990D01*
X201102Y68062D01*
X201085Y68137D01*
X201043Y68226D01*
X201010Y68319D01*
X200968Y68383D01*
X200936Y68452D01*
X200874Y68529D01*
X200821Y68611D01*
X200766Y68664D01*
X200718Y68724D01*
X200641Y68785D01*
X200570Y68854D01*
X200505Y68893D01*
X200445Y68940D01*
X200312Y69008D01*
X200275Y69030D01*
X197557Y71748D01*
X196087Y75296D01*
X196087Y92344D01*
X197557Y95892D01*
X200272Y98607D01*
X203820Y100077D01*
X207660Y100077D01*
X211208Y98607D01*
X213923Y95892D01*
X215393Y92344D01*
X215393Y75296D01*
X213923Y71748D01*
X211193Y69018D01*
X211186Y69014D01*
X211115Y68986D01*
X211035Y68930D01*
X210948Y68882D01*
X210892Y68831D01*
X210829Y68787D01*
X210763Y68714D01*
X210690Y68648D01*
X210647Y68585D01*
X210596Y68528D01*
X210548Y68442D01*
X210492Y68361D01*
X210464Y68290D01*
X210427Y68223D01*
X210400Y68129D01*
X210364Y68037D01*
X210353Y67962D01*
X210332Y67888D01*
X210320Y67739D01*
X210313Y67692D01*
X210315Y67673D01*
X210313Y67644D01*
X210313Y64011D01*
X210321Y63936D01*
X210320Y63859D01*
X210341Y63763D01*
X210353Y63665D01*
X210378Y63593D01*
X210395Y63519D01*
X210437Y63430D01*
X210470Y63337D01*
X210512Y63273D01*
X210544Y63204D01*
X210606Y63127D01*
X210659Y63044D01*
X210714Y62991D01*
X210762Y62931D01*
X210839Y62871D01*
X210910Y62802D01*
X210975Y62763D01*
X211035Y62716D01*
X211168Y62647D01*
X211209Y62623D01*
X211227Y62617D01*
X211253Y62604D01*
X211783Y62384D01*
X214784Y59383D01*
X216409Y55462D01*
X216409Y35978D01*
X214784Y32057D01*
X211783Y29056D01*
X207862Y27431D01*
X203618Y27431D01*
G37*
%LPD*%
%LPC*%
G36*
X254418Y27431D02*
X254418Y27431D01*
X250497Y29056D01*
X247496Y32057D01*
X245871Y35978D01*
X245871Y55462D01*
X247496Y59383D01*
X250497Y62384D01*
X251027Y62604D01*
X251094Y62641D01*
X251165Y62670D01*
X251246Y62726D01*
X251332Y62773D01*
X251388Y62825D01*
X251451Y62868D01*
X251517Y62941D01*
X251590Y63008D01*
X251633Y63071D01*
X251684Y63127D01*
X251732Y63213D01*
X251788Y63294D01*
X251816Y63365D01*
X251853Y63432D01*
X251880Y63527D01*
X251916Y63618D01*
X251927Y63694D01*
X251948Y63768D01*
X251960Y63917D01*
X251967Y63963D01*
X251965Y63982D01*
X251967Y64011D01*
X251967Y67644D01*
X251959Y67720D01*
X251960Y67797D01*
X251939Y67893D01*
X251927Y67990D01*
X251902Y68062D01*
X251885Y68137D01*
X251843Y68226D01*
X251810Y68319D01*
X251768Y68383D01*
X251736Y68452D01*
X251674Y68529D01*
X251621Y68611D01*
X251566Y68664D01*
X251518Y68724D01*
X251441Y68785D01*
X251370Y68854D01*
X251305Y68893D01*
X251245Y68940D01*
X251112Y69008D01*
X251075Y69030D01*
X248357Y71748D01*
X246887Y75296D01*
X246887Y92344D01*
X248357Y95892D01*
X251072Y98607D01*
X254620Y100077D01*
X258460Y100077D01*
X262008Y98607D01*
X264723Y95892D01*
X266193Y92344D01*
X266193Y75296D01*
X264723Y71748D01*
X261993Y69018D01*
X261986Y69014D01*
X261915Y68986D01*
X261835Y68930D01*
X261748Y68882D01*
X261692Y68831D01*
X261629Y68787D01*
X261563Y68714D01*
X261490Y68648D01*
X261447Y68585D01*
X261396Y68528D01*
X261348Y68442D01*
X261292Y68361D01*
X261264Y68290D01*
X261227Y68223D01*
X261200Y68129D01*
X261164Y68037D01*
X261153Y67962D01*
X261132Y67888D01*
X261120Y67739D01*
X261113Y67692D01*
X261115Y67673D01*
X261113Y67644D01*
X261113Y64011D01*
X261121Y63936D01*
X261120Y63859D01*
X261141Y63763D01*
X261153Y63665D01*
X261178Y63593D01*
X261195Y63519D01*
X261237Y63430D01*
X261270Y63337D01*
X261312Y63273D01*
X261344Y63204D01*
X261406Y63127D01*
X261459Y63044D01*
X261514Y62991D01*
X261562Y62931D01*
X261639Y62871D01*
X261710Y62802D01*
X261775Y62763D01*
X261835Y62716D01*
X261968Y62647D01*
X262009Y62623D01*
X262027Y62617D01*
X262053Y62604D01*
X262583Y62384D01*
X265584Y59383D01*
X267209Y55462D01*
X267209Y35978D01*
X265584Y32057D01*
X262583Y29056D01*
X258662Y27431D01*
X254418Y27431D01*
G37*
%LPD*%
%LPC*%
G36*
X279818Y27431D02*
X279818Y27431D01*
X275897Y29056D01*
X272896Y32057D01*
X271271Y35978D01*
X271271Y55462D01*
X272896Y59383D01*
X275897Y62384D01*
X276427Y62604D01*
X276494Y62641D01*
X276565Y62670D01*
X276646Y62726D01*
X276732Y62773D01*
X276788Y62825D01*
X276851Y62868D01*
X276917Y62941D01*
X276990Y63008D01*
X277033Y63071D01*
X277084Y63127D01*
X277132Y63213D01*
X277188Y63294D01*
X277216Y63365D01*
X277253Y63432D01*
X277280Y63527D01*
X277316Y63618D01*
X277327Y63694D01*
X277348Y63768D01*
X277360Y63917D01*
X277367Y63963D01*
X277365Y63982D01*
X277367Y64011D01*
X277367Y67644D01*
X277359Y67720D01*
X277360Y67797D01*
X277339Y67893D01*
X277327Y67990D01*
X277302Y68062D01*
X277285Y68137D01*
X277243Y68226D01*
X277210Y68319D01*
X277168Y68383D01*
X277136Y68452D01*
X277074Y68529D01*
X277021Y68611D01*
X276966Y68664D01*
X276918Y68724D01*
X276841Y68785D01*
X276770Y68854D01*
X276705Y68893D01*
X276645Y68940D01*
X276512Y69008D01*
X276475Y69030D01*
X273757Y71748D01*
X272287Y75296D01*
X272287Y92344D01*
X273757Y95892D01*
X276472Y98607D01*
X280020Y100077D01*
X283860Y100077D01*
X287408Y98607D01*
X290123Y95892D01*
X291593Y92344D01*
X291593Y75296D01*
X290123Y71748D01*
X287393Y69018D01*
X287386Y69014D01*
X287315Y68986D01*
X287235Y68930D01*
X287148Y68882D01*
X287092Y68831D01*
X287029Y68787D01*
X286963Y68714D01*
X286890Y68648D01*
X286847Y68585D01*
X286796Y68528D01*
X286748Y68442D01*
X286692Y68361D01*
X286664Y68290D01*
X286627Y68223D01*
X286600Y68129D01*
X286564Y68037D01*
X286553Y67962D01*
X286532Y67888D01*
X286520Y67739D01*
X286513Y67692D01*
X286515Y67673D01*
X286513Y67644D01*
X286513Y64011D01*
X286521Y63936D01*
X286520Y63859D01*
X286541Y63763D01*
X286553Y63665D01*
X286578Y63593D01*
X286595Y63519D01*
X286637Y63430D01*
X286670Y63337D01*
X286712Y63273D01*
X286744Y63204D01*
X286806Y63127D01*
X286859Y63044D01*
X286914Y62991D01*
X286962Y62931D01*
X287039Y62871D01*
X287110Y62802D01*
X287175Y62763D01*
X287235Y62716D01*
X287368Y62647D01*
X287409Y62623D01*
X287427Y62617D01*
X287453Y62604D01*
X287983Y62384D01*
X290984Y59383D01*
X292609Y55462D01*
X292609Y35978D01*
X290984Y32057D01*
X287983Y29056D01*
X284062Y27431D01*
X279818Y27431D01*
G37*
%LPD*%
%LPC*%
G36*
X305218Y27431D02*
X305218Y27431D01*
X301297Y29056D01*
X298296Y32057D01*
X296671Y35978D01*
X296671Y55462D01*
X298296Y59383D01*
X301297Y62384D01*
X301827Y62604D01*
X301894Y62641D01*
X301965Y62670D01*
X302046Y62726D01*
X302132Y62773D01*
X302188Y62825D01*
X302251Y62868D01*
X302317Y62941D01*
X302390Y63008D01*
X302433Y63071D01*
X302484Y63127D01*
X302532Y63213D01*
X302588Y63294D01*
X302616Y63365D01*
X302653Y63432D01*
X302680Y63527D01*
X302716Y63618D01*
X302727Y63694D01*
X302748Y63768D01*
X302760Y63917D01*
X302767Y63963D01*
X302765Y63982D01*
X302767Y64011D01*
X302767Y67644D01*
X302759Y67720D01*
X302760Y67797D01*
X302739Y67893D01*
X302727Y67990D01*
X302702Y68062D01*
X302685Y68137D01*
X302643Y68226D01*
X302610Y68319D01*
X302568Y68383D01*
X302536Y68452D01*
X302474Y68529D01*
X302421Y68611D01*
X302366Y68664D01*
X302318Y68724D01*
X302241Y68785D01*
X302170Y68854D01*
X302105Y68893D01*
X302045Y68940D01*
X301912Y69008D01*
X301875Y69030D01*
X299157Y71748D01*
X297687Y75296D01*
X297687Y92344D01*
X299157Y95892D01*
X301872Y98607D01*
X305420Y100077D01*
X309260Y100077D01*
X312808Y98607D01*
X315523Y95892D01*
X316993Y92344D01*
X316993Y75296D01*
X315523Y71748D01*
X312793Y69018D01*
X312786Y69014D01*
X312715Y68986D01*
X312635Y68930D01*
X312548Y68882D01*
X312492Y68831D01*
X312429Y68787D01*
X312363Y68714D01*
X312290Y68648D01*
X312247Y68585D01*
X312196Y68528D01*
X312148Y68442D01*
X312092Y68361D01*
X312064Y68290D01*
X312027Y68223D01*
X312000Y68129D01*
X311964Y68037D01*
X311953Y67962D01*
X311932Y67888D01*
X311920Y67739D01*
X311913Y67692D01*
X311915Y67673D01*
X311913Y67644D01*
X311913Y64011D01*
X311921Y63936D01*
X311920Y63859D01*
X311941Y63763D01*
X311953Y63665D01*
X311978Y63593D01*
X311995Y63519D01*
X312037Y63430D01*
X312070Y63337D01*
X312112Y63273D01*
X312144Y63204D01*
X312206Y63127D01*
X312259Y63044D01*
X312314Y62991D01*
X312362Y62931D01*
X312439Y62871D01*
X312510Y62802D01*
X312575Y62763D01*
X312635Y62716D01*
X312768Y62647D01*
X312809Y62623D01*
X312827Y62617D01*
X312853Y62604D01*
X313383Y62384D01*
X316384Y59383D01*
X318009Y55462D01*
X318009Y35978D01*
X316384Y32057D01*
X313383Y29056D01*
X309462Y27431D01*
X305218Y27431D01*
G37*
%LPD*%
%LPC*%
G36*
X330618Y27431D02*
X330618Y27431D01*
X326697Y29056D01*
X323696Y32057D01*
X322071Y35978D01*
X322071Y55462D01*
X323696Y59383D01*
X326697Y62384D01*
X327227Y62604D01*
X327294Y62641D01*
X327365Y62670D01*
X327446Y62726D01*
X327532Y62773D01*
X327588Y62825D01*
X327651Y62868D01*
X327717Y62941D01*
X327790Y63008D01*
X327833Y63071D01*
X327884Y63127D01*
X327932Y63213D01*
X327988Y63294D01*
X328016Y63365D01*
X328053Y63432D01*
X328080Y63527D01*
X328116Y63618D01*
X328127Y63694D01*
X328148Y63768D01*
X328160Y63917D01*
X328167Y63963D01*
X328165Y63982D01*
X328167Y64011D01*
X328167Y67644D01*
X328159Y67720D01*
X328160Y67797D01*
X328139Y67893D01*
X328127Y67990D01*
X328102Y68062D01*
X328085Y68137D01*
X328043Y68226D01*
X328010Y68319D01*
X327968Y68383D01*
X327936Y68452D01*
X327874Y68529D01*
X327821Y68611D01*
X327766Y68664D01*
X327718Y68724D01*
X327641Y68785D01*
X327570Y68854D01*
X327505Y68893D01*
X327445Y68940D01*
X327312Y69008D01*
X327275Y69030D01*
X324557Y71748D01*
X323087Y75296D01*
X323087Y92344D01*
X324557Y95892D01*
X327272Y98607D01*
X330820Y100077D01*
X334660Y100077D01*
X338208Y98607D01*
X340923Y95892D01*
X342393Y92344D01*
X342393Y75296D01*
X340923Y71748D01*
X338193Y69018D01*
X338186Y69014D01*
X338115Y68986D01*
X338035Y68930D01*
X337948Y68882D01*
X337892Y68831D01*
X337829Y68787D01*
X337763Y68714D01*
X337690Y68648D01*
X337647Y68585D01*
X337596Y68528D01*
X337548Y68442D01*
X337492Y68361D01*
X337464Y68290D01*
X337427Y68223D01*
X337400Y68129D01*
X337364Y68037D01*
X337353Y67962D01*
X337332Y67888D01*
X337320Y67739D01*
X337313Y67692D01*
X337315Y67673D01*
X337313Y67644D01*
X337313Y64011D01*
X337321Y63936D01*
X337320Y63859D01*
X337341Y63763D01*
X337353Y63665D01*
X337378Y63593D01*
X337395Y63519D01*
X337437Y63430D01*
X337470Y63337D01*
X337512Y63273D01*
X337544Y63204D01*
X337606Y63127D01*
X337659Y63044D01*
X337714Y62991D01*
X337762Y62931D01*
X337839Y62871D01*
X337910Y62802D01*
X337975Y62763D01*
X338035Y62716D01*
X338168Y62647D01*
X338209Y62623D01*
X338227Y62617D01*
X338253Y62604D01*
X338783Y62384D01*
X341784Y59383D01*
X343409Y55462D01*
X343409Y35978D01*
X341784Y32057D01*
X338783Y29056D01*
X334862Y27431D01*
X330618Y27431D01*
G37*
%LPD*%
%LPC*%
G36*
X229018Y27431D02*
X229018Y27431D01*
X225097Y29056D01*
X222096Y32057D01*
X220471Y35978D01*
X220471Y55462D01*
X222096Y59383D01*
X225097Y62384D01*
X225627Y62604D01*
X225694Y62641D01*
X225765Y62670D01*
X225846Y62726D01*
X225932Y62773D01*
X225988Y62825D01*
X226051Y62868D01*
X226117Y62941D01*
X226190Y63008D01*
X226233Y63071D01*
X226284Y63127D01*
X226332Y63213D01*
X226388Y63294D01*
X226416Y63365D01*
X226453Y63432D01*
X226480Y63527D01*
X226516Y63618D01*
X226527Y63694D01*
X226548Y63768D01*
X226560Y63917D01*
X226567Y63963D01*
X226565Y63982D01*
X226567Y64011D01*
X226567Y67644D01*
X226559Y67720D01*
X226560Y67797D01*
X226539Y67893D01*
X226527Y67990D01*
X226502Y68062D01*
X226485Y68137D01*
X226443Y68226D01*
X226410Y68319D01*
X226368Y68383D01*
X226336Y68452D01*
X226274Y68529D01*
X226221Y68611D01*
X226166Y68664D01*
X226118Y68724D01*
X226041Y68785D01*
X225970Y68854D01*
X225905Y68893D01*
X225845Y68940D01*
X225712Y69008D01*
X225675Y69030D01*
X222957Y71748D01*
X221487Y75296D01*
X221487Y92344D01*
X222957Y95892D01*
X225672Y98607D01*
X229220Y100077D01*
X233060Y100077D01*
X236608Y98607D01*
X239323Y95892D01*
X240793Y92344D01*
X240793Y75296D01*
X239323Y71748D01*
X236593Y69018D01*
X236586Y69014D01*
X236515Y68986D01*
X236435Y68930D01*
X236348Y68882D01*
X236292Y68831D01*
X236229Y68787D01*
X236163Y68714D01*
X236090Y68648D01*
X236047Y68585D01*
X235996Y68528D01*
X235948Y68442D01*
X235892Y68361D01*
X235864Y68290D01*
X235827Y68223D01*
X235800Y68129D01*
X235764Y68037D01*
X235753Y67962D01*
X235732Y67888D01*
X235720Y67739D01*
X235713Y67692D01*
X235715Y67673D01*
X235713Y67644D01*
X235713Y64011D01*
X235721Y63936D01*
X235720Y63859D01*
X235741Y63763D01*
X235753Y63665D01*
X235778Y63593D01*
X235795Y63519D01*
X235837Y63430D01*
X235870Y63337D01*
X235912Y63273D01*
X235944Y63204D01*
X236006Y63127D01*
X236059Y63044D01*
X236114Y62991D01*
X236162Y62931D01*
X236239Y62871D01*
X236310Y62802D01*
X236375Y62763D01*
X236435Y62716D01*
X236568Y62647D01*
X236609Y62623D01*
X236627Y62617D01*
X236653Y62604D01*
X237183Y62384D01*
X240184Y59383D01*
X241809Y55462D01*
X241809Y35978D01*
X240184Y32057D01*
X237183Y29056D01*
X233262Y27431D01*
X229018Y27431D01*
G37*
%LPD*%
%LPC*%
G36*
X366421Y225551D02*
X366421Y225551D01*
X360171Y231801D01*
X360171Y240639D01*
X366421Y246889D01*
X369331Y246889D01*
X369457Y246903D01*
X369583Y246910D01*
X369629Y246923D01*
X369677Y246929D01*
X369796Y246971D01*
X369918Y247006D01*
X369960Y247030D01*
X370005Y247046D01*
X370112Y247115D01*
X370222Y247176D01*
X370268Y247216D01*
X370298Y247235D01*
X370332Y247270D01*
X370408Y247335D01*
X378521Y255448D01*
X378600Y255547D01*
X378684Y255641D01*
X378708Y255683D01*
X378738Y255721D01*
X378792Y255835D01*
X378853Y255946D01*
X378866Y255992D01*
X378887Y256036D01*
X378913Y256159D01*
X378948Y256281D01*
X378953Y256342D01*
X378960Y256377D01*
X378959Y256425D01*
X378967Y256525D01*
X378967Y285390D01*
X379663Y287070D01*
X386547Y293954D01*
X386548Y293955D01*
X386550Y293957D01*
X386614Y294038D01*
X386657Y294082D01*
X386681Y294123D01*
X386763Y294227D01*
X386764Y294228D01*
X386766Y294230D01*
X386877Y294448D01*
X388145Y297509D01*
X390831Y300195D01*
X394341Y301649D01*
X398139Y301649D01*
X401649Y300195D01*
X404335Y297509D01*
X405789Y293999D01*
X405789Y290201D01*
X404335Y286691D01*
X401649Y284005D01*
X398139Y282551D01*
X394341Y282551D01*
X390853Y283996D01*
X390779Y284017D01*
X390709Y284047D01*
X390612Y284065D01*
X390518Y284092D01*
X390441Y284095D01*
X390366Y284109D01*
X390268Y284104D01*
X390169Y284109D01*
X390094Y284095D01*
X390018Y284091D01*
X389923Y284064D01*
X389827Y284046D01*
X389756Y284016D01*
X389683Y283994D01*
X389597Y283946D01*
X389507Y283907D01*
X389446Y283862D01*
X389379Y283824D01*
X389265Y283727D01*
X389227Y283699D01*
X389215Y283685D01*
X389193Y283666D01*
X388559Y283032D01*
X388480Y282933D01*
X388396Y282839D01*
X388372Y282797D01*
X388342Y282759D01*
X388288Y282645D01*
X388227Y282534D01*
X388214Y282488D01*
X388193Y282444D01*
X388167Y282321D01*
X388132Y282199D01*
X388127Y282138D01*
X388120Y282103D01*
X388121Y282055D01*
X388113Y281955D01*
X388113Y253090D01*
X387417Y251410D01*
X380154Y244148D01*
X380138Y244127D01*
X380118Y244110D01*
X380030Y243990D01*
X379938Y243875D01*
X379927Y243851D01*
X379911Y243830D01*
X379852Y243694D01*
X379789Y243560D01*
X379783Y243534D01*
X379773Y243510D01*
X379747Y243364D01*
X379716Y243219D01*
X379716Y243193D01*
X379711Y243167D01*
X379719Y243018D01*
X379721Y242870D01*
X379728Y242845D01*
X379729Y242819D01*
X379770Y242676D01*
X379806Y242532D01*
X379818Y242509D01*
X379826Y242484D01*
X379898Y242354D01*
X379966Y242223D01*
X379983Y242203D01*
X379996Y242180D01*
X380154Y241993D01*
X381509Y240639D01*
X381509Y231801D01*
X375259Y225551D01*
X366421Y225551D01*
G37*
%LPD*%
%LPC*%
G36*
X366421Y428751D02*
X366421Y428751D01*
X360171Y435001D01*
X360171Y442991D01*
X360157Y443117D01*
X360150Y443243D01*
X360137Y443289D01*
X360131Y443337D01*
X360089Y443456D01*
X360054Y443578D01*
X360030Y443620D01*
X360014Y443665D01*
X359945Y443772D01*
X359884Y443882D01*
X359844Y443928D01*
X359825Y443958D01*
X359790Y443992D01*
X359725Y444068D01*
X354152Y449641D01*
X354053Y449720D01*
X353959Y449804D01*
X353917Y449828D01*
X353879Y449858D01*
X353765Y449912D01*
X353654Y449973D01*
X353608Y449986D01*
X353564Y450007D01*
X353441Y450033D01*
X353319Y450068D01*
X353258Y450073D01*
X353223Y450080D01*
X353175Y450079D01*
X353075Y450087D01*
X340345Y450087D01*
X340220Y450073D01*
X340093Y450066D01*
X340047Y450053D01*
X339999Y450047D01*
X339880Y450005D01*
X339758Y449970D01*
X339716Y449946D01*
X339671Y449930D01*
X339564Y449861D01*
X339454Y449800D01*
X339408Y449760D01*
X339378Y449741D01*
X339344Y449706D01*
X339268Y449641D01*
X338723Y449096D01*
X338706Y449075D01*
X338686Y449058D01*
X338598Y448939D01*
X338506Y448823D01*
X338495Y448799D01*
X338479Y448778D01*
X338420Y448642D01*
X338357Y448508D01*
X338351Y448482D01*
X338341Y448458D01*
X338315Y448312D01*
X338284Y448167D01*
X338284Y448141D01*
X338279Y448115D01*
X338287Y447967D01*
X338290Y447818D01*
X338296Y447793D01*
X338297Y447767D01*
X338338Y447624D01*
X338375Y447480D01*
X338387Y447457D01*
X338394Y447432D01*
X338466Y447302D01*
X338534Y447171D01*
X338551Y447151D01*
X338564Y447128D01*
X338722Y446941D01*
X340835Y444829D01*
X342289Y441319D01*
X342289Y437521D01*
X340835Y434011D01*
X338149Y431325D01*
X334639Y429871D01*
X330841Y429871D01*
X327331Y431325D01*
X324645Y434011D01*
X323191Y437521D01*
X323191Y441319D01*
X324645Y444829D01*
X327346Y447530D01*
X327365Y447537D01*
X327445Y447593D01*
X327531Y447641D01*
X327588Y447693D01*
X327651Y447736D01*
X327717Y447809D01*
X327790Y447875D01*
X327833Y447938D01*
X327884Y447995D01*
X327932Y448081D01*
X327988Y448162D01*
X328016Y448233D01*
X328053Y448300D01*
X328080Y448395D01*
X328116Y448486D01*
X328127Y448562D01*
X328148Y448635D01*
X328160Y448784D01*
X328167Y448831D01*
X328165Y448850D01*
X328167Y448879D01*
X328167Y450490D01*
X328863Y452170D01*
X335230Y458537D01*
X336910Y459233D01*
X356510Y459233D01*
X358190Y458537D01*
X366192Y450535D01*
X366291Y450456D01*
X366385Y450372D01*
X366427Y450348D01*
X366465Y450318D01*
X366579Y450264D01*
X366690Y450203D01*
X366736Y450190D01*
X366780Y450169D01*
X366903Y450143D01*
X367025Y450108D01*
X367086Y450103D01*
X367121Y450096D01*
X367169Y450097D01*
X367269Y450089D01*
X375259Y450089D01*
X381509Y443839D01*
X381509Y435001D01*
X375259Y428751D01*
X366421Y428751D01*
G37*
%LPD*%
%LPC*%
G36*
X150521Y301751D02*
X150521Y301751D01*
X144271Y308001D01*
X144271Y316839D01*
X150521Y323089D01*
X158511Y323089D01*
X158637Y323103D01*
X158763Y323110D01*
X158809Y323123D01*
X158857Y323129D01*
X158976Y323171D01*
X159098Y323206D01*
X159140Y323230D01*
X159185Y323246D01*
X159291Y323315D01*
X159402Y323376D01*
X159448Y323416D01*
X159478Y323435D01*
X159512Y323470D01*
X159588Y323535D01*
X159970Y323917D01*
X161650Y324613D01*
X186330Y324613D01*
X188010Y323917D01*
X189511Y322416D01*
X189585Y322342D01*
X189645Y322295D01*
X189698Y322240D01*
X189781Y322187D01*
X189857Y322126D01*
X189927Y322093D01*
X189991Y322051D01*
X190084Y322019D01*
X190173Y321977D01*
X190248Y321960D01*
X190320Y321935D01*
X190417Y321924D01*
X190513Y321903D01*
X190590Y321904D01*
X190666Y321896D01*
X190764Y321907D01*
X190862Y321909D01*
X190936Y321928D01*
X191012Y321937D01*
X191111Y321969D01*
X194939Y321969D01*
X198449Y320515D01*
X201135Y317829D01*
X202589Y314319D01*
X202589Y310521D01*
X201135Y307011D01*
X198449Y304325D01*
X194939Y302871D01*
X191141Y302871D01*
X187631Y304325D01*
X184945Y307011D01*
X183491Y310521D01*
X183491Y313944D01*
X183488Y313970D01*
X183490Y313996D01*
X183468Y314143D01*
X183451Y314290D01*
X183443Y314315D01*
X183439Y314341D01*
X183384Y314479D01*
X183334Y314618D01*
X183320Y314640D01*
X183310Y314665D01*
X183225Y314786D01*
X183145Y314911D01*
X183126Y314929D01*
X183111Y314951D01*
X183001Y315050D01*
X182894Y315153D01*
X182872Y315167D01*
X182852Y315184D01*
X182722Y315256D01*
X182595Y315332D01*
X182570Y315340D01*
X182547Y315353D01*
X182404Y315393D01*
X182263Y315438D01*
X182237Y315440D01*
X182212Y315448D01*
X181968Y315467D01*
X167132Y315467D01*
X167106Y315464D01*
X167080Y315466D01*
X166933Y315444D01*
X166786Y315427D01*
X166761Y315419D01*
X166735Y315415D01*
X166597Y315360D01*
X166458Y315310D01*
X166436Y315296D01*
X166411Y315286D01*
X166290Y315201D01*
X166165Y315121D01*
X166147Y315102D01*
X166125Y315087D01*
X166026Y314977D01*
X165923Y314870D01*
X165909Y314848D01*
X165892Y314828D01*
X165820Y314698D01*
X165744Y314571D01*
X165736Y314546D01*
X165723Y314523D01*
X165683Y314380D01*
X165638Y314239D01*
X165636Y314213D01*
X165628Y314188D01*
X165609Y313944D01*
X165609Y308001D01*
X159359Y301751D01*
X150521Y301751D01*
G37*
%LPD*%
%LPC*%
G36*
X214021Y428751D02*
X214021Y428751D01*
X208371Y434401D01*
X208272Y434480D01*
X208178Y434564D01*
X208136Y434588D01*
X208098Y434618D01*
X207984Y434672D01*
X207873Y434733D01*
X207827Y434746D01*
X207783Y434767D01*
X207660Y434793D01*
X207538Y434828D01*
X207477Y434833D01*
X207442Y434840D01*
X207394Y434839D01*
X207294Y434847D01*
X189799Y434847D01*
X189723Y434839D01*
X189647Y434840D01*
X189551Y434819D01*
X189453Y434807D01*
X189381Y434782D01*
X189306Y434765D01*
X189218Y434723D01*
X189125Y434690D01*
X189061Y434648D01*
X188992Y434616D01*
X188915Y434554D01*
X188832Y434501D01*
X188779Y434446D01*
X188719Y434398D01*
X188658Y434321D01*
X188590Y434250D01*
X188551Y434185D01*
X188503Y434125D01*
X188456Y434032D01*
X185749Y431325D01*
X182239Y429871D01*
X178441Y429871D01*
X174931Y431325D01*
X172245Y434011D01*
X170791Y437521D01*
X170791Y441319D01*
X172245Y444829D01*
X174931Y447515D01*
X178441Y448969D01*
X182239Y448969D01*
X185749Y447515D01*
X188450Y444814D01*
X188457Y444795D01*
X188513Y444715D01*
X188561Y444629D01*
X188613Y444572D01*
X188656Y444509D01*
X188729Y444443D01*
X188795Y444370D01*
X188858Y444327D01*
X188915Y444276D01*
X189001Y444228D01*
X189082Y444172D01*
X189153Y444144D01*
X189220Y444107D01*
X189315Y444080D01*
X189406Y444044D01*
X189482Y444033D01*
X189555Y444012D01*
X189704Y444000D01*
X189751Y443993D01*
X189770Y443995D01*
X189799Y443993D01*
X207294Y443993D01*
X207420Y444007D01*
X207546Y444014D01*
X207592Y444027D01*
X207640Y444033D01*
X207759Y444075D01*
X207881Y444110D01*
X207923Y444134D01*
X207968Y444150D01*
X208074Y444219D01*
X208185Y444280D01*
X208231Y444320D01*
X208261Y444339D01*
X208295Y444374D01*
X208371Y444439D01*
X214021Y450089D01*
X222859Y450089D01*
X229109Y443839D01*
X229109Y435001D01*
X222859Y428751D01*
X214021Y428751D01*
G37*
%LPD*%
%LPC*%
G36*
X150521Y327151D02*
X150521Y327151D01*
X144271Y333401D01*
X144271Y342239D01*
X150521Y348489D01*
X159359Y348489D01*
X165009Y342839D01*
X165108Y342760D01*
X165202Y342676D01*
X165244Y342652D01*
X165282Y342622D01*
X165396Y342568D01*
X165507Y342507D01*
X165553Y342494D01*
X165597Y342473D01*
X165720Y342447D01*
X165842Y342412D01*
X165903Y342407D01*
X165938Y342400D01*
X165986Y342401D01*
X166086Y342393D01*
X177449Y342393D01*
X177525Y342401D01*
X177601Y342400D01*
X177697Y342421D01*
X177795Y342433D01*
X177867Y342458D01*
X177942Y342475D01*
X178030Y342517D01*
X178123Y342550D01*
X178187Y342592D01*
X178256Y342624D01*
X178333Y342686D01*
X178416Y342739D01*
X178469Y342794D01*
X178529Y342842D01*
X178590Y342919D01*
X178658Y342990D01*
X178697Y343055D01*
X178745Y343115D01*
X178813Y343248D01*
X178837Y343289D01*
X178843Y343307D01*
X178856Y343333D01*
X179865Y345769D01*
X182551Y348455D01*
X186061Y349909D01*
X189859Y349909D01*
X193369Y348455D01*
X196055Y345769D01*
X197509Y342259D01*
X197509Y338461D01*
X196055Y334951D01*
X193369Y332265D01*
X189859Y330811D01*
X186061Y330811D01*
X182551Y332265D01*
X182015Y332801D01*
X181916Y332880D01*
X181822Y332964D01*
X181780Y332988D01*
X181742Y333018D01*
X181628Y333072D01*
X181517Y333133D01*
X181470Y333146D01*
X181427Y333167D01*
X181303Y333193D01*
X181182Y333228D01*
X181121Y333233D01*
X181086Y333240D01*
X181038Y333239D01*
X180938Y333247D01*
X166086Y333247D01*
X165960Y333233D01*
X165834Y333226D01*
X165788Y333213D01*
X165740Y333207D01*
X165621Y333165D01*
X165499Y333130D01*
X165457Y333106D01*
X165412Y333090D01*
X165306Y333021D01*
X165195Y332960D01*
X165149Y332920D01*
X165119Y332901D01*
X165085Y332866D01*
X165009Y332801D01*
X159359Y327151D01*
X150521Y327151D01*
G37*
%LPD*%
%LPC*%
G36*
X126371Y245721D02*
X126371Y245721D01*
X122861Y247175D01*
X120175Y249861D01*
X118721Y253371D01*
X118721Y257169D01*
X120175Y260679D01*
X122861Y263365D01*
X124027Y263848D01*
X124094Y263885D01*
X124165Y263913D01*
X124245Y263969D01*
X124332Y264017D01*
X124388Y264069D01*
X124451Y264112D01*
X124517Y264185D01*
X124590Y264251D01*
X124633Y264314D01*
X124684Y264371D01*
X124732Y264457D01*
X124788Y264538D01*
X124816Y264609D01*
X124853Y264676D01*
X124880Y264771D01*
X124916Y264862D01*
X124927Y264938D01*
X124948Y265011D01*
X124960Y265160D01*
X124967Y265207D01*
X124965Y265226D01*
X124967Y265255D01*
X124967Y277770D01*
X125248Y278448D01*
X125283Y278570D01*
X125325Y278688D01*
X125331Y278736D01*
X125344Y278783D01*
X125350Y278909D01*
X125364Y279035D01*
X125358Y279083D01*
X125361Y279131D01*
X125338Y279255D01*
X125323Y279381D01*
X125305Y279439D01*
X125298Y279474D01*
X125279Y279518D01*
X125248Y279614D01*
X125071Y280041D01*
X125071Y283839D01*
X126525Y287349D01*
X129211Y290035D01*
X132721Y291489D01*
X136519Y291489D01*
X140029Y290035D01*
X142715Y287349D01*
X144169Y283839D01*
X144169Y280041D01*
X142715Y276531D01*
X140029Y273845D01*
X136519Y272391D01*
X135636Y272391D01*
X135610Y272388D01*
X135584Y272390D01*
X135437Y272368D01*
X135290Y272351D01*
X135265Y272343D01*
X135239Y272339D01*
X135101Y272284D01*
X134962Y272234D01*
X134940Y272220D01*
X134915Y272210D01*
X134794Y272125D01*
X134669Y272045D01*
X134651Y272026D01*
X134629Y272011D01*
X134530Y271901D01*
X134427Y271794D01*
X134413Y271772D01*
X134396Y271752D01*
X134324Y271622D01*
X134248Y271495D01*
X134240Y271470D01*
X134227Y271447D01*
X134187Y271304D01*
X134142Y271163D01*
X134140Y271137D01*
X134132Y271112D01*
X134113Y270868D01*
X134113Y263562D01*
X134127Y263437D01*
X134134Y263310D01*
X134147Y263264D01*
X134153Y263216D01*
X134195Y263097D01*
X134230Y262976D01*
X134254Y262933D01*
X134270Y262888D01*
X134339Y262782D01*
X134400Y262671D01*
X134440Y262625D01*
X134459Y262595D01*
X134494Y262562D01*
X134559Y262485D01*
X136365Y260679D01*
X137819Y257169D01*
X137819Y256734D01*
X137819Y256732D01*
X137819Y256730D01*
X137839Y256555D01*
X137859Y256387D01*
X137859Y256385D01*
X137860Y256383D01*
X137923Y256188D01*
X137923Y254349D01*
X137885Y254214D01*
X137839Y254054D01*
X137839Y254052D01*
X137838Y254050D01*
X137819Y253806D01*
X137819Y253371D01*
X136365Y249861D01*
X133679Y247175D01*
X130169Y245721D01*
X126371Y245721D01*
G37*
%LPD*%
%LPC*%
G36*
X63372Y311709D02*
X63372Y311709D01*
X58443Y313751D01*
X54671Y317523D01*
X52629Y322452D01*
X52629Y327788D01*
X54671Y332717D01*
X58443Y336489D01*
X63372Y338531D01*
X68708Y338531D01*
X73637Y336489D01*
X77409Y332717D01*
X79451Y327788D01*
X79451Y322452D01*
X77409Y317523D01*
X73637Y313751D01*
X68708Y311709D01*
X63372Y311709D01*
G37*
%LPD*%
%LPC*%
G36*
X153020Y67563D02*
X153020Y67563D01*
X149472Y69033D01*
X146757Y71748D01*
X145287Y75296D01*
X145287Y92344D01*
X146757Y95892D01*
X149472Y98607D01*
X153020Y100077D01*
X156860Y100077D01*
X160408Y98607D01*
X163123Y95892D01*
X164593Y92344D01*
X164593Y75296D01*
X163123Y71748D01*
X160408Y69033D01*
X156860Y67563D01*
X153020Y67563D01*
G37*
%LPD*%
%LPC*%
G36*
X153020Y143763D02*
X153020Y143763D01*
X149472Y145233D01*
X146757Y147948D01*
X145287Y151496D01*
X145287Y168544D01*
X146757Y172092D01*
X149472Y174807D01*
X153020Y176277D01*
X156860Y176277D01*
X160408Y174807D01*
X163123Y172092D01*
X164593Y168544D01*
X164593Y151496D01*
X163123Y147948D01*
X160408Y145233D01*
X156860Y143763D01*
X153020Y143763D01*
G37*
%LPD*%
%LPC*%
G36*
X178420Y143763D02*
X178420Y143763D01*
X174872Y145233D01*
X172157Y147948D01*
X170687Y151496D01*
X170687Y168544D01*
X172157Y172092D01*
X174872Y174807D01*
X178420Y176277D01*
X182260Y176277D01*
X185808Y174807D01*
X188523Y172092D01*
X189993Y168544D01*
X189993Y151496D01*
X188523Y147948D01*
X185808Y145233D01*
X182260Y143763D01*
X178420Y143763D01*
G37*
%LPD*%
%LPC*%
G36*
X254620Y143763D02*
X254620Y143763D01*
X251072Y145233D01*
X248357Y147948D01*
X246887Y151496D01*
X246887Y168544D01*
X248357Y172092D01*
X251072Y174807D01*
X254620Y176277D01*
X258460Y176277D01*
X262008Y174807D01*
X264723Y172092D01*
X266193Y168544D01*
X266193Y151496D01*
X264723Y147948D01*
X262008Y145233D01*
X258460Y143763D01*
X254620Y143763D01*
G37*
%LPD*%
%LPC*%
G36*
X305420Y143763D02*
X305420Y143763D01*
X301872Y145233D01*
X299157Y147948D01*
X297687Y151496D01*
X297687Y168544D01*
X299157Y172092D01*
X301872Y174807D01*
X305420Y176277D01*
X309260Y176277D01*
X312808Y174807D01*
X315523Y172092D01*
X316993Y168544D01*
X316993Y151496D01*
X315523Y147948D01*
X312808Y145233D01*
X309260Y143763D01*
X305420Y143763D01*
G37*
%LPD*%
%LPC*%
G36*
X280020Y143763D02*
X280020Y143763D01*
X276472Y145233D01*
X273757Y147948D01*
X272287Y151496D01*
X272287Y168544D01*
X273757Y172092D01*
X276472Y174807D01*
X280020Y176277D01*
X283860Y176277D01*
X287408Y174807D01*
X290123Y172092D01*
X291593Y168544D01*
X291593Y151496D01*
X290123Y147948D01*
X287408Y145233D01*
X283860Y143763D01*
X280020Y143763D01*
G37*
%LPD*%
%LPC*%
G36*
X229220Y143763D02*
X229220Y143763D01*
X225672Y145233D01*
X222957Y147948D01*
X221487Y151496D01*
X221487Y168544D01*
X222957Y172092D01*
X225672Y174807D01*
X229220Y176277D01*
X233060Y176277D01*
X236608Y174807D01*
X239323Y172092D01*
X240793Y168544D01*
X240793Y151496D01*
X239323Y147948D01*
X236608Y145233D01*
X233060Y143763D01*
X229220Y143763D01*
G37*
%LPD*%
%LPC*%
G36*
X203820Y143763D02*
X203820Y143763D01*
X200272Y145233D01*
X197557Y147948D01*
X196087Y151496D01*
X196087Y168544D01*
X197557Y172092D01*
X200272Y174807D01*
X203820Y176277D01*
X207660Y176277D01*
X211208Y174807D01*
X213923Y172092D01*
X215393Y168544D01*
X215393Y151496D01*
X213923Y147948D01*
X211208Y145233D01*
X207660Y143763D01*
X203820Y143763D01*
G37*
%LPD*%
%LPC*%
G36*
X393871Y313209D02*
X393871Y313209D01*
X389493Y315023D01*
X386143Y318373D01*
X384329Y322751D01*
X384329Y327489D01*
X386143Y331867D01*
X389493Y335217D01*
X393871Y337031D01*
X398609Y337031D01*
X402987Y335217D01*
X406337Y331867D01*
X408151Y327489D01*
X408151Y322751D01*
X406337Y318373D01*
X402987Y315023D01*
X398609Y313209D01*
X393871Y313209D01*
G37*
%LPD*%
%LPC*%
G36*
X391821Y200151D02*
X391821Y200151D01*
X385571Y206401D01*
X385571Y215239D01*
X391821Y221489D01*
X400659Y221489D01*
X406909Y215239D01*
X406909Y206401D01*
X400659Y200151D01*
X391821Y200151D01*
G37*
%LPD*%
%LPC*%
G36*
X386079Y48259D02*
X386079Y48259D01*
X386079Y63199D01*
X387440Y62756D01*
X388865Y62030D01*
X390159Y61090D01*
X391290Y59959D01*
X392230Y58665D01*
X392956Y57240D01*
X393451Y55719D01*
X393701Y54140D01*
X393701Y48259D01*
X386079Y48259D01*
G37*
%LPD*%
%LPC*%
G36*
X386079Y43181D02*
X386079Y43181D01*
X393701Y43181D01*
X393701Y37300D01*
X393451Y35721D01*
X392956Y34200D01*
X392230Y32775D01*
X391290Y31481D01*
X390159Y30350D01*
X388865Y29410D01*
X387440Y28684D01*
X386079Y28241D01*
X386079Y43181D01*
G37*
%LPD*%
%LPC*%
G36*
X373379Y48259D02*
X373379Y48259D01*
X373379Y54140D01*
X373629Y55719D01*
X374124Y57240D01*
X374850Y58665D01*
X375790Y59959D01*
X376921Y61090D01*
X378215Y62030D01*
X379640Y62756D01*
X381001Y63199D01*
X381001Y48259D01*
X373379Y48259D01*
G37*
%LPD*%
%LPC*%
G36*
X379640Y28684D02*
X379640Y28684D01*
X378215Y29410D01*
X376921Y30350D01*
X375790Y31481D01*
X374850Y32775D01*
X374124Y34200D01*
X373629Y35721D01*
X373379Y37300D01*
X373379Y43181D01*
X381001Y43181D01*
X381001Y28241D01*
X379640Y28684D01*
G37*
%LPD*%
%LPC*%
G36*
X131571Y162051D02*
X131571Y162051D01*
X131571Y175561D01*
X131682Y175544D01*
X133050Y175099D01*
X134333Y174445D01*
X135497Y173599D01*
X136515Y172581D01*
X137361Y171417D01*
X138015Y170134D01*
X138460Y168766D01*
X138685Y167344D01*
X138685Y162051D01*
X131571Y162051D01*
G37*
%LPD*%
%LPC*%
G36*
X131571Y157989D02*
X131571Y157989D01*
X138685Y157989D01*
X138685Y152696D01*
X138460Y151274D01*
X138015Y149906D01*
X137361Y148623D01*
X136515Y147459D01*
X135497Y146441D01*
X134333Y145595D01*
X133050Y144941D01*
X131682Y144496D01*
X131571Y144479D01*
X131571Y157989D01*
G37*
%LPD*%
%LPC*%
G36*
X120395Y162051D02*
X120395Y162051D01*
X120395Y167344D01*
X120620Y168766D01*
X121065Y170134D01*
X121719Y171417D01*
X122565Y172581D01*
X123583Y173599D01*
X124747Y174445D01*
X126030Y175099D01*
X127398Y175544D01*
X127509Y175561D01*
X127509Y162051D01*
X120395Y162051D01*
G37*
%LPD*%
%LPC*%
G36*
X127398Y144496D02*
X127398Y144496D01*
X126030Y144941D01*
X124747Y145595D01*
X123583Y146441D01*
X122565Y147459D01*
X121719Y148623D01*
X121065Y149906D01*
X120620Y151274D01*
X120395Y152696D01*
X120395Y157989D01*
X127509Y157989D01*
X127509Y144479D01*
X127398Y144496D01*
G37*
%LPD*%
%LPC*%
G36*
X132079Y314959D02*
X132079Y314959D01*
X132079Y322279D01*
X133440Y321836D01*
X134865Y321110D01*
X136159Y320170D01*
X137290Y319039D01*
X138230Y317745D01*
X138956Y316320D01*
X139399Y314959D01*
X132079Y314959D01*
G37*
%LPD*%
%LPC*%
G36*
X373379Y416559D02*
X373379Y416559D01*
X373379Y423879D01*
X374740Y423436D01*
X376165Y422710D01*
X377459Y421770D01*
X378590Y420639D01*
X379530Y419345D01*
X380256Y417920D01*
X380699Y416559D01*
X373379Y416559D01*
G37*
%LPD*%
%LPC*%
G36*
X220979Y416559D02*
X220979Y416559D01*
X220979Y423879D01*
X222340Y423436D01*
X223765Y422710D01*
X225059Y421770D01*
X226190Y420639D01*
X227130Y419345D01*
X227856Y417920D01*
X228299Y416559D01*
X220979Y416559D01*
G37*
%LPD*%
%LPC*%
G36*
X373379Y213359D02*
X373379Y213359D01*
X373379Y220679D01*
X374740Y220236D01*
X376165Y219510D01*
X377459Y218570D01*
X378590Y217439D01*
X379530Y216145D01*
X380256Y214720D01*
X380699Y213359D01*
X373379Y213359D01*
G37*
%LPD*%
%LPC*%
G36*
X68579Y208281D02*
X68579Y208281D01*
X75899Y208281D01*
X75456Y206920D01*
X74730Y205495D01*
X73790Y204201D01*
X72659Y203070D01*
X71365Y202130D01*
X69940Y201404D01*
X68579Y200961D01*
X68579Y208281D01*
G37*
%LPD*%
%LPC*%
G36*
X373379Y208281D02*
X373379Y208281D01*
X380699Y208281D01*
X380256Y206920D01*
X379530Y205495D01*
X378590Y204201D01*
X377459Y203070D01*
X376165Y202130D01*
X374740Y201404D01*
X373379Y200961D01*
X373379Y208281D01*
G37*
%LPD*%
%LPC*%
G36*
X360981Y213359D02*
X360981Y213359D01*
X361424Y214720D01*
X362150Y216145D01*
X363090Y217439D01*
X364221Y218570D01*
X365515Y219510D01*
X366940Y220236D01*
X368301Y220679D01*
X368301Y213359D01*
X360981Y213359D01*
G37*
%LPD*%
%LPC*%
G36*
X132079Y309881D02*
X132079Y309881D01*
X139399Y309881D01*
X138956Y308520D01*
X138230Y307095D01*
X137290Y305801D01*
X136159Y304670D01*
X134865Y303730D01*
X133440Y303004D01*
X132079Y302561D01*
X132079Y309881D01*
G37*
%LPD*%
%LPC*%
G36*
X119681Y314959D02*
X119681Y314959D01*
X120124Y316320D01*
X120850Y317745D01*
X121790Y319039D01*
X122921Y320170D01*
X124215Y321110D01*
X125640Y321836D01*
X127001Y322279D01*
X127001Y314959D01*
X119681Y314959D01*
G37*
%LPD*%
%LPC*%
G36*
X220979Y411481D02*
X220979Y411481D01*
X228299Y411481D01*
X227856Y410120D01*
X227130Y408695D01*
X226190Y407401D01*
X225059Y406270D01*
X223765Y405330D01*
X222340Y404604D01*
X220979Y404161D01*
X220979Y411481D01*
G37*
%LPD*%
%LPC*%
G36*
X373379Y411481D02*
X373379Y411481D01*
X380699Y411481D01*
X380256Y410120D01*
X379530Y408695D01*
X378590Y407401D01*
X377459Y406270D01*
X376165Y405330D01*
X374740Y404604D01*
X373379Y404161D01*
X373379Y411481D01*
G37*
%LPD*%
%LPC*%
G36*
X68579Y411481D02*
X68579Y411481D01*
X75899Y411481D01*
X75456Y410120D01*
X74730Y408695D01*
X73790Y407401D01*
X72659Y406270D01*
X71365Y405330D01*
X69940Y404604D01*
X68579Y404161D01*
X68579Y411481D01*
G37*
%LPD*%
%LPC*%
G36*
X309879Y309881D02*
X309879Y309881D01*
X317199Y309881D01*
X316756Y308520D01*
X316030Y307095D01*
X315090Y305801D01*
X313959Y304670D01*
X312665Y303730D01*
X311240Y303004D01*
X309879Y302561D01*
X309879Y309881D01*
G37*
%LPD*%
%LPC*%
G36*
X360981Y416559D02*
X360981Y416559D01*
X361424Y417920D01*
X362150Y419345D01*
X363090Y420639D01*
X364221Y421770D01*
X365515Y422710D01*
X366940Y423436D01*
X368301Y423879D01*
X368301Y416559D01*
X360981Y416559D01*
G37*
%LPD*%
%LPC*%
G36*
X208581Y416559D02*
X208581Y416559D01*
X209024Y417920D01*
X209750Y419345D01*
X210690Y420639D01*
X211821Y421770D01*
X213115Y422710D01*
X214540Y423436D01*
X215901Y423879D01*
X215901Y416559D01*
X208581Y416559D01*
G37*
%LPD*%
%LPC*%
G36*
X56181Y213359D02*
X56181Y213359D01*
X56624Y214720D01*
X57350Y216145D01*
X58290Y217439D01*
X59421Y218570D01*
X60715Y219510D01*
X62140Y220236D01*
X63501Y220679D01*
X63501Y213359D01*
X56181Y213359D01*
G37*
%LPD*%
%LPC*%
G36*
X366940Y201404D02*
X366940Y201404D01*
X365515Y202130D01*
X364221Y203070D01*
X363090Y204201D01*
X362150Y205495D01*
X361424Y206920D01*
X360981Y208281D01*
X368301Y208281D01*
X368301Y200961D01*
X366940Y201404D01*
G37*
%LPD*%
%LPC*%
G36*
X62140Y201404D02*
X62140Y201404D01*
X60715Y202130D01*
X59421Y203070D01*
X58290Y204201D01*
X57350Y205495D01*
X56624Y206920D01*
X56181Y208281D01*
X63501Y208281D01*
X63501Y200961D01*
X62140Y201404D01*
G37*
%LPD*%
%LPC*%
G36*
X125640Y303004D02*
X125640Y303004D01*
X124215Y303730D01*
X122921Y304670D01*
X121790Y305801D01*
X120850Y307095D01*
X120124Y308520D01*
X119681Y309881D01*
X127001Y309881D01*
X127001Y302561D01*
X125640Y303004D01*
G37*
%LPD*%
%LPC*%
G36*
X303440Y303004D02*
X303440Y303004D01*
X302015Y303730D01*
X300721Y304670D01*
X299590Y305801D01*
X298650Y307095D01*
X297924Y308520D01*
X297481Y309881D01*
X304801Y309881D01*
X304801Y302561D01*
X303440Y303004D01*
G37*
%LPD*%
%LPC*%
G36*
X214540Y404604D02*
X214540Y404604D01*
X213115Y405330D01*
X211821Y406270D01*
X210690Y407401D01*
X209750Y408695D01*
X209024Y410120D01*
X208581Y411481D01*
X215901Y411481D01*
X215901Y404161D01*
X214540Y404604D01*
G37*
%LPD*%
%LPC*%
G36*
X366940Y404604D02*
X366940Y404604D01*
X365515Y405330D01*
X364221Y406270D01*
X363090Y407401D01*
X362150Y408695D01*
X361424Y410120D01*
X360981Y411481D01*
X368301Y411481D01*
X368301Y404161D01*
X366940Y404604D01*
G37*
%LPD*%
%LPC*%
G36*
X62140Y404604D02*
X62140Y404604D01*
X60715Y405330D01*
X59421Y406270D01*
X58290Y407401D01*
X57350Y408695D01*
X56624Y410120D01*
X56181Y411481D01*
X63501Y411481D01*
X63501Y404161D01*
X62140Y404604D01*
G37*
%LPD*%
D10*
X383540Y53340D02*
X383540Y38100D01*
X358140Y38100D02*
X358140Y53340D01*
X332740Y53340D02*
X332740Y38100D01*
X307340Y38100D02*
X307340Y53340D01*
X281940Y53340D02*
X281940Y38100D01*
X256540Y38100D02*
X256540Y53340D01*
X231140Y53340D02*
X231140Y38100D01*
X205740Y38100D02*
X205740Y53340D01*
X180340Y53340D02*
X180340Y38100D01*
D11*
X129540Y312420D03*
D12*
X154940Y312420D03*
X129540Y337820D03*
X154940Y337820D03*
D11*
X307340Y312420D03*
D12*
X332740Y312420D03*
X307340Y337820D03*
X332740Y337820D03*
D11*
X218440Y414020D03*
D12*
X243840Y414020D03*
X218440Y439420D03*
X243840Y439420D03*
D11*
X66040Y210820D03*
D12*
X91440Y210820D03*
X66040Y236220D03*
X91440Y236220D03*
D11*
X370840Y210820D03*
D12*
X396240Y210820D03*
X370840Y236220D03*
X396240Y236220D03*
D11*
X66040Y414020D03*
D12*
X91440Y414020D03*
X66040Y439420D03*
X91440Y439420D03*
D11*
X370840Y414020D03*
D12*
X396240Y414020D03*
X370840Y439420D03*
X396240Y439420D03*
D13*
X332740Y166624D02*
X332740Y153416D01*
X307340Y153416D02*
X307340Y166624D01*
X180340Y166624D02*
X180340Y153416D01*
X154940Y153416D02*
X154940Y166624D01*
X281940Y166624D02*
X281940Y153416D01*
X256540Y153416D02*
X256540Y166624D01*
X205740Y166624D02*
X205740Y153416D01*
X231140Y153416D02*
X231140Y166624D01*
X129540Y166624D02*
X129540Y153416D01*
X129540Y90424D02*
X129540Y77216D01*
X154940Y77216D02*
X154940Y90424D01*
X180340Y90424D02*
X180340Y77216D01*
X205740Y77216D02*
X205740Y90424D01*
X231140Y90424D02*
X231140Y77216D01*
X256540Y77216D02*
X256540Y90424D01*
X281940Y90424D02*
X281940Y77216D01*
X307340Y77216D02*
X307340Y90424D01*
X332740Y90424D02*
X332740Y77216D01*
D14*
X370840Y236220D02*
X370840Y241300D01*
X383540Y254000D02*
X383540Y284480D01*
X391160Y292100D01*
D15*
X396240Y292100D03*
D14*
X383540Y254000D02*
X370840Y241300D01*
X391160Y292100D02*
X396240Y292100D01*
D15*
X121920Y457200D03*
D14*
X73660Y457200D01*
X66040Y449580D01*
X66040Y439420D01*
X40640Y261620D02*
X66040Y236220D01*
X40640Y274320D02*
X45720Y279400D01*
D15*
X45720Y279400D03*
D14*
X40640Y274320D02*
X40640Y261620D01*
D15*
X274320Y447040D03*
D14*
X243840Y416560D02*
X243840Y414020D01*
X243840Y416560D02*
X274320Y447040D01*
D15*
X193040Y312420D03*
D14*
X185420Y320040D01*
X162560Y320040D01*
X154940Y312420D01*
D15*
X236220Y388620D03*
D14*
X243840Y396240D02*
X243840Y414020D01*
X243840Y396240D02*
X236220Y388620D01*
X152400Y414020D02*
X91440Y414020D01*
D15*
X152400Y414020D03*
D14*
X396240Y414020D02*
X396240Y396240D01*
D15*
X383540Y383540D03*
D14*
X396240Y396240D01*
X320040Y325120D02*
X332740Y312420D01*
X320040Y325120D02*
X266700Y325120D01*
X231140Y360680D01*
X231140Y383540D02*
X236220Y388620D01*
X231140Y383540D02*
X231140Y360680D01*
X91440Y210820D02*
X88900Y210820D01*
X78740Y220980D01*
X78740Y292100D01*
X83820Y292100D01*
D15*
X83820Y292100D03*
D14*
X91440Y210820D02*
X99060Y203200D01*
X99060Y175260D01*
D15*
X99060Y175260D03*
X99060Y147320D03*
D14*
X99060Y114300D01*
X129540Y83820D01*
X129540Y53340D02*
X167640Y15240D01*
X337820Y15240D01*
X358140Y35560D01*
X358140Y45720D01*
X129540Y53340D02*
X129540Y83820D01*
X129540Y160020D02*
X91440Y160020D01*
X66040Y185420D01*
X66040Y210820D01*
X53340Y210820D01*
X27940Y236220D02*
X27940Y284480D01*
X27940Y401320D01*
X40640Y414020D01*
X66040Y414020D01*
X27940Y236220D02*
X53340Y210820D01*
X218440Y299720D02*
X218440Y414020D01*
X218440Y299720D02*
X205740Y287020D01*
X152400Y287020D02*
X129540Y309880D01*
X129540Y312420D01*
X152400Y287020D02*
X205740Y287020D01*
X294640Y299720D02*
X307340Y312420D01*
X294640Y299720D02*
X218440Y299720D01*
X358140Y401320D02*
X370840Y414020D01*
X358140Y401320D02*
X358140Y284480D01*
X347980Y274320D01*
X332740Y274320D01*
X332740Y287020D02*
X307340Y312420D01*
X358140Y210820D02*
X370840Y210820D01*
X332740Y236220D02*
X332740Y274320D01*
X332740Y287020D01*
X332740Y236220D02*
X358140Y210820D01*
X378460Y50800D02*
X383540Y45720D01*
X386080Y55880D02*
X370840Y71120D01*
X386080Y55880D02*
X386080Y48260D01*
X383540Y45720D01*
X370840Y71120D02*
X370840Y210820D01*
X38100Y294640D02*
X27940Y284480D01*
X38100Y294640D02*
X68580Y294640D01*
X86360Y312420D01*
X129540Y312420D01*
X129540Y337820D02*
X109220Y358140D01*
X50800Y358140D01*
X43180Y365760D01*
X43180Y375920D01*
D15*
X43180Y375920D03*
D14*
X355600Y454660D02*
X370840Y439420D01*
X355600Y454660D02*
X337820Y454660D01*
X332740Y449580D01*
X332740Y439420D01*
D15*
X332740Y439420D03*
D14*
X307340Y337820D02*
X284480Y337820D01*
X262890Y359410D01*
X266700Y363220D01*
D15*
X266700Y363220D03*
D14*
X218440Y439420D02*
X180340Y439420D01*
D15*
X180340Y439420D03*
D14*
X243840Y439420D02*
X243840Y454660D01*
X294640Y462280D02*
X304800Y452120D01*
X304800Y431800D01*
X248920Y375920D01*
X243840Y454660D02*
X251460Y462280D01*
X294640Y462280D01*
D15*
X248920Y375920D03*
X134620Y281940D03*
D14*
X129540Y276860D01*
X129540Y259080D01*
X133350Y255270D01*
X128270Y255270D01*
D15*
X128270Y255270D03*
X307340Y373380D03*
D14*
X325120Y373380D01*
X332740Y365760D01*
X332740Y337820D01*
X431800Y403860D02*
X396240Y439420D01*
X431800Y403860D02*
X431800Y137160D01*
X419100Y124460D01*
X388620Y124460D01*
D15*
X388620Y124460D03*
X187960Y340360D03*
D14*
X185420Y337820D01*
X154940Y337820D01*
D15*
X243840Y264160D03*
D14*
X205740Y226060D01*
X101600Y226060D02*
X91440Y236220D01*
X101600Y226060D02*
X205740Y226060D01*
X78740Y426720D02*
X91440Y439420D01*
X78740Y426720D02*
X38100Y426720D01*
X17780Y406400D01*
X17780Y182880D01*
X78740Y121920D01*
X81280Y121920D01*
D15*
X81280Y121920D03*
D14*
X396240Y236220D02*
X408940Y236220D01*
X416560Y228600D01*
X416560Y175260D01*
X391160Y149860D01*
D15*
X276860Y264160D03*
D14*
X289560Y251460D01*
X289560Y205740D02*
X307340Y187960D01*
X332740Y187960D01*
X332740Y185420D01*
D15*
X332740Y185420D03*
X391160Y149860D03*
D14*
X289560Y205740D02*
X289560Y251460D01*
X332740Y83820D02*
X332740Y45720D01*
X307340Y45720D02*
X307340Y83820D01*
X281940Y83820D02*
X281940Y45720D01*
X256540Y45720D02*
X256540Y83820D01*
X231140Y83820D02*
X231140Y45720D01*
X205740Y45720D02*
X205740Y83820D01*
X180340Y83820D02*
X180340Y45720D01*
M02*
