G75*
%MOIN*%
%OFA0B0*%
%FSLAX25Y25*%
%IPPOS*%
%LPD*%
%AMOC8*
5,1,8,0,0,1.08239X$1,22.5*
%
%ADD10C,0.00600*%
%ADD11C,0.06000*%
%ADD12R,0.07098X0.06299*%
%ADD13R,0.06299X0.07098*%
%ADD14C,0.06000*%
%ADD15OC8,0.06000*%
%ADD16C,0.05200*%
%ADD17C,0.05118*%
%ADD18C,0.01200*%
D10*
X0032563Y0043461D02*
X0031558Y0044467D01*
X0031557Y0044466D02*
X0031506Y0044520D01*
X0031458Y0044577D01*
X0031413Y0044636D01*
X0031370Y0044698D01*
X0031332Y0044761D01*
X0031296Y0044826D01*
X0031264Y0044894D01*
X0031235Y0044962D01*
X0031211Y0045033D01*
X0031189Y0045104D01*
X0031172Y0045176D01*
X0031159Y0045250D01*
X0031149Y0045323D01*
X0031143Y0045398D01*
X0031141Y0045472D01*
X0031143Y0045546D01*
X0031149Y0045621D01*
X0031159Y0045694D01*
X0031172Y0045768D01*
X0031189Y0045840D01*
X0031211Y0045911D01*
X0031235Y0045982D01*
X0031264Y0046050D01*
X0031296Y0046118D01*
X0031332Y0046183D01*
X0031370Y0046246D01*
X0031413Y0046308D01*
X0031458Y0046367D01*
X0031506Y0046424D01*
X0031558Y0046478D01*
X0034072Y0048992D01*
X0034071Y0048992D02*
X0034125Y0049043D01*
X0034182Y0049091D01*
X0034241Y0049136D01*
X0034303Y0049179D01*
X0034366Y0049217D01*
X0034431Y0049253D01*
X0034499Y0049285D01*
X0034567Y0049314D01*
X0034638Y0049338D01*
X0034709Y0049360D01*
X0034781Y0049377D01*
X0034855Y0049390D01*
X0034928Y0049400D01*
X0035003Y0049406D01*
X0035077Y0049408D01*
X0035151Y0049406D01*
X0035226Y0049400D01*
X0035299Y0049390D01*
X0035373Y0049377D01*
X0035445Y0049360D01*
X0035516Y0049338D01*
X0035587Y0049314D01*
X0035655Y0049285D01*
X0035723Y0049253D01*
X0035788Y0049217D01*
X0035851Y0049179D01*
X0035913Y0049136D01*
X0035972Y0049091D01*
X0036028Y0049043D01*
X0036082Y0048992D01*
X0036083Y0048992D02*
X0037089Y0047986D01*
X0037458Y0045103D02*
X0035446Y0043092D01*
X0035388Y0043032D01*
X0035334Y0042969D01*
X0035282Y0042904D01*
X0035233Y0042836D01*
X0035188Y0042766D01*
X0035146Y0042694D01*
X0035108Y0042620D01*
X0035073Y0042544D01*
X0035041Y0042467D01*
X0035013Y0042388D01*
X0034989Y0042309D01*
X0034969Y0042228D01*
X0034952Y0042146D01*
X0034940Y0042064D01*
X0034931Y0041981D01*
X0034926Y0041898D01*
X0034925Y0041814D01*
X0034928Y0041731D01*
X0034935Y0041648D01*
X0034946Y0041565D01*
X0034960Y0041483D01*
X0034979Y0041402D01*
X0035001Y0041321D01*
X0035027Y0041242D01*
X0035056Y0041164D01*
X0035090Y0041088D01*
X0035126Y0041013D01*
X0035167Y0040940D01*
X0035210Y0040869D01*
X0035257Y0040800D01*
X0035307Y0040733D01*
X0035361Y0040669D01*
X0035417Y0040608D01*
X0035476Y0040549D01*
X0035537Y0040493D01*
X0035601Y0040439D01*
X0035668Y0040389D01*
X0035737Y0040342D01*
X0035808Y0040299D01*
X0035881Y0040258D01*
X0035956Y0040222D01*
X0036032Y0040188D01*
X0036110Y0040159D01*
X0036189Y0040133D01*
X0036270Y0040111D01*
X0036351Y0040092D01*
X0036433Y0040078D01*
X0036516Y0040067D01*
X0036599Y0040060D01*
X0036682Y0040057D01*
X0036766Y0040058D01*
X0036849Y0040063D01*
X0036932Y0040072D01*
X0037014Y0040084D01*
X0037096Y0040101D01*
X0037177Y0040121D01*
X0037256Y0040145D01*
X0037335Y0040173D01*
X0037412Y0040205D01*
X0037488Y0040240D01*
X0037562Y0040278D01*
X0037634Y0040320D01*
X0037704Y0040365D01*
X0037772Y0040414D01*
X0037837Y0040466D01*
X0037900Y0040520D01*
X0037960Y0040578D01*
X0039972Y0042589D01*
X0040030Y0042649D01*
X0040084Y0042712D01*
X0040136Y0042777D01*
X0040185Y0042845D01*
X0040230Y0042915D01*
X0040272Y0042987D01*
X0040310Y0043061D01*
X0040345Y0043137D01*
X0040377Y0043214D01*
X0040405Y0043293D01*
X0040429Y0043372D01*
X0040449Y0043453D01*
X0040466Y0043535D01*
X0040478Y0043617D01*
X0040487Y0043700D01*
X0040492Y0043783D01*
X0040493Y0043867D01*
X0040490Y0043950D01*
X0040483Y0044033D01*
X0040472Y0044116D01*
X0040458Y0044198D01*
X0040439Y0044279D01*
X0040417Y0044360D01*
X0040391Y0044439D01*
X0040362Y0044517D01*
X0040328Y0044593D01*
X0040292Y0044668D01*
X0040251Y0044741D01*
X0040208Y0044812D01*
X0040161Y0044881D01*
X0040111Y0044948D01*
X0040057Y0045012D01*
X0040001Y0045073D01*
X0039942Y0045132D01*
X0039881Y0045188D01*
X0039817Y0045242D01*
X0039750Y0045292D01*
X0039681Y0045339D01*
X0039610Y0045382D01*
X0039537Y0045423D01*
X0039462Y0045459D01*
X0039386Y0045493D01*
X0039308Y0045522D01*
X0039229Y0045548D01*
X0039148Y0045570D01*
X0039067Y0045589D01*
X0038985Y0045603D01*
X0038902Y0045614D01*
X0038819Y0045621D01*
X0038736Y0045624D01*
X0038652Y0045623D01*
X0038569Y0045618D01*
X0038486Y0045609D01*
X0038404Y0045597D01*
X0038322Y0045580D01*
X0038241Y0045560D01*
X0038162Y0045536D01*
X0038083Y0045508D01*
X0038006Y0045476D01*
X0037930Y0045441D01*
X0037856Y0045403D01*
X0037784Y0045361D01*
X0037714Y0045316D01*
X0037646Y0045267D01*
X0037581Y0045215D01*
X0037518Y0045161D01*
X0037458Y0045103D01*
X0033482Y0051593D02*
X0031470Y0053605D01*
X0026945Y0049079D01*
X0028956Y0047068D01*
X0030967Y0050085D02*
X0029459Y0051593D01*
X0029770Y0055305D02*
X0027256Y0057820D01*
X0028513Y0056563D02*
X0023987Y0052037D01*
X0022440Y0056098D02*
X0024451Y0058110D01*
X0024509Y0058170D01*
X0024563Y0058233D01*
X0024615Y0058298D01*
X0024664Y0058366D01*
X0024709Y0058436D01*
X0024751Y0058508D01*
X0024789Y0058582D01*
X0024824Y0058658D01*
X0024856Y0058735D01*
X0024884Y0058814D01*
X0024908Y0058893D01*
X0024928Y0058974D01*
X0024945Y0059056D01*
X0024957Y0059138D01*
X0024966Y0059221D01*
X0024971Y0059304D01*
X0024972Y0059388D01*
X0024969Y0059471D01*
X0024962Y0059554D01*
X0024951Y0059637D01*
X0024937Y0059719D01*
X0024918Y0059800D01*
X0024896Y0059881D01*
X0024870Y0059960D01*
X0024841Y0060038D01*
X0024807Y0060114D01*
X0024771Y0060189D01*
X0024730Y0060262D01*
X0024687Y0060333D01*
X0024640Y0060402D01*
X0024590Y0060469D01*
X0024536Y0060533D01*
X0024480Y0060594D01*
X0024421Y0060653D01*
X0024360Y0060709D01*
X0024296Y0060763D01*
X0024229Y0060813D01*
X0024160Y0060860D01*
X0024089Y0060903D01*
X0024016Y0060944D01*
X0023941Y0060980D01*
X0023865Y0061014D01*
X0023787Y0061043D01*
X0023708Y0061069D01*
X0023627Y0061091D01*
X0023546Y0061110D01*
X0023464Y0061124D01*
X0023381Y0061135D01*
X0023298Y0061142D01*
X0023215Y0061145D01*
X0023131Y0061144D01*
X0023048Y0061139D01*
X0022965Y0061130D01*
X0022883Y0061118D01*
X0022801Y0061101D01*
X0022720Y0061081D01*
X0022641Y0061057D01*
X0022562Y0061029D01*
X0022485Y0060997D01*
X0022409Y0060962D01*
X0022335Y0060924D01*
X0022263Y0060882D01*
X0022193Y0060837D01*
X0022125Y0060788D01*
X0022060Y0060736D01*
X0021997Y0060682D01*
X0021937Y0060624D01*
X0019926Y0058613D01*
X0019868Y0058553D01*
X0019814Y0058490D01*
X0019762Y0058425D01*
X0019713Y0058357D01*
X0019668Y0058287D01*
X0019626Y0058215D01*
X0019588Y0058141D01*
X0019553Y0058065D01*
X0019521Y0057988D01*
X0019493Y0057909D01*
X0019469Y0057830D01*
X0019449Y0057749D01*
X0019432Y0057667D01*
X0019420Y0057585D01*
X0019411Y0057502D01*
X0019406Y0057419D01*
X0019405Y0057335D01*
X0019408Y0057252D01*
X0019415Y0057169D01*
X0019426Y0057086D01*
X0019440Y0057004D01*
X0019459Y0056923D01*
X0019481Y0056842D01*
X0019507Y0056763D01*
X0019536Y0056685D01*
X0019570Y0056609D01*
X0019606Y0056534D01*
X0019647Y0056461D01*
X0019690Y0056390D01*
X0019737Y0056321D01*
X0019787Y0056254D01*
X0019841Y0056190D01*
X0019897Y0056129D01*
X0019956Y0056070D01*
X0020017Y0056014D01*
X0020081Y0055960D01*
X0020148Y0055910D01*
X0020217Y0055863D01*
X0020288Y0055820D01*
X0020361Y0055779D01*
X0020436Y0055743D01*
X0020512Y0055709D01*
X0020590Y0055680D01*
X0020669Y0055654D01*
X0020750Y0055632D01*
X0020831Y0055613D01*
X0020913Y0055599D01*
X0020996Y0055588D01*
X0021079Y0055581D01*
X0021162Y0055578D01*
X0021246Y0055579D01*
X0021329Y0055584D01*
X0021412Y0055593D01*
X0021494Y0055605D01*
X0021576Y0055622D01*
X0021657Y0055642D01*
X0021736Y0055666D01*
X0021815Y0055694D01*
X0021892Y0055726D01*
X0021968Y0055761D01*
X0022042Y0055799D01*
X0022114Y0055841D01*
X0022184Y0055886D01*
X0022252Y0055935D01*
X0022317Y0055987D01*
X0022380Y0056041D01*
X0022440Y0056099D01*
X0016857Y0059167D02*
X0017862Y0062184D01*
X0017611Y0062436D02*
X0016354Y0063693D01*
X0017611Y0062436D02*
X0017671Y0062378D01*
X0017734Y0062324D01*
X0017799Y0062272D01*
X0017867Y0062223D01*
X0017937Y0062178D01*
X0018009Y0062136D01*
X0018083Y0062098D01*
X0018159Y0062063D01*
X0018236Y0062031D01*
X0018315Y0062003D01*
X0018394Y0061979D01*
X0018475Y0061959D01*
X0018557Y0061942D01*
X0018639Y0061930D01*
X0018722Y0061921D01*
X0018805Y0061916D01*
X0018889Y0061915D01*
X0018972Y0061918D01*
X0019055Y0061925D01*
X0019138Y0061936D01*
X0019220Y0061950D01*
X0019301Y0061969D01*
X0019382Y0061991D01*
X0019461Y0062017D01*
X0019539Y0062046D01*
X0019615Y0062080D01*
X0019690Y0062116D01*
X0019763Y0062157D01*
X0019834Y0062200D01*
X0019903Y0062247D01*
X0019970Y0062297D01*
X0020034Y0062351D01*
X0020095Y0062407D01*
X0020154Y0062466D01*
X0020210Y0062527D01*
X0020264Y0062591D01*
X0020314Y0062658D01*
X0020361Y0062727D01*
X0020404Y0062798D01*
X0020445Y0062871D01*
X0020481Y0062946D01*
X0020515Y0063022D01*
X0020544Y0063100D01*
X0020570Y0063179D01*
X0020592Y0063260D01*
X0020611Y0063341D01*
X0020625Y0063423D01*
X0020636Y0063506D01*
X0020643Y0063589D01*
X0020646Y0063672D01*
X0020645Y0063756D01*
X0020640Y0063839D01*
X0020631Y0063922D01*
X0020619Y0064004D01*
X0020602Y0064086D01*
X0020582Y0064167D01*
X0020558Y0064246D01*
X0020530Y0064325D01*
X0020498Y0064402D01*
X0020463Y0064478D01*
X0020425Y0064552D01*
X0020383Y0064624D01*
X0020338Y0064694D01*
X0020289Y0064762D01*
X0020237Y0064827D01*
X0020183Y0064890D01*
X0020125Y0064950D01*
X0018868Y0066207D01*
X0014343Y0061682D01*
X0013293Y0066754D02*
X0012036Y0068011D01*
X0010024Y0066000D02*
X0014550Y0070525D01*
X0015807Y0069268D01*
X0015865Y0069208D01*
X0015919Y0069145D01*
X0015971Y0069080D01*
X0016020Y0069012D01*
X0016065Y0068942D01*
X0016107Y0068870D01*
X0016145Y0068796D01*
X0016180Y0068720D01*
X0016212Y0068643D01*
X0016240Y0068564D01*
X0016264Y0068485D01*
X0016284Y0068404D01*
X0016301Y0068322D01*
X0016313Y0068240D01*
X0016322Y0068157D01*
X0016327Y0068074D01*
X0016328Y0067990D01*
X0016325Y0067907D01*
X0016318Y0067824D01*
X0016307Y0067741D01*
X0016293Y0067659D01*
X0016274Y0067578D01*
X0016252Y0067497D01*
X0016226Y0067418D01*
X0016197Y0067340D01*
X0016163Y0067264D01*
X0016127Y0067189D01*
X0016086Y0067116D01*
X0016043Y0067045D01*
X0015996Y0066976D01*
X0015946Y0066909D01*
X0015892Y0066845D01*
X0015836Y0066784D01*
X0015777Y0066725D01*
X0015716Y0066669D01*
X0015652Y0066615D01*
X0015585Y0066565D01*
X0015516Y0066518D01*
X0015445Y0066475D01*
X0015372Y0066434D01*
X0015297Y0066398D01*
X0015221Y0066364D01*
X0015143Y0066335D01*
X0015064Y0066309D01*
X0014983Y0066287D01*
X0014902Y0066268D01*
X0014820Y0066254D01*
X0014737Y0066243D01*
X0014654Y0066236D01*
X0014571Y0066233D01*
X0014487Y0066234D01*
X0014404Y0066239D01*
X0014321Y0066248D01*
X0014239Y0066260D01*
X0014157Y0066277D01*
X0014076Y0066297D01*
X0013997Y0066321D01*
X0013918Y0066349D01*
X0013841Y0066381D01*
X0013765Y0066416D01*
X0013691Y0066454D01*
X0013619Y0066496D01*
X0013549Y0066541D01*
X0013481Y0066590D01*
X0013416Y0066642D01*
X0013353Y0066696D01*
X0013293Y0066754D01*
D11*
X0072600Y0048000D02*
X0072600Y0042000D01*
X0082600Y0042000D02*
X0082600Y0048000D01*
X0092600Y0048000D02*
X0092600Y0042000D01*
X0102600Y0042000D02*
X0102600Y0048000D01*
X0112600Y0048000D02*
X0112600Y0042000D01*
X0122600Y0042000D02*
X0122600Y0048000D01*
X0132600Y0048000D02*
X0132600Y0042000D01*
X0142600Y0042000D02*
X0142600Y0048000D01*
X0152600Y0048000D02*
X0152600Y0042000D01*
D12*
X0142600Y0069402D03*
X0142600Y0080598D03*
X0127600Y0109402D03*
X0127600Y0120598D03*
X0112600Y0120598D03*
X0112600Y0109402D03*
X0097600Y0109402D03*
X0097600Y0120598D03*
X0085600Y0120598D03*
X0085600Y0109402D03*
X0067600Y0109402D03*
X0067600Y0120598D03*
X0052600Y0120598D03*
X0052600Y0109402D03*
X0052600Y0179402D03*
X0052600Y0190598D03*
X0072600Y0190598D03*
X0072600Y0179402D03*
X0112600Y0181402D03*
X0112600Y0192598D03*
X0132600Y0192598D03*
X0132600Y0181402D03*
D13*
X0147002Y0134000D03*
X0158198Y0134000D03*
X0038198Y0135000D03*
X0027002Y0135000D03*
X0027002Y0175000D03*
X0038198Y0175000D03*
D14*
X0027600Y0190000D03*
X0052600Y0150000D03*
X0027600Y0110000D03*
X0087600Y0190000D03*
X0122600Y0150000D03*
X0147600Y0110000D03*
X0147600Y0190000D03*
D15*
X0147600Y0200000D03*
X0157600Y0200000D03*
X0157600Y0190000D03*
X0132600Y0160000D03*
X0132600Y0150000D03*
X0122600Y0160000D03*
X0097600Y0190000D03*
X0097600Y0200000D03*
X0087600Y0200000D03*
X0062600Y0160000D03*
X0062600Y0150000D03*
X0052600Y0160000D03*
X0037600Y0190000D03*
X0037600Y0200000D03*
X0027600Y0200000D03*
X0027600Y0120000D03*
X0037600Y0120000D03*
X0037600Y0110000D03*
X0147600Y0120000D03*
X0157600Y0120000D03*
X0157600Y0110000D03*
D16*
X0132600Y0092600D02*
X0132600Y0087400D01*
X0122600Y0087400D02*
X0122600Y0092600D01*
X0112600Y0092600D02*
X0112600Y0087400D01*
X0102600Y0087400D02*
X0102600Y0092600D01*
X0092600Y0092600D02*
X0092600Y0087400D01*
X0082600Y0087400D02*
X0082600Y0092600D01*
X0072600Y0092600D02*
X0072600Y0087400D01*
X0062600Y0087400D02*
X0062600Y0092600D01*
X0052600Y0092600D02*
X0052600Y0087400D01*
X0052600Y0062600D02*
X0052600Y0057400D01*
X0062600Y0057400D02*
X0062600Y0062600D01*
X0072600Y0062600D02*
X0072600Y0057400D01*
X0082600Y0057400D02*
X0082600Y0062600D01*
X0092600Y0062600D02*
X0092600Y0057400D01*
X0102600Y0057400D02*
X0102600Y0062600D01*
X0112600Y0062600D02*
X0112600Y0057400D01*
X0122600Y0057400D02*
X0122600Y0062600D01*
X0132600Y0062600D02*
X0132600Y0057400D01*
D17*
X0154600Y0076000D03*
X0155600Y0086000D03*
X0132600Y0100000D03*
X0110600Y0131000D03*
X0097600Y0131000D03*
X0077600Y0150000D03*
X0075600Y0161000D03*
X0094600Y0180000D03*
X0099600Y0175000D03*
X0106600Y0170000D03*
X0122600Y0174000D03*
X0132600Y0200000D03*
X0152600Y0178000D03*
X0157600Y0142000D03*
X0109600Y0203000D03*
X0072600Y0200000D03*
X0061600Y0190000D03*
X0049600Y0207000D03*
X0018600Y0175000D03*
X0034600Y0142000D03*
X0019600Y0137000D03*
X0052100Y0127500D03*
X0054600Y0138000D03*
X0040600Y0096000D03*
X0040600Y0085000D03*
X0033600Y0075000D03*
D18*
X0006200Y0032400D02*
X0007000Y0031600D01*
X0173921Y0031600D01*
X0173921Y0210101D01*
X0055199Y0210101D01*
X0055959Y0208265D01*
X0055959Y0207974D01*
X0056000Y0207875D01*
X0056000Y0197548D01*
X0056905Y0197548D01*
X0058302Y0196970D01*
X0059329Y0195942D01*
X0060335Y0196359D01*
X0062865Y0196359D01*
X0065202Y0195391D01*
X0065496Y0195097D01*
X0065829Y0195901D01*
X0066898Y0196970D01*
X0066961Y0196996D01*
X0066241Y0198735D01*
X0066241Y0201265D01*
X0067209Y0203602D01*
X0068998Y0205391D01*
X0071335Y0206359D01*
X0073865Y0206359D01*
X0076202Y0205391D01*
X0077991Y0203602D01*
X0078959Y0201265D01*
X0078959Y0198735D01*
X0078239Y0196996D01*
X0078302Y0196970D01*
X0079371Y0195901D01*
X0079949Y0194504D01*
X0079949Y0186693D01*
X0079371Y0185296D01*
X0079074Y0185000D01*
X0079371Y0184704D01*
X0079744Y0183802D01*
X0089409Y0183802D01*
X0090998Y0185391D01*
X0092125Y0185858D01*
X0090800Y0187183D01*
X0090800Y0192817D01*
X0092983Y0195000D01*
X0092600Y0195383D01*
X0090417Y0193200D01*
X0084783Y0193200D01*
X0080800Y0197183D01*
X0080800Y0202817D01*
X0084783Y0206800D01*
X0090417Y0206800D01*
X0092600Y0204617D01*
X0094783Y0206800D01*
X0100417Y0206800D01*
X0103241Y0203976D01*
X0103241Y0204265D01*
X0104209Y0206602D01*
X0105998Y0208391D01*
X0108335Y0209359D01*
X0110865Y0209359D01*
X0113202Y0208391D01*
X0114991Y0206602D01*
X0115959Y0204265D01*
X0115959Y0202863D01*
X0116092Y0202730D01*
X0116092Y0202730D01*
X0117330Y0201492D01*
X0118000Y0199875D01*
X0118000Y0199094D01*
X0118302Y0198970D01*
X0119371Y0197901D01*
X0119949Y0196504D01*
X0119949Y0191472D01*
X0123619Y0187802D01*
X0125620Y0187802D01*
X0125251Y0188693D01*
X0125251Y0196504D01*
X0125829Y0197901D01*
X0126365Y0198436D01*
X0126241Y0198735D01*
X0126241Y0201265D01*
X0127209Y0203602D01*
X0128998Y0205391D01*
X0131335Y0206359D01*
X0133865Y0206359D01*
X0136202Y0205391D01*
X0137991Y0203602D01*
X0138959Y0201265D01*
X0138959Y0198735D01*
X0138835Y0198436D01*
X0139371Y0197901D01*
X0139949Y0196504D01*
X0139949Y0188693D01*
X0139371Y0187296D01*
X0139074Y0187000D01*
X0139371Y0186704D01*
X0139949Y0185307D01*
X0139949Y0182873D01*
X0140511Y0182311D01*
X0140725Y0182400D01*
X0148007Y0182400D01*
X0148998Y0183391D01*
X0151335Y0184359D01*
X0153624Y0184359D01*
X0150800Y0187183D01*
X0150800Y0192817D01*
X0152983Y0195000D01*
X0152600Y0195383D01*
X0150417Y0193200D01*
X0144783Y0193200D01*
X0140800Y0197183D01*
X0140800Y0202817D01*
X0144783Y0206800D01*
X0150417Y0206800D01*
X0152600Y0204617D01*
X0154783Y0206800D01*
X0160417Y0206800D01*
X0164400Y0202817D01*
X0164400Y0197183D01*
X0162217Y0195000D01*
X0164400Y0192817D01*
X0164400Y0187183D01*
X0160417Y0183200D01*
X0156393Y0183200D01*
X0157991Y0181602D01*
X0158959Y0179265D01*
X0158959Y0176735D01*
X0157991Y0174398D01*
X0156202Y0172609D01*
X0153865Y0171641D01*
X0151335Y0171641D01*
X0148998Y0172609D01*
X0148007Y0173600D01*
X0144000Y0173600D01*
X0144000Y0144823D01*
X0147473Y0141349D01*
X0150907Y0141349D01*
X0151241Y0141211D01*
X0151241Y0143265D01*
X0152209Y0145602D01*
X0153998Y0147391D01*
X0156335Y0148359D01*
X0158865Y0148359D01*
X0161202Y0147391D01*
X0162991Y0145602D01*
X0163959Y0143265D01*
X0163959Y0140735D01*
X0163835Y0140436D01*
X0164570Y0139702D01*
X0165148Y0138305D01*
X0165148Y0129695D01*
X0164570Y0128298D01*
X0163501Y0127229D01*
X0162104Y0126651D01*
X0160566Y0126651D01*
X0164400Y0122817D01*
X0164400Y0117183D01*
X0162217Y0115000D01*
X0164400Y0112817D01*
X0164400Y0107183D01*
X0160417Y0103200D01*
X0154783Y0103200D01*
X0150800Y0107183D01*
X0150800Y0110577D01*
X0150108Y0111270D01*
X0150108Y0111270D01*
X0148870Y0112508D01*
X0148583Y0113200D01*
X0144783Y0113200D01*
X0144000Y0113983D01*
X0144000Y0105823D01*
X0147423Y0102400D01*
X0157475Y0102400D01*
X0159092Y0101730D01*
X0166330Y0094492D01*
X0167000Y0092875D01*
X0167000Y0074125D01*
X0166330Y0072508D01*
X0165092Y0071270D01*
X0159494Y0065671D01*
X0157877Y0065002D01*
X0149744Y0065002D01*
X0149371Y0064099D01*
X0148302Y0063030D01*
X0146905Y0062452D01*
X0139000Y0062452D01*
X0139000Y0056127D01*
X0138026Y0053775D01*
X0137234Y0052983D01*
X0137600Y0052617D01*
X0138748Y0053765D01*
X0141247Y0054800D01*
X0143953Y0054800D01*
X0146452Y0053765D01*
X0148365Y0051852D01*
X0149400Y0049353D01*
X0149400Y0040647D01*
X0148365Y0038148D01*
X0146452Y0036235D01*
X0143953Y0035200D01*
X0141247Y0035200D01*
X0138748Y0036235D01*
X0137600Y0037383D01*
X0136452Y0036235D01*
X0133953Y0035200D01*
X0131247Y0035200D01*
X0128748Y0036235D01*
X0127600Y0037383D01*
X0126452Y0036235D01*
X0123953Y0035200D01*
X0121247Y0035200D01*
X0118748Y0036235D01*
X0117600Y0037383D01*
X0116452Y0036235D01*
X0113953Y0035200D01*
X0111247Y0035200D01*
X0108748Y0036235D01*
X0107600Y0037383D01*
X0106452Y0036235D01*
X0103953Y0035200D01*
X0101247Y0035200D01*
X0098748Y0036235D01*
X0097600Y0037383D01*
X0096452Y0036235D01*
X0093953Y0035200D01*
X0091247Y0035200D01*
X0088748Y0036235D01*
X0087600Y0037383D01*
X0086452Y0036235D01*
X0083953Y0035200D01*
X0081247Y0035200D01*
X0078748Y0036235D01*
X0077600Y0037383D01*
X0076452Y0036235D01*
X0073953Y0035200D01*
X0071247Y0035200D01*
X0068748Y0036235D01*
X0066835Y0038148D01*
X0065800Y0040647D01*
X0065800Y0049353D01*
X0066835Y0051852D01*
X0067966Y0052983D01*
X0067600Y0053349D01*
X0066225Y0051974D01*
X0063873Y0051000D01*
X0061327Y0051000D01*
X0058975Y0051974D01*
X0057600Y0053349D01*
X0056225Y0051974D01*
X0053873Y0051000D01*
X0051327Y0051000D01*
X0048975Y0051974D01*
X0047174Y0053775D01*
X0046200Y0056127D01*
X0046200Y0063873D01*
X0047174Y0066225D01*
X0048975Y0068026D01*
X0051327Y0069000D01*
X0053873Y0069000D01*
X0056225Y0068026D01*
X0057600Y0066651D01*
X0058975Y0068026D01*
X0061327Y0069000D01*
X0063873Y0069000D01*
X0066225Y0068026D01*
X0067600Y0066651D01*
X0068975Y0068026D01*
X0071327Y0069000D01*
X0073873Y0069000D01*
X0076225Y0068026D01*
X0077600Y0066651D01*
X0078975Y0068026D01*
X0081327Y0069000D01*
X0083873Y0069000D01*
X0086225Y0068026D01*
X0087600Y0066651D01*
X0088975Y0068026D01*
X0091327Y0069000D01*
X0093873Y0069000D01*
X0096225Y0068026D01*
X0097600Y0066651D01*
X0098975Y0068026D01*
X0101327Y0069000D01*
X0103873Y0069000D01*
X0106225Y0068026D01*
X0107600Y0066651D01*
X0108975Y0068026D01*
X0111327Y0069000D01*
X0113873Y0069000D01*
X0116225Y0068026D01*
X0117600Y0066651D01*
X0118975Y0068026D01*
X0121327Y0069000D01*
X0123873Y0069000D01*
X0126225Y0068026D01*
X0127600Y0066651D01*
X0128975Y0068026D01*
X0131327Y0069000D01*
X0133873Y0069000D01*
X0135251Y0068429D01*
X0135251Y0070600D01*
X0120725Y0070600D01*
X0119108Y0071270D01*
X0117870Y0072508D01*
X0117870Y0072508D01*
X0115108Y0075270D01*
X0113870Y0076508D01*
X0113200Y0078125D01*
X0113200Y0081000D01*
X0111327Y0081000D01*
X0108975Y0081974D01*
X0107600Y0083349D01*
X0106225Y0081974D01*
X0103873Y0081000D01*
X0101327Y0081000D01*
X0098975Y0081974D01*
X0097600Y0083349D01*
X0096225Y0081974D01*
X0093873Y0081000D01*
X0092000Y0081000D01*
X0092000Y0079125D01*
X0091330Y0077508D01*
X0090092Y0076270D01*
X0085092Y0071270D01*
X0083475Y0070600D01*
X0038193Y0070600D01*
X0037202Y0069609D01*
X0034865Y0068641D01*
X0032335Y0068641D01*
X0029998Y0069609D01*
X0028209Y0071398D01*
X0027241Y0073735D01*
X0027241Y0076265D01*
X0028209Y0078602D01*
X0029998Y0080391D01*
X0032335Y0081359D01*
X0034865Y0081359D01*
X0035519Y0081088D01*
X0035209Y0081398D01*
X0034241Y0083735D01*
X0034241Y0086265D01*
X0035209Y0088602D01*
X0036200Y0089593D01*
X0036200Y0091407D01*
X0035209Y0092398D01*
X0034241Y0094735D01*
X0034241Y0097265D01*
X0035209Y0099602D01*
X0036998Y0101391D01*
X0039335Y0102359D01*
X0041865Y0102359D01*
X0044202Y0101391D01*
X0045991Y0099602D01*
X0046959Y0097265D01*
X0046959Y0094735D01*
X0045991Y0092398D01*
X0045000Y0091407D01*
X0045000Y0089593D01*
X0045991Y0088602D01*
X0046959Y0086265D01*
X0046959Y0083735D01*
X0045991Y0081398D01*
X0044202Y0079609D01*
X0043697Y0079400D01*
X0080777Y0079400D01*
X0082377Y0081000D01*
X0081327Y0081000D01*
X0078975Y0081974D01*
X0077600Y0083349D01*
X0076225Y0081974D01*
X0073873Y0081000D01*
X0071327Y0081000D01*
X0068975Y0081974D01*
X0067600Y0083349D01*
X0066225Y0081974D01*
X0063873Y0081000D01*
X0061327Y0081000D01*
X0058975Y0081974D01*
X0057174Y0083775D01*
X0056200Y0086127D01*
X0056200Y0093873D01*
X0057174Y0096225D01*
X0058364Y0097415D01*
X0058271Y0097508D01*
X0053327Y0102452D01*
X0048295Y0102452D01*
X0046898Y0103030D01*
X0045829Y0104099D01*
X0045251Y0105496D01*
X0045251Y0113307D01*
X0045829Y0114704D01*
X0046126Y0115000D01*
X0045829Y0115296D01*
X0045251Y0116693D01*
X0045251Y0124504D01*
X0045829Y0125901D01*
X0045865Y0125936D01*
X0045741Y0126235D01*
X0045741Y0128600D01*
X0043871Y0128600D01*
X0043501Y0128229D01*
X0042104Y0127651D01*
X0034293Y0127651D01*
X0032896Y0128229D01*
X0032600Y0128526D01*
X0032304Y0128229D01*
X0030907Y0127651D01*
X0023096Y0127651D01*
X0021699Y0128229D01*
X0020630Y0129298D01*
X0020074Y0130641D01*
X0018335Y0130641D01*
X0015998Y0131609D01*
X0014209Y0133398D01*
X0013241Y0135735D01*
X0013241Y0138265D01*
X0014209Y0140602D01*
X0015998Y0142391D01*
X0018335Y0143359D01*
X0020865Y0143359D01*
X0023202Y0142391D01*
X0023244Y0142349D01*
X0028241Y0142349D01*
X0028241Y0143265D01*
X0029209Y0145602D01*
X0030998Y0147391D01*
X0033335Y0148359D01*
X0035865Y0148359D01*
X0038202Y0147391D01*
X0039991Y0145602D01*
X0040749Y0143773D01*
X0041798Y0144823D01*
X0041798Y0165177D01*
X0039325Y0167651D01*
X0034293Y0167651D01*
X0032896Y0168229D01*
X0032600Y0168526D01*
X0032304Y0168229D01*
X0030907Y0167651D01*
X0023096Y0167651D01*
X0021699Y0168229D01*
X0020871Y0169058D01*
X0019865Y0168641D01*
X0017335Y0168641D01*
X0014998Y0169609D01*
X0013209Y0171398D01*
X0012241Y0173735D01*
X0012241Y0176265D01*
X0013209Y0178602D01*
X0014998Y0180391D01*
X0017335Y0181359D01*
X0018737Y0181359D01*
X0019108Y0181730D01*
X0020725Y0182400D01*
X0024475Y0182400D01*
X0024598Y0182349D01*
X0030907Y0182349D01*
X0032304Y0181771D01*
X0032600Y0181474D01*
X0032896Y0181771D01*
X0034293Y0182349D01*
X0039325Y0182349D01*
X0040108Y0183132D01*
X0040273Y0183200D01*
X0034783Y0183200D01*
X0030800Y0187183D01*
X0030800Y0192817D01*
X0032983Y0195000D01*
X0032600Y0195383D01*
X0030417Y0193200D01*
X0024783Y0193200D01*
X0020800Y0197183D01*
X0020800Y0202817D01*
X0024783Y0206800D01*
X0030417Y0206800D01*
X0032600Y0204617D01*
X0034783Y0206800D01*
X0040417Y0206800D01*
X0044400Y0202817D01*
X0044400Y0197183D01*
X0042217Y0195000D01*
X0044400Y0192817D01*
X0044400Y0187183D01*
X0040519Y0183302D01*
X0041725Y0183802D01*
X0045456Y0183802D01*
X0045829Y0184704D01*
X0046126Y0185000D01*
X0045829Y0185296D01*
X0045251Y0186693D01*
X0045251Y0194504D01*
X0045829Y0195901D01*
X0046898Y0196970D01*
X0047200Y0197094D01*
X0047200Y0201111D01*
X0045998Y0201609D01*
X0044209Y0203398D01*
X0043241Y0205735D01*
X0043241Y0208265D01*
X0044001Y0210101D01*
X0006200Y0210101D01*
X0006200Y0067481D01*
X0006548Y0068322D01*
X0008560Y0070334D01*
X0008560Y0070334D01*
X0009713Y0071487D01*
X0009713Y0071487D01*
X0011074Y0072848D01*
X0012227Y0074001D01*
X0013734Y0074625D01*
X0015365Y0074625D01*
X0016872Y0074001D01*
X0018129Y0072744D01*
X0018129Y0072744D01*
X0018706Y0072168D01*
X0018706Y0072168D01*
X0019655Y0071219D01*
X0019655Y0071219D01*
X0020023Y0070167D01*
X0021191Y0069683D01*
X0022448Y0068426D01*
X0022448Y0068426D01*
X0023024Y0067849D01*
X0023973Y0066901D01*
X0023973Y0066901D01*
X0024595Y0065124D01*
X0025185Y0065057D01*
X0025185Y0065057D01*
X0027457Y0063630D01*
X0027457Y0063630D01*
X0028694Y0061662D01*
X0029578Y0061295D01*
X0030835Y0060038D01*
X0030835Y0060038D01*
X0031386Y0059488D01*
X0033245Y0057628D01*
X0033406Y0057241D01*
X0033793Y0057081D01*
X0036957Y0053916D01*
X0037291Y0053110D01*
X0037936Y0052938D01*
X0037936Y0052938D01*
X0038405Y0052468D01*
X0038405Y0052468D01*
X0038657Y0052216D01*
X0038982Y0051891D01*
X0039559Y0051315D01*
X0039559Y0051315D01*
X0040564Y0050309D01*
X0040947Y0049385D01*
X0042978Y0048109D01*
X0042978Y0048109D01*
X0042978Y0048109D01*
X0044405Y0045838D01*
X0044405Y0045838D01*
X0044706Y0043171D01*
X0044706Y0043171D01*
X0043819Y0040639D01*
X0043819Y0040639D01*
X0043447Y0040267D01*
X0043447Y0040267D01*
X0041436Y0038255D01*
X0041436Y0038255D01*
X0040859Y0037679D01*
X0039911Y0036730D01*
X0039911Y0036730D01*
X0037378Y0035844D01*
X0037378Y0035844D01*
X0034712Y0036144D01*
X0034712Y0036144D01*
X0032440Y0037572D01*
X0032440Y0037572D01*
X0032440Y0037572D01*
X0031164Y0039603D01*
X0030241Y0039985D01*
X0029235Y0040991D01*
X0028702Y0041524D01*
X0028626Y0041600D01*
X0027882Y0042344D01*
X0027882Y0042344D01*
X0027516Y0043227D01*
X0026634Y0043592D01*
X0023493Y0046732D01*
X0023469Y0046757D01*
X0023469Y0046757D01*
X0023111Y0047622D01*
X0022941Y0048033D01*
X0021665Y0048561D01*
X0020511Y0049715D01*
X0019887Y0051222D01*
X0019887Y0051587D01*
X0019192Y0051665D01*
X0019192Y0051665D01*
X0016920Y0053092D01*
X0016920Y0053092D01*
X0016920Y0053092D01*
X0015543Y0055284D01*
X0014786Y0055536D01*
X0013554Y0056604D01*
X0012945Y0057823D01*
X0012020Y0058206D01*
X0010867Y0059359D01*
X0010243Y0060866D01*
X0010243Y0061900D01*
X0009209Y0061900D01*
X0007702Y0062524D01*
X0006548Y0063678D01*
X0006200Y0064519D01*
X0006200Y0032400D01*
X0006200Y0032993D02*
X0173921Y0032993D01*
X0173921Y0034191D02*
X0006200Y0034191D01*
X0006200Y0035390D02*
X0070790Y0035390D01*
X0068395Y0036588D02*
X0039505Y0036588D01*
X0040967Y0037787D02*
X0067197Y0037787D01*
X0066489Y0038985D02*
X0042166Y0038985D01*
X0043364Y0040184D02*
X0065992Y0040184D01*
X0065800Y0041382D02*
X0044080Y0041382D01*
X0044499Y0042581D02*
X0065800Y0042581D01*
X0065800Y0043779D02*
X0044637Y0043779D01*
X0044502Y0044978D02*
X0065800Y0044978D01*
X0065800Y0046176D02*
X0044192Y0046176D01*
X0043439Y0047375D02*
X0065800Y0047375D01*
X0065800Y0048573D02*
X0042240Y0048573D01*
X0040787Y0049772D02*
X0065974Y0049772D01*
X0066470Y0050970D02*
X0039903Y0050970D01*
X0038705Y0052169D02*
X0048780Y0052169D01*
X0047582Y0053367D02*
X0037185Y0053367D01*
X0036308Y0054566D02*
X0046847Y0054566D01*
X0046350Y0055764D02*
X0035109Y0055764D01*
X0033911Y0056963D02*
X0046200Y0056963D01*
X0046200Y0058161D02*
X0032712Y0058161D01*
X0031514Y0059360D02*
X0046200Y0059360D01*
X0046200Y0060558D02*
X0030315Y0060558D01*
X0028634Y0061757D02*
X0046200Y0061757D01*
X0046200Y0062955D02*
X0027881Y0062955D01*
X0026623Y0064154D02*
X0046316Y0064154D01*
X0046813Y0065352D02*
X0024515Y0065352D01*
X0024095Y0066551D02*
X0047500Y0066551D01*
X0048698Y0067749D02*
X0023124Y0067749D01*
X0021926Y0068948D02*
X0031594Y0068948D01*
X0029461Y0070146D02*
X0020072Y0070146D01*
X0019529Y0071345D02*
X0028262Y0071345D01*
X0027735Y0072543D02*
X0018330Y0072543D01*
X0017132Y0073742D02*
X0027241Y0073742D01*
X0027241Y0074940D02*
X0006200Y0074940D01*
X0006200Y0073742D02*
X0011968Y0073742D01*
X0010769Y0072543D02*
X0006200Y0072543D01*
X0006200Y0071345D02*
X0009571Y0071345D01*
X0008372Y0070146D02*
X0006200Y0070146D01*
X0006200Y0068948D02*
X0007174Y0068948D01*
X0006311Y0067749D02*
X0006200Y0067749D01*
X0006200Y0064154D02*
X0006351Y0064154D01*
X0006200Y0062955D02*
X0007271Y0062955D01*
X0006200Y0061757D02*
X0010243Y0061757D01*
X0010370Y0060558D02*
X0006200Y0060558D01*
X0006200Y0059360D02*
X0010866Y0059360D01*
X0012128Y0058161D02*
X0006200Y0058161D01*
X0006200Y0056963D02*
X0013375Y0056963D01*
X0014523Y0055764D02*
X0006200Y0055764D01*
X0006200Y0054566D02*
X0015994Y0054566D01*
X0016747Y0053367D02*
X0006200Y0053367D01*
X0006200Y0052169D02*
X0018390Y0052169D01*
X0019991Y0050970D02*
X0006200Y0050970D01*
X0006200Y0049772D02*
X0020488Y0049772D01*
X0021653Y0048573D02*
X0006200Y0048573D01*
X0006200Y0047375D02*
X0023213Y0047375D01*
X0024050Y0046176D02*
X0006200Y0046176D01*
X0006200Y0044978D02*
X0025248Y0044978D01*
X0026447Y0043779D02*
X0006200Y0043779D01*
X0006200Y0042581D02*
X0027784Y0042581D01*
X0028844Y0041382D02*
X0006200Y0041382D01*
X0006200Y0040184D02*
X0030042Y0040184D01*
X0031552Y0038985D02*
X0006200Y0038985D01*
X0006200Y0037787D02*
X0032305Y0037787D01*
X0034006Y0036588D02*
X0006200Y0036588D01*
X0006806Y0031794D02*
X0173921Y0031794D01*
X0173921Y0035390D02*
X0144410Y0035390D01*
X0146805Y0036588D02*
X0173921Y0036588D01*
X0173921Y0037787D02*
X0148003Y0037787D01*
X0148711Y0038985D02*
X0173921Y0038985D01*
X0173921Y0040184D02*
X0149208Y0040184D01*
X0149400Y0041382D02*
X0173921Y0041382D01*
X0173921Y0042581D02*
X0149400Y0042581D01*
X0149400Y0043779D02*
X0173921Y0043779D01*
X0173921Y0044978D02*
X0149400Y0044978D01*
X0149400Y0046176D02*
X0173921Y0046176D01*
X0173921Y0047375D02*
X0149400Y0047375D01*
X0149400Y0048573D02*
X0173921Y0048573D01*
X0173921Y0049772D02*
X0149226Y0049772D01*
X0148730Y0050970D02*
X0173921Y0050970D01*
X0173921Y0052169D02*
X0148048Y0052169D01*
X0146849Y0053367D02*
X0173921Y0053367D01*
X0173921Y0054566D02*
X0144518Y0054566D01*
X0140682Y0054566D02*
X0138353Y0054566D01*
X0138351Y0053367D02*
X0137618Y0053367D01*
X0138850Y0055764D02*
X0173921Y0055764D01*
X0173921Y0056963D02*
X0139000Y0056963D01*
X0139000Y0058161D02*
X0173921Y0058161D01*
X0173921Y0059360D02*
X0139000Y0059360D01*
X0139000Y0060558D02*
X0173921Y0060558D01*
X0173921Y0061757D02*
X0139000Y0061757D01*
X0135251Y0068948D02*
X0133999Y0068948D01*
X0135251Y0070146D02*
X0037739Y0070146D01*
X0035606Y0068948D02*
X0051201Y0068948D01*
X0053999Y0068948D02*
X0061201Y0068948D01*
X0058698Y0067749D02*
X0056502Y0067749D01*
X0063999Y0068948D02*
X0071201Y0068948D01*
X0068698Y0067749D02*
X0066502Y0067749D01*
X0073999Y0068948D02*
X0081201Y0068948D01*
X0083999Y0068948D02*
X0091201Y0068948D01*
X0088698Y0067749D02*
X0086502Y0067749D01*
X0085167Y0071345D02*
X0119033Y0071345D01*
X0117834Y0072543D02*
X0086366Y0072543D01*
X0087564Y0073742D02*
X0116636Y0073742D01*
X0115437Y0074940D02*
X0088763Y0074940D01*
X0089962Y0076139D02*
X0114238Y0076139D01*
X0113526Y0077337D02*
X0091160Y0077337D01*
X0091756Y0078536D02*
X0113200Y0078536D01*
X0113200Y0079734D02*
X0092000Y0079734D01*
X0092000Y0080933D02*
X0113200Y0080933D01*
X0108817Y0082132D02*
X0106382Y0082132D01*
X0107581Y0083330D02*
X0107619Y0083330D01*
X0112600Y0090000D02*
X0112600Y0109402D01*
X0119600Y0118000D02*
X0122198Y0120598D01*
X0127600Y0120598D01*
X0119600Y0118000D02*
X0119600Y0100000D01*
X0117600Y0098000D01*
X0117600Y0079000D01*
X0121600Y0075000D01*
X0153600Y0075000D01*
X0154600Y0076000D01*
X0157002Y0069402D02*
X0162600Y0075000D01*
X0162600Y0092000D01*
X0156600Y0098000D01*
X0145600Y0098000D01*
X0139600Y0104000D01*
X0139600Y0126000D01*
X0128600Y0137000D01*
X0116600Y0137000D01*
X0109600Y0144000D01*
X0109600Y0163000D01*
X0120600Y0174000D01*
X0122600Y0174000D01*
X0127216Y0169623D02*
X0135200Y0169623D01*
X0135200Y0170821D02*
X0128166Y0170821D01*
X0127991Y0170398D02*
X0126202Y0168609D01*
X0123865Y0167641D01*
X0121335Y0167641D01*
X0120719Y0167896D01*
X0114000Y0161177D01*
X0114000Y0145823D01*
X0118423Y0141400D01*
X0129475Y0141400D01*
X0131092Y0140730D01*
X0132330Y0139492D01*
X0132330Y0139492D01*
X0140052Y0131771D01*
X0140052Y0136325D01*
X0137108Y0139270D01*
X0135870Y0140508D01*
X0135200Y0142125D01*
X0135200Y0143200D01*
X0129783Y0143200D01*
X0125800Y0147183D01*
X0125800Y0152817D01*
X0127983Y0155000D01*
X0127600Y0155383D01*
X0125417Y0153200D01*
X0119783Y0153200D01*
X0115800Y0157183D01*
X0115800Y0162817D01*
X0119783Y0166800D01*
X0125417Y0166800D01*
X0127600Y0164617D01*
X0129783Y0166800D01*
X0135200Y0166800D01*
X0135200Y0174452D01*
X0128959Y0174452D01*
X0128959Y0172735D01*
X0127991Y0170398D01*
X0128663Y0172020D02*
X0135200Y0172020D01*
X0135200Y0173218D02*
X0128959Y0173218D01*
X0128959Y0174417D02*
X0135200Y0174417D01*
X0139600Y0176000D02*
X0141600Y0178000D01*
X0152600Y0178000D01*
X0148389Y0173218D02*
X0144000Y0173218D01*
X0144000Y0172020D02*
X0150420Y0172020D01*
X0154780Y0172020D02*
X0173921Y0172020D01*
X0173921Y0173218D02*
X0156811Y0173218D01*
X0157999Y0174417D02*
X0173921Y0174417D01*
X0173921Y0175615D02*
X0158495Y0175615D01*
X0158959Y0176814D02*
X0173921Y0176814D01*
X0173921Y0178012D02*
X0158959Y0178012D01*
X0158959Y0179211D02*
X0173921Y0179211D01*
X0173921Y0180409D02*
X0158485Y0180409D01*
X0157985Y0181608D02*
X0173921Y0181608D01*
X0173921Y0182806D02*
X0156787Y0182806D01*
X0161222Y0184005D02*
X0173921Y0184005D01*
X0173921Y0185203D02*
X0162420Y0185203D01*
X0163619Y0186402D02*
X0173921Y0186402D01*
X0173921Y0187601D02*
X0164400Y0187601D01*
X0164400Y0188799D02*
X0173921Y0188799D01*
X0173921Y0189998D02*
X0164400Y0189998D01*
X0164400Y0191196D02*
X0173921Y0191196D01*
X0173921Y0192395D02*
X0164400Y0192395D01*
X0163624Y0193593D02*
X0173921Y0193593D01*
X0173921Y0194792D02*
X0162425Y0194792D01*
X0163207Y0195990D02*
X0173921Y0195990D01*
X0173921Y0197189D02*
X0164400Y0197189D01*
X0164400Y0198387D02*
X0173921Y0198387D01*
X0173921Y0199586D02*
X0164400Y0199586D01*
X0164400Y0200784D02*
X0173921Y0200784D01*
X0173921Y0201983D02*
X0164400Y0201983D01*
X0164035Y0203181D02*
X0173921Y0203181D01*
X0173921Y0204380D02*
X0162837Y0204380D01*
X0161638Y0205578D02*
X0173921Y0205578D01*
X0173921Y0206777D02*
X0160440Y0206777D01*
X0154760Y0206777D02*
X0150440Y0206777D01*
X0151638Y0205578D02*
X0153562Y0205578D01*
X0144760Y0206777D02*
X0114816Y0206777D01*
X0115415Y0205578D02*
X0129450Y0205578D01*
X0127987Y0204380D02*
X0115912Y0204380D01*
X0115959Y0203181D02*
X0127035Y0203181D01*
X0126538Y0201983D02*
X0116840Y0201983D01*
X0117623Y0200784D02*
X0126241Y0200784D01*
X0126241Y0199586D02*
X0118000Y0199586D01*
X0118884Y0198387D02*
X0126316Y0198387D01*
X0125534Y0197189D02*
X0119666Y0197189D01*
X0119949Y0195990D02*
X0125251Y0195990D01*
X0125251Y0194792D02*
X0119949Y0194792D01*
X0119949Y0193593D02*
X0125251Y0193593D01*
X0125251Y0192395D02*
X0119949Y0192395D01*
X0120225Y0191196D02*
X0125251Y0191196D01*
X0125251Y0189998D02*
X0121423Y0189998D01*
X0122622Y0188799D02*
X0125251Y0188799D01*
X0121797Y0183402D02*
X0130600Y0183402D01*
X0132600Y0181402D01*
X0135198Y0181402D01*
X0139600Y0177000D01*
X0139600Y0176000D01*
X0139600Y0143000D01*
X0147002Y0135598D01*
X0147002Y0134000D01*
X0152600Y0128402D01*
X0152600Y0115000D01*
X0157600Y0110000D01*
X0153080Y0104903D02*
X0144919Y0104903D01*
X0144000Y0106102D02*
X0151882Y0106102D01*
X0150800Y0107300D02*
X0144000Y0107300D01*
X0144000Y0108499D02*
X0150800Y0108499D01*
X0150800Y0109697D02*
X0144000Y0109697D01*
X0144000Y0110896D02*
X0150482Y0110896D01*
X0149283Y0112094D02*
X0144000Y0112094D01*
X0144000Y0113293D02*
X0144691Y0113293D01*
X0146118Y0103705D02*
X0154279Y0103705D01*
X0159515Y0101308D02*
X0173921Y0101308D01*
X0173921Y0102506D02*
X0147316Y0102506D01*
X0132600Y0100000D02*
X0146600Y0086000D01*
X0155600Y0086000D01*
X0165507Y0095315D02*
X0173921Y0095315D01*
X0173921Y0094117D02*
X0166486Y0094117D01*
X0166982Y0092918D02*
X0173921Y0092918D01*
X0173921Y0091720D02*
X0167000Y0091720D01*
X0167000Y0090521D02*
X0173921Y0090521D01*
X0173921Y0089323D02*
X0167000Y0089323D01*
X0167000Y0088124D02*
X0173921Y0088124D01*
X0173921Y0086926D02*
X0167000Y0086926D01*
X0167000Y0085727D02*
X0173921Y0085727D01*
X0173921Y0084529D02*
X0167000Y0084529D01*
X0167000Y0083330D02*
X0173921Y0083330D01*
X0173921Y0082132D02*
X0167000Y0082132D01*
X0167000Y0080933D02*
X0173921Y0080933D01*
X0173921Y0079734D02*
X0167000Y0079734D01*
X0167000Y0078536D02*
X0173921Y0078536D01*
X0173921Y0077337D02*
X0167000Y0077337D01*
X0167000Y0076139D02*
X0173921Y0076139D01*
X0173921Y0074940D02*
X0167000Y0074940D01*
X0166841Y0073742D02*
X0173921Y0073742D01*
X0173921Y0072543D02*
X0166345Y0072543D01*
X0165167Y0071345D02*
X0173921Y0071345D01*
X0173921Y0070146D02*
X0163969Y0070146D01*
X0162770Y0068948D02*
X0173921Y0068948D01*
X0173921Y0067749D02*
X0161572Y0067749D01*
X0160373Y0066551D02*
X0173921Y0066551D01*
X0173921Y0065352D02*
X0158724Y0065352D01*
X0157002Y0069402D02*
X0142600Y0069402D01*
X0148120Y0062955D02*
X0173921Y0062955D01*
X0173921Y0064154D02*
X0149393Y0064154D01*
X0142600Y0080598D02*
X0133198Y0090000D01*
X0132600Y0090000D01*
X0123600Y0091000D02*
X0122600Y0090000D01*
X0123600Y0091000D02*
X0123600Y0099402D01*
X0127600Y0103402D01*
X0127600Y0109402D01*
X0112600Y0120598D02*
X0110600Y0122598D01*
X0110600Y0131000D01*
X0117765Y0142057D02*
X0135228Y0142057D01*
X0135724Y0140859D02*
X0130782Y0140859D01*
X0132162Y0139660D02*
X0136717Y0139660D01*
X0137916Y0138462D02*
X0133361Y0138462D01*
X0134559Y0137263D02*
X0139114Y0137263D01*
X0140052Y0136065D02*
X0135758Y0136065D01*
X0136956Y0134866D02*
X0140052Y0134866D01*
X0140052Y0133668D02*
X0138155Y0133668D01*
X0139354Y0132469D02*
X0140052Y0132469D01*
X0146765Y0142057D02*
X0151241Y0142057D01*
X0151241Y0143256D02*
X0145567Y0143256D01*
X0144368Y0144454D02*
X0151734Y0144454D01*
X0152260Y0145653D02*
X0144000Y0145653D01*
X0144000Y0146851D02*
X0153458Y0146851D01*
X0155588Y0148050D02*
X0144000Y0148050D01*
X0144000Y0149248D02*
X0173921Y0149248D01*
X0173921Y0148050D02*
X0159612Y0148050D01*
X0158652Y0149711D02*
X0160596Y0150516D01*
X0162084Y0152004D01*
X0162889Y0153948D01*
X0162889Y0156052D01*
X0162084Y0157996D01*
X0160596Y0159484D01*
X0158652Y0160289D01*
X0156548Y0160289D01*
X0154604Y0159484D01*
X0153116Y0157996D01*
X0152311Y0156052D01*
X0152311Y0153948D01*
X0153116Y0152004D01*
X0154604Y0150516D01*
X0156548Y0149711D01*
X0158652Y0149711D01*
X0160428Y0150447D02*
X0173921Y0150447D01*
X0173921Y0151645D02*
X0161725Y0151645D01*
X0162432Y0152844D02*
X0173921Y0152844D01*
X0173921Y0154042D02*
X0162889Y0154042D01*
X0162889Y0155241D02*
X0173921Y0155241D01*
X0173921Y0156439D02*
X0162729Y0156439D01*
X0162232Y0157638D02*
X0173921Y0157638D01*
X0173921Y0158836D02*
X0161243Y0158836D01*
X0159266Y0160035D02*
X0173921Y0160035D01*
X0173921Y0161233D02*
X0144000Y0161233D01*
X0144000Y0160035D02*
X0155934Y0160035D01*
X0153957Y0158836D02*
X0144000Y0158836D01*
X0144000Y0157638D02*
X0152968Y0157638D01*
X0152471Y0156439D02*
X0144000Y0156439D01*
X0144000Y0155241D02*
X0152311Y0155241D01*
X0152311Y0154042D02*
X0144000Y0154042D01*
X0144000Y0152844D02*
X0152768Y0152844D01*
X0153475Y0151645D02*
X0144000Y0151645D01*
X0144000Y0150447D02*
X0154772Y0150447D01*
X0161742Y0146851D02*
X0173921Y0146851D01*
X0173921Y0145653D02*
X0162940Y0145653D01*
X0163466Y0144454D02*
X0173921Y0144454D01*
X0173921Y0143256D02*
X0163959Y0143256D01*
X0163959Y0142057D02*
X0173921Y0142057D01*
X0173921Y0140859D02*
X0163959Y0140859D01*
X0164587Y0139660D02*
X0173921Y0139660D01*
X0173921Y0138462D02*
X0165083Y0138462D01*
X0165148Y0137263D02*
X0173921Y0137263D01*
X0173921Y0136065D02*
X0165148Y0136065D01*
X0165148Y0134866D02*
X0173921Y0134866D01*
X0173921Y0133668D02*
X0165148Y0133668D01*
X0165148Y0132469D02*
X0173921Y0132469D01*
X0173921Y0131270D02*
X0165148Y0131270D01*
X0165148Y0130072D02*
X0173921Y0130072D01*
X0173921Y0128873D02*
X0164808Y0128873D01*
X0163946Y0127675D02*
X0173921Y0127675D01*
X0173921Y0126476D02*
X0160740Y0126476D01*
X0161939Y0125278D02*
X0173921Y0125278D01*
X0173921Y0124079D02*
X0163137Y0124079D01*
X0164336Y0122881D02*
X0173921Y0122881D01*
X0173921Y0121682D02*
X0164400Y0121682D01*
X0164400Y0120484D02*
X0173921Y0120484D01*
X0173921Y0119285D02*
X0164400Y0119285D01*
X0164400Y0118087D02*
X0173921Y0118087D01*
X0173921Y0116888D02*
X0164105Y0116888D01*
X0162906Y0115690D02*
X0173921Y0115690D01*
X0173921Y0114491D02*
X0162725Y0114491D01*
X0163924Y0113293D02*
X0173921Y0113293D01*
X0173921Y0112094D02*
X0164400Y0112094D01*
X0164400Y0110896D02*
X0173921Y0110896D01*
X0173921Y0109697D02*
X0164400Y0109697D01*
X0164400Y0108499D02*
X0173921Y0108499D01*
X0173921Y0107300D02*
X0164400Y0107300D01*
X0163318Y0106102D02*
X0173921Y0106102D01*
X0173921Y0104903D02*
X0162120Y0104903D01*
X0160921Y0103705D02*
X0173921Y0103705D01*
X0173921Y0100109D02*
X0160713Y0100109D01*
X0161912Y0098911D02*
X0173921Y0098911D01*
X0173921Y0097712D02*
X0163110Y0097712D01*
X0164309Y0096514D02*
X0173921Y0096514D01*
X0158198Y0134000D02*
X0158198Y0141402D01*
X0157600Y0142000D01*
X0144000Y0162432D02*
X0173921Y0162432D01*
X0173921Y0163630D02*
X0144000Y0163630D01*
X0144000Y0164829D02*
X0173921Y0164829D01*
X0173921Y0166027D02*
X0144000Y0166027D01*
X0144000Y0167226D02*
X0173921Y0167226D01*
X0173921Y0168424D02*
X0144000Y0168424D01*
X0144000Y0169623D02*
X0173921Y0169623D01*
X0173921Y0170821D02*
X0144000Y0170821D01*
X0135200Y0168424D02*
X0125756Y0168424D01*
X0126189Y0166027D02*
X0129011Y0166027D01*
X0127812Y0164829D02*
X0127388Y0164829D01*
X0120048Y0167226D02*
X0135200Y0167226D01*
X0127743Y0155241D02*
X0127457Y0155241D01*
X0127026Y0154042D02*
X0126259Y0154042D01*
X0125827Y0152844D02*
X0114000Y0152844D01*
X0114000Y0154042D02*
X0118941Y0154042D01*
X0117743Y0155241D02*
X0114000Y0155241D01*
X0114000Y0156439D02*
X0116544Y0156439D01*
X0115800Y0157638D02*
X0114000Y0157638D01*
X0114000Y0158836D02*
X0115800Y0158836D01*
X0115800Y0160035D02*
X0114000Y0160035D01*
X0114056Y0161233D02*
X0115800Y0161233D01*
X0115800Y0162432D02*
X0115254Y0162432D01*
X0116453Y0163630D02*
X0116614Y0163630D01*
X0117651Y0164829D02*
X0117812Y0164829D01*
X0118850Y0166027D02*
X0119011Y0166027D01*
X0114000Y0151645D02*
X0125800Y0151645D01*
X0125800Y0150447D02*
X0114000Y0150447D01*
X0114000Y0149248D02*
X0125800Y0149248D01*
X0125800Y0148050D02*
X0114000Y0148050D01*
X0114000Y0146851D02*
X0126132Y0146851D01*
X0127331Y0145653D02*
X0114170Y0145653D01*
X0115368Y0144454D02*
X0128529Y0144454D01*
X0129728Y0143256D02*
X0116567Y0143256D01*
X0097600Y0131000D02*
X0097600Y0120598D01*
X0097600Y0109402D02*
X0102600Y0104402D01*
X0102600Y0090000D01*
X0097619Y0083330D02*
X0097581Y0083330D01*
X0096382Y0082132D02*
X0098817Y0082132D01*
X0092600Y0090000D02*
X0092600Y0100000D01*
X0083198Y0109402D01*
X0085600Y0109402D01*
X0085600Y0120598D02*
X0084198Y0122000D01*
X0079600Y0122000D01*
X0075600Y0118000D01*
X0075600Y0109000D01*
X0087600Y0097000D01*
X0087600Y0080000D01*
X0082600Y0075000D01*
X0033600Y0075000D01*
X0029341Y0079734D02*
X0006200Y0079734D01*
X0006200Y0078536D02*
X0028182Y0078536D01*
X0027685Y0077337D02*
X0006200Y0077337D01*
X0006200Y0076139D02*
X0027241Y0076139D01*
X0031307Y0080933D02*
X0006200Y0080933D01*
X0006200Y0082132D02*
X0034905Y0082132D01*
X0034409Y0083330D02*
X0006200Y0083330D01*
X0006200Y0084529D02*
X0034241Y0084529D01*
X0034241Y0085727D02*
X0006200Y0085727D01*
X0006200Y0086926D02*
X0034515Y0086926D01*
X0035011Y0088124D02*
X0006200Y0088124D01*
X0006200Y0089323D02*
X0035930Y0089323D01*
X0036200Y0090521D02*
X0006200Y0090521D01*
X0006200Y0091720D02*
X0035887Y0091720D01*
X0034994Y0092918D02*
X0006200Y0092918D01*
X0006200Y0094117D02*
X0034497Y0094117D01*
X0034241Y0095315D02*
X0006200Y0095315D01*
X0006200Y0096514D02*
X0034241Y0096514D01*
X0034426Y0097712D02*
X0006200Y0097712D01*
X0006200Y0098911D02*
X0034923Y0098911D01*
X0035716Y0100109D02*
X0006200Y0100109D01*
X0006200Y0101308D02*
X0036915Y0101308D01*
X0034783Y0103200D02*
X0040417Y0103200D01*
X0044400Y0107183D01*
X0044400Y0112817D01*
X0042217Y0115000D01*
X0044400Y0117183D01*
X0044400Y0122817D01*
X0040417Y0126800D01*
X0034783Y0126800D01*
X0032600Y0124617D01*
X0030417Y0126800D01*
X0024783Y0126800D01*
X0020800Y0122817D01*
X0020800Y0117183D01*
X0024783Y0113200D01*
X0030417Y0113200D01*
X0032600Y0115383D01*
X0032983Y0115000D01*
X0030800Y0112817D01*
X0030800Y0107183D01*
X0034783Y0103200D01*
X0034279Y0103705D02*
X0006200Y0103705D01*
X0006200Y0104903D02*
X0033080Y0104903D01*
X0031882Y0106102D02*
X0006200Y0106102D01*
X0006200Y0107300D02*
X0030800Y0107300D01*
X0030800Y0108499D02*
X0006200Y0108499D01*
X0006200Y0109697D02*
X0030800Y0109697D01*
X0030800Y0110896D02*
X0006200Y0110896D01*
X0006200Y0112094D02*
X0030800Y0112094D01*
X0030509Y0113293D02*
X0031276Y0113293D01*
X0031708Y0114491D02*
X0032475Y0114491D01*
X0024691Y0113293D02*
X0006200Y0113293D01*
X0006200Y0114491D02*
X0023492Y0114491D01*
X0022294Y0115690D02*
X0006200Y0115690D01*
X0006200Y0116888D02*
X0021095Y0116888D01*
X0020800Y0118087D02*
X0006200Y0118087D01*
X0006200Y0119285D02*
X0020800Y0119285D01*
X0020800Y0120484D02*
X0006200Y0120484D01*
X0006200Y0121682D02*
X0020800Y0121682D01*
X0020864Y0122881D02*
X0006200Y0122881D01*
X0006200Y0124079D02*
X0022063Y0124079D01*
X0023261Y0125278D02*
X0006200Y0125278D01*
X0006200Y0126476D02*
X0024460Y0126476D01*
X0023038Y0127675D02*
X0006200Y0127675D01*
X0006200Y0128873D02*
X0021055Y0128873D01*
X0020310Y0130072D02*
X0006200Y0130072D01*
X0006200Y0131270D02*
X0016815Y0131270D01*
X0015138Y0132469D02*
X0006200Y0132469D01*
X0006200Y0133668D02*
X0014097Y0133668D01*
X0013601Y0134866D02*
X0006200Y0134866D01*
X0006200Y0136065D02*
X0013241Y0136065D01*
X0013241Y0137263D02*
X0006200Y0137263D01*
X0006200Y0138462D02*
X0013322Y0138462D01*
X0013819Y0139660D02*
X0006200Y0139660D01*
X0006200Y0140859D02*
X0014466Y0140859D01*
X0015664Y0142057D02*
X0006200Y0142057D01*
X0006200Y0143256D02*
X0018085Y0143256D01*
X0021115Y0143256D02*
X0028241Y0143256D01*
X0028734Y0144454D02*
X0006200Y0144454D01*
X0006200Y0145653D02*
X0029260Y0145653D01*
X0030458Y0146851D02*
X0006200Y0146851D01*
X0006200Y0148050D02*
X0032588Y0148050D01*
X0030930Y0150016D02*
X0032584Y0151670D01*
X0033480Y0153830D01*
X0033480Y0156170D01*
X0032584Y0158330D01*
X0030930Y0159984D01*
X0028770Y0160880D01*
X0026430Y0160880D01*
X0024270Y0159984D01*
X0022616Y0158330D01*
X0021720Y0156170D01*
X0021720Y0153830D01*
X0022616Y0151670D01*
X0024270Y0150016D01*
X0026430Y0149120D01*
X0028770Y0149120D01*
X0030930Y0150016D01*
X0031362Y0150447D02*
X0041798Y0150447D01*
X0041798Y0151645D02*
X0032560Y0151645D01*
X0033071Y0152844D02*
X0041798Y0152844D01*
X0041798Y0154042D02*
X0033480Y0154042D01*
X0033480Y0155241D02*
X0041798Y0155241D01*
X0041798Y0156439D02*
X0033368Y0156439D01*
X0032871Y0157638D02*
X0041798Y0157638D01*
X0041798Y0158836D02*
X0032079Y0158836D01*
X0030809Y0160035D02*
X0041798Y0160035D01*
X0041798Y0161233D02*
X0006200Y0161233D01*
X0006200Y0160035D02*
X0024391Y0160035D01*
X0023121Y0158836D02*
X0006200Y0158836D01*
X0006200Y0157638D02*
X0022329Y0157638D01*
X0021832Y0156439D02*
X0006200Y0156439D01*
X0006200Y0155241D02*
X0021720Y0155241D01*
X0021720Y0154042D02*
X0006200Y0154042D01*
X0006200Y0152844D02*
X0022129Y0152844D01*
X0022640Y0151645D02*
X0006200Y0151645D01*
X0006200Y0150447D02*
X0023838Y0150447D01*
X0026122Y0149248D02*
X0006200Y0149248D01*
X0006200Y0162432D02*
X0041798Y0162432D01*
X0041798Y0163630D02*
X0006200Y0163630D01*
X0006200Y0164829D02*
X0041798Y0164829D01*
X0040949Y0166027D02*
X0006200Y0166027D01*
X0006200Y0167226D02*
X0039750Y0167226D01*
X0046198Y0167000D02*
X0046198Y0143000D01*
X0039899Y0136701D01*
X0034600Y0142000D01*
X0040466Y0144454D02*
X0041430Y0144454D01*
X0041798Y0145653D02*
X0039940Y0145653D01*
X0038742Y0146851D02*
X0041798Y0146851D01*
X0041798Y0148050D02*
X0036612Y0148050D01*
X0041798Y0149248D02*
X0029078Y0149248D01*
X0025002Y0137000D02*
X0019600Y0137000D01*
X0025002Y0137000D02*
X0027002Y0135000D01*
X0030965Y0127675D02*
X0034235Y0127675D01*
X0034460Y0126476D02*
X0030740Y0126476D01*
X0031939Y0125278D02*
X0033261Y0125278D01*
X0040740Y0126476D02*
X0045741Y0126476D01*
X0045741Y0127675D02*
X0042162Y0127675D01*
X0041939Y0125278D02*
X0045571Y0125278D01*
X0045251Y0124079D02*
X0043137Y0124079D01*
X0044336Y0122881D02*
X0045251Y0122881D01*
X0045251Y0121682D02*
X0044400Y0121682D01*
X0044400Y0120484D02*
X0045251Y0120484D01*
X0045251Y0119285D02*
X0044400Y0119285D01*
X0044400Y0118087D02*
X0045251Y0118087D01*
X0045251Y0116888D02*
X0044105Y0116888D01*
X0042906Y0115690D02*
X0045666Y0115690D01*
X0045741Y0114491D02*
X0042725Y0114491D01*
X0043924Y0113293D02*
X0045251Y0113293D01*
X0045251Y0112094D02*
X0044400Y0112094D01*
X0044400Y0110896D02*
X0045251Y0110896D01*
X0045251Y0109697D02*
X0044400Y0109697D01*
X0044400Y0108499D02*
X0045251Y0108499D01*
X0045251Y0107300D02*
X0044400Y0107300D01*
X0045251Y0106102D02*
X0043318Y0106102D01*
X0042120Y0104903D02*
X0045496Y0104903D01*
X0046224Y0103705D02*
X0040921Y0103705D01*
X0044285Y0101308D02*
X0054471Y0101308D01*
X0055670Y0100109D02*
X0045484Y0100109D01*
X0046277Y0098911D02*
X0056868Y0098911D01*
X0058067Y0097712D02*
X0046774Y0097712D01*
X0046959Y0096514D02*
X0057463Y0096514D01*
X0056797Y0095315D02*
X0046959Y0095315D01*
X0046703Y0094117D02*
X0056301Y0094117D01*
X0056200Y0092918D02*
X0046206Y0092918D01*
X0045313Y0091720D02*
X0056200Y0091720D01*
X0056200Y0090521D02*
X0045000Y0090521D01*
X0045270Y0089323D02*
X0056200Y0089323D01*
X0056200Y0088124D02*
X0046189Y0088124D01*
X0046685Y0086926D02*
X0056200Y0086926D01*
X0056366Y0085727D02*
X0046959Y0085727D01*
X0046959Y0084529D02*
X0056862Y0084529D01*
X0057619Y0083330D02*
X0046791Y0083330D01*
X0046295Y0082132D02*
X0058817Y0082132D01*
X0066382Y0082132D02*
X0068817Y0082132D01*
X0067619Y0083330D02*
X0067581Y0083330D01*
X0072600Y0090000D02*
X0072600Y0095000D01*
X0067600Y0100000D01*
X0062002Y0100000D01*
X0052600Y0109402D01*
X0048164Y0102506D02*
X0006200Y0102506D01*
X0038198Y0135000D02*
X0040198Y0133000D01*
X0067600Y0133000D01*
X0077600Y0143000D01*
X0077600Y0150000D01*
X0082600Y0158000D02*
X0079600Y0161000D01*
X0075600Y0161000D01*
X0082600Y0158000D02*
X0082600Y0135598D01*
X0067600Y0120598D01*
X0067600Y0109402D02*
X0068198Y0109402D01*
X0082600Y0095000D01*
X0082600Y0090000D01*
X0077619Y0083330D02*
X0077581Y0083330D01*
X0076382Y0082132D02*
X0078817Y0082132D01*
X0081112Y0079734D02*
X0044328Y0079734D01*
X0045526Y0080933D02*
X0082310Y0080933D01*
X0078698Y0067749D02*
X0076502Y0067749D01*
X0067152Y0052169D02*
X0066420Y0052169D01*
X0058780Y0052169D02*
X0056420Y0052169D01*
X0074410Y0035390D02*
X0080790Y0035390D01*
X0078395Y0036588D02*
X0076805Y0036588D01*
X0084410Y0035390D02*
X0090790Y0035390D01*
X0088395Y0036588D02*
X0086805Y0036588D01*
X0094410Y0035390D02*
X0100790Y0035390D01*
X0098395Y0036588D02*
X0096805Y0036588D01*
X0104410Y0035390D02*
X0110790Y0035390D01*
X0108395Y0036588D02*
X0106805Y0036588D01*
X0114410Y0035390D02*
X0120790Y0035390D01*
X0118395Y0036588D02*
X0116805Y0036588D01*
X0124410Y0035390D02*
X0130790Y0035390D01*
X0128395Y0036588D02*
X0126805Y0036588D01*
X0134410Y0035390D02*
X0140790Y0035390D01*
X0138395Y0036588D02*
X0136805Y0036588D01*
X0128698Y0067749D02*
X0126502Y0067749D01*
X0123999Y0068948D02*
X0131201Y0068948D01*
X0121201Y0068948D02*
X0113999Y0068948D01*
X0116502Y0067749D02*
X0118698Y0067749D01*
X0111201Y0068948D02*
X0103999Y0068948D01*
X0101201Y0068948D02*
X0093999Y0068948D01*
X0096502Y0067749D02*
X0098698Y0067749D01*
X0106502Y0067749D02*
X0108698Y0067749D01*
X0052600Y0120598D02*
X0052100Y0121098D01*
X0052100Y0127500D01*
X0054600Y0138000D02*
X0056600Y0140000D01*
X0056600Y0148060D01*
X0056800Y0148260D01*
X0056800Y0161740D01*
X0056600Y0161940D01*
X0056600Y0165000D01*
X0061600Y0170000D01*
X0094600Y0170000D01*
X0099600Y0175000D01*
X0094600Y0180000D02*
X0094002Y0179402D01*
X0072600Y0179402D01*
X0072198Y0179402D01*
X0061600Y0190000D01*
X0059444Y0195990D02*
X0059281Y0195990D01*
X0057773Y0197189D02*
X0066882Y0197189D01*
X0066385Y0198387D02*
X0056000Y0198387D01*
X0056000Y0199586D02*
X0066241Y0199586D01*
X0066241Y0200784D02*
X0056000Y0200784D01*
X0056000Y0201983D02*
X0066538Y0201983D01*
X0067035Y0203181D02*
X0056000Y0203181D01*
X0056000Y0204380D02*
X0067987Y0204380D01*
X0069450Y0205578D02*
X0056000Y0205578D01*
X0056000Y0206777D02*
X0084760Y0206777D01*
X0083562Y0205578D02*
X0075750Y0205578D01*
X0077213Y0204380D02*
X0082363Y0204380D01*
X0081165Y0203181D02*
X0078165Y0203181D01*
X0078662Y0201983D02*
X0080800Y0201983D01*
X0080800Y0200784D02*
X0078959Y0200784D01*
X0078959Y0199586D02*
X0080800Y0199586D01*
X0080800Y0198387D02*
X0078815Y0198387D01*
X0078318Y0197189D02*
X0080800Y0197189D01*
X0081993Y0195990D02*
X0079281Y0195990D01*
X0079830Y0194792D02*
X0083192Y0194792D01*
X0084390Y0193593D02*
X0079949Y0193593D01*
X0079949Y0192395D02*
X0090800Y0192395D01*
X0090810Y0193593D02*
X0091576Y0193593D01*
X0092008Y0194792D02*
X0092775Y0194792D01*
X0090800Y0191196D02*
X0079949Y0191196D01*
X0079949Y0189998D02*
X0090800Y0189998D01*
X0090800Y0188799D02*
X0079949Y0188799D01*
X0079949Y0187601D02*
X0090800Y0187601D01*
X0091581Y0186402D02*
X0079829Y0186402D01*
X0079278Y0185203D02*
X0090810Y0185203D01*
X0089612Y0184005D02*
X0079660Y0184005D01*
X0072198Y0179402D02*
X0052600Y0179402D01*
X0042600Y0179402D01*
X0038198Y0175000D01*
X0046198Y0167000D01*
X0050598Y0153200D02*
X0052400Y0153200D01*
X0052400Y0149418D01*
X0052200Y0148935D01*
X0052200Y0143889D01*
X0050998Y0143391D01*
X0050598Y0142991D01*
X0050598Y0143875D01*
X0050598Y0153200D01*
X0050598Y0152844D02*
X0052400Y0152844D01*
X0052400Y0151645D02*
X0050598Y0151645D01*
X0050598Y0150447D02*
X0052400Y0150447D01*
X0052330Y0149248D02*
X0050598Y0149248D01*
X0050598Y0148050D02*
X0052200Y0148050D01*
X0052200Y0146851D02*
X0050598Y0146851D01*
X0050598Y0145653D02*
X0052200Y0145653D01*
X0052200Y0144454D02*
X0050598Y0144454D01*
X0050598Y0143256D02*
X0050863Y0143256D01*
X0039899Y0136701D02*
X0038198Y0135000D01*
X0032701Y0168424D02*
X0032499Y0168424D01*
X0023600Y0178000D02*
X0021600Y0178000D01*
X0018600Y0175000D01*
X0015043Y0180409D02*
X0006200Y0180409D01*
X0006200Y0179211D02*
X0013818Y0179211D01*
X0012965Y0178012D02*
X0006200Y0178012D01*
X0006200Y0176814D02*
X0012468Y0176814D01*
X0012241Y0175615D02*
X0006200Y0175615D01*
X0006200Y0174417D02*
X0012241Y0174417D01*
X0012455Y0173218D02*
X0006200Y0173218D01*
X0006200Y0172020D02*
X0012951Y0172020D01*
X0013786Y0170821D02*
X0006200Y0170821D01*
X0006200Y0169623D02*
X0014984Y0169623D01*
X0021504Y0168424D02*
X0006200Y0168424D01*
X0006200Y0181608D02*
X0018985Y0181608D01*
X0024390Y0193593D02*
X0006200Y0193593D01*
X0006200Y0192395D02*
X0030800Y0192395D01*
X0030810Y0193593D02*
X0031576Y0193593D01*
X0032008Y0194792D02*
X0032775Y0194792D01*
X0030800Y0191196D02*
X0006200Y0191196D01*
X0006200Y0189998D02*
X0030800Y0189998D01*
X0030800Y0188799D02*
X0006200Y0188799D01*
X0006200Y0187601D02*
X0030800Y0187601D01*
X0031581Y0186402D02*
X0006200Y0186402D01*
X0006200Y0185203D02*
X0032780Y0185203D01*
X0033978Y0184005D02*
X0006200Y0184005D01*
X0006200Y0182806D02*
X0039782Y0182806D01*
X0041222Y0184005D02*
X0045540Y0184005D01*
X0045922Y0185203D02*
X0042420Y0185203D01*
X0043619Y0186402D02*
X0045371Y0186402D01*
X0045251Y0187601D02*
X0044400Y0187601D01*
X0044400Y0188799D02*
X0045251Y0188799D01*
X0045251Y0189998D02*
X0044400Y0189998D01*
X0044400Y0191196D02*
X0045251Y0191196D01*
X0045251Y0192395D02*
X0044400Y0192395D01*
X0043624Y0193593D02*
X0045251Y0193593D01*
X0045370Y0194792D02*
X0042425Y0194792D01*
X0043207Y0195990D02*
X0045919Y0195990D01*
X0047200Y0197189D02*
X0044400Y0197189D01*
X0044400Y0198387D02*
X0047200Y0198387D01*
X0047200Y0199586D02*
X0044400Y0199586D01*
X0044400Y0200784D02*
X0047200Y0200784D01*
X0045624Y0201983D02*
X0044400Y0201983D01*
X0044426Y0203181D02*
X0044035Y0203181D01*
X0043802Y0204380D02*
X0042837Y0204380D01*
X0043306Y0205578D02*
X0041638Y0205578D01*
X0040440Y0206777D02*
X0043241Y0206777D01*
X0043241Y0207975D02*
X0006200Y0207975D01*
X0006200Y0206777D02*
X0024760Y0206777D01*
X0023562Y0205578D02*
X0006200Y0205578D01*
X0006200Y0204380D02*
X0022363Y0204380D01*
X0021165Y0203181D02*
X0006200Y0203181D01*
X0006200Y0201983D02*
X0020800Y0201983D01*
X0020800Y0200784D02*
X0006200Y0200784D01*
X0006200Y0199586D02*
X0020800Y0199586D01*
X0020800Y0198387D02*
X0006200Y0198387D01*
X0006200Y0197189D02*
X0020800Y0197189D01*
X0021993Y0195990D02*
X0006200Y0195990D01*
X0006200Y0194792D02*
X0023192Y0194792D01*
X0031638Y0205578D02*
X0033562Y0205578D01*
X0034760Y0206777D02*
X0030440Y0206777D01*
X0043617Y0209174D02*
X0006200Y0209174D01*
X0032466Y0181608D02*
X0032734Y0181608D01*
X0051600Y0191598D02*
X0051600Y0207000D01*
X0049600Y0207000D01*
X0055583Y0209174D02*
X0107888Y0209174D01*
X0105582Y0207975D02*
X0055959Y0207975D01*
X0063756Y0195990D02*
X0065919Y0195990D01*
X0072600Y0200000D02*
X0072600Y0190598D01*
X0090440Y0206777D02*
X0094760Y0206777D01*
X0093562Y0205578D02*
X0091638Y0205578D01*
X0100440Y0206777D02*
X0104384Y0206777D01*
X0103785Y0205578D02*
X0101638Y0205578D01*
X0102837Y0204380D02*
X0103288Y0204380D01*
X0109600Y0203000D02*
X0113600Y0199000D01*
X0113600Y0193598D01*
X0112600Y0192598D01*
X0121797Y0183402D01*
X0112600Y0181402D02*
X0106600Y0175402D01*
X0106600Y0170000D01*
X0132600Y0192598D02*
X0132600Y0200000D01*
X0137213Y0204380D02*
X0142363Y0204380D01*
X0143562Y0205578D02*
X0135750Y0205578D01*
X0138165Y0203181D02*
X0141165Y0203181D01*
X0140800Y0201983D02*
X0138662Y0201983D01*
X0138959Y0200784D02*
X0140800Y0200784D01*
X0140800Y0199586D02*
X0138959Y0199586D01*
X0138884Y0198387D02*
X0140800Y0198387D01*
X0140800Y0197189D02*
X0139666Y0197189D01*
X0139949Y0195990D02*
X0141993Y0195990D01*
X0143192Y0194792D02*
X0139949Y0194792D01*
X0139949Y0193593D02*
X0144390Y0193593D01*
X0139949Y0192395D02*
X0150800Y0192395D01*
X0150810Y0193593D02*
X0151576Y0193593D01*
X0152008Y0194792D02*
X0152775Y0194792D01*
X0150800Y0191196D02*
X0139949Y0191196D01*
X0139949Y0189998D02*
X0150800Y0189998D01*
X0150800Y0188799D02*
X0139949Y0188799D01*
X0139497Y0187601D02*
X0150800Y0187601D01*
X0151581Y0186402D02*
X0139496Y0186402D01*
X0139949Y0185203D02*
X0152780Y0185203D01*
X0150480Y0184005D02*
X0139949Y0184005D01*
X0140016Y0182806D02*
X0148413Y0182806D01*
X0173921Y0207975D02*
X0113618Y0207975D01*
X0111312Y0209174D02*
X0173921Y0209174D01*
X0052600Y0190598D02*
X0051600Y0191598D01*
X0040600Y0096000D02*
X0040600Y0085000D01*
M02*
