G75*
%MOIN*%
%OFA0B0*%
%FSLAX25Y25*%
%IPPOS*%
%LPD*%
%AMOC8*
5,1,8,0,0,1.08239X$1,22.5*
%
%ADD10C,0.06000*%
%ADD11C,0.06000*%
%ADD12OC8,0.06000*%
%ADD13C,0.05200*%
%ADD14C,0.01200*%
%ADD15C,0.05118*%
D10*
X0072600Y0042000D02*
X0072600Y0048000D01*
X0082600Y0048000D02*
X0082600Y0042000D01*
X0092600Y0042000D02*
X0092600Y0048000D01*
X0102600Y0048000D02*
X0102600Y0042000D01*
X0112600Y0042000D02*
X0112600Y0048000D01*
X0122600Y0048000D02*
X0122600Y0042000D01*
X0132600Y0042000D02*
X0132600Y0048000D01*
X0142600Y0048000D02*
X0142600Y0042000D01*
X0152600Y0042000D02*
X0152600Y0048000D01*
D11*
X0147600Y0110000D03*
X0122600Y0150000D03*
X0147600Y0190000D03*
X0087600Y0190000D03*
X0052600Y0150000D03*
X0027600Y0110000D03*
X0027600Y0190000D03*
D12*
X0027600Y0200000D03*
X0037600Y0200000D03*
X0037600Y0190000D03*
X0052600Y0160000D03*
X0062600Y0160000D03*
X0062600Y0150000D03*
X0037600Y0120000D03*
X0037600Y0110000D03*
X0027600Y0120000D03*
X0087600Y0200000D03*
X0097600Y0200000D03*
X0097600Y0190000D03*
X0122600Y0160000D03*
X0132600Y0160000D03*
X0132600Y0150000D03*
X0147600Y0120000D03*
X0157600Y0120000D03*
X0157600Y0110000D03*
X0157600Y0190000D03*
X0157600Y0200000D03*
X0147600Y0200000D03*
D13*
X0132600Y0092600D02*
X0132600Y0087400D01*
X0122600Y0087400D02*
X0122600Y0092600D01*
X0112600Y0092600D02*
X0112600Y0087400D01*
X0102600Y0087400D02*
X0102600Y0092600D01*
X0092600Y0092600D02*
X0092600Y0087400D01*
X0082600Y0087400D02*
X0082600Y0092600D01*
X0072600Y0092600D02*
X0072600Y0087400D01*
X0062600Y0087400D02*
X0062600Y0092600D01*
X0052600Y0092600D02*
X0052600Y0087400D01*
X0052600Y0062600D02*
X0052600Y0057400D01*
X0062600Y0057400D02*
X0062600Y0062600D01*
X0072600Y0062600D02*
X0072600Y0057400D01*
X0082600Y0057400D02*
X0082600Y0062600D01*
X0092600Y0062600D02*
X0092600Y0057400D01*
X0102600Y0057400D02*
X0102600Y0062600D01*
X0112600Y0062600D02*
X0112600Y0057400D01*
X0122600Y0057400D02*
X0122600Y0062600D01*
X0132600Y0062600D02*
X0132600Y0057400D01*
D14*
X0006200Y0031600D02*
X0006200Y0210101D01*
X0046536Y0210101D01*
X0045905Y0209469D01*
X0045876Y0209400D01*
X0030123Y0209400D01*
X0029241Y0209035D01*
X0026241Y0206035D01*
X0025565Y0205359D01*
X0025200Y0204477D01*
X0025200Y0204388D01*
X0022800Y0201988D01*
X0022800Y0198012D01*
X0023412Y0197400D01*
X0016123Y0197400D01*
X0015241Y0197035D01*
X0007241Y0189035D01*
X0006565Y0188359D01*
X0006200Y0187477D01*
X0006200Y0098523D01*
X0006565Y0097641D01*
X0029241Y0074965D01*
X0029241Y0074133D01*
X0029905Y0072531D01*
X0031131Y0071305D01*
X0032733Y0070641D01*
X0034467Y0070641D01*
X0036069Y0071305D01*
X0037295Y0072531D01*
X0037959Y0074133D01*
X0037959Y0075867D01*
X0037295Y0077469D01*
X0036069Y0078695D01*
X0034467Y0079359D01*
X0032733Y0079359D01*
X0031957Y0079037D01*
X0011000Y0099994D01*
X0011000Y0186006D01*
X0017594Y0192600D01*
X0023803Y0192600D01*
X0023666Y0192411D01*
X0023337Y0191766D01*
X0023113Y0191077D01*
X0023006Y0190400D01*
X0027200Y0190400D01*
X0027200Y0189600D01*
X0028000Y0189600D01*
X0028000Y0190400D01*
X0032194Y0190400D01*
X0032087Y0191077D01*
X0031863Y0191766D01*
X0031534Y0192411D01*
X0031397Y0192600D01*
X0033077Y0192600D01*
X0033648Y0192836D01*
X0032800Y0191988D01*
X0032800Y0188012D01*
X0035612Y0185200D01*
X0039588Y0185200D01*
X0041988Y0187600D01*
X0057876Y0187600D01*
X0057905Y0187531D01*
X0059131Y0186305D01*
X0060733Y0185641D01*
X0062467Y0185641D01*
X0064069Y0186305D01*
X0065295Y0187531D01*
X0065959Y0189133D01*
X0065959Y0190867D01*
X0065295Y0192469D01*
X0064069Y0193695D01*
X0062467Y0194359D01*
X0060733Y0194359D01*
X0059131Y0193695D01*
X0057905Y0192469D01*
X0057876Y0192400D01*
X0041988Y0192400D01*
X0039588Y0194800D01*
X0035794Y0194800D01*
X0036194Y0195200D01*
X0039588Y0195200D01*
X0042400Y0198012D01*
X0042400Y0201988D01*
X0039788Y0204600D01*
X0045876Y0204600D01*
X0045905Y0204531D01*
X0047131Y0203305D01*
X0048733Y0202641D01*
X0050467Y0202641D01*
X0052069Y0203305D01*
X0053295Y0204531D01*
X0053959Y0206133D01*
X0053959Y0207867D01*
X0053295Y0209469D01*
X0052664Y0210101D01*
X0098307Y0210101D01*
X0095565Y0207359D01*
X0095200Y0206477D01*
X0095200Y0204388D01*
X0092800Y0201988D01*
X0092800Y0198012D01*
X0095612Y0195200D01*
X0098406Y0195200D01*
X0098006Y0194800D01*
X0095612Y0194800D01*
X0092800Y0191988D01*
X0092800Y0188012D01*
X0095200Y0185612D01*
X0095200Y0184359D01*
X0093733Y0184359D01*
X0092131Y0183695D01*
X0090905Y0182469D01*
X0090241Y0180867D01*
X0090241Y0179133D01*
X0090356Y0178855D01*
X0090200Y0178477D01*
X0090200Y0168523D01*
X0090565Y0167641D01*
X0091241Y0166965D01*
X0105241Y0152965D01*
X0106123Y0152600D01*
X0118803Y0152600D01*
X0118666Y0152411D01*
X0118337Y0151766D01*
X0118113Y0151077D01*
X0118006Y0150400D01*
X0122200Y0150400D01*
X0122200Y0149600D01*
X0123000Y0149600D01*
X0123000Y0150400D01*
X0127194Y0150400D01*
X0127087Y0151077D01*
X0126863Y0151766D01*
X0126534Y0152411D01*
X0126397Y0152600D01*
X0126606Y0152600D01*
X0127800Y0151406D01*
X0127800Y0148012D01*
X0130612Y0145200D01*
X0134588Y0145200D01*
X0137400Y0148012D01*
X0137400Y0151988D01*
X0134588Y0154800D01*
X0131194Y0154800D01*
X0130794Y0155200D01*
X0134588Y0155200D01*
X0137400Y0158012D01*
X0137400Y0161988D01*
X0135000Y0164388D01*
X0135000Y0171477D01*
X0134635Y0172359D01*
X0133959Y0173035D01*
X0130959Y0176035D01*
X0130077Y0176400D01*
X0126324Y0176400D01*
X0126295Y0176469D01*
X0125069Y0177695D01*
X0123467Y0178359D01*
X0121733Y0178359D01*
X0120131Y0177695D01*
X0118905Y0176469D01*
X0118241Y0174867D01*
X0118241Y0173133D01*
X0118905Y0171531D01*
X0120131Y0170305D01*
X0121733Y0169641D01*
X0123467Y0169641D01*
X0125069Y0170305D01*
X0126295Y0171531D01*
X0126324Y0171600D01*
X0128606Y0171600D01*
X0130200Y0170006D01*
X0130200Y0164388D01*
X0127800Y0161988D01*
X0127800Y0158012D01*
X0128648Y0157164D01*
X0128077Y0157400D01*
X0126788Y0157400D01*
X0127400Y0158012D01*
X0127400Y0161988D01*
X0124588Y0164800D01*
X0120612Y0164800D01*
X0118212Y0162400D01*
X0114594Y0162400D01*
X0109879Y0167115D01*
X0110295Y0167531D01*
X0110959Y0169133D01*
X0110959Y0170867D01*
X0110295Y0172469D01*
X0109069Y0173695D01*
X0107467Y0174359D01*
X0105733Y0174359D01*
X0104131Y0173695D01*
X0103528Y0173093D01*
X0103959Y0174133D01*
X0103959Y0175867D01*
X0103930Y0175936D01*
X0123635Y0195641D01*
X0124000Y0196523D01*
X0124000Y0205477D01*
X0123635Y0206359D01*
X0122959Y0207035D01*
X0119893Y0210101D01*
X0173921Y0210101D01*
X0173921Y0186667D01*
X0173635Y0187359D01*
X0162400Y0198594D01*
X0162400Y0201988D01*
X0159588Y0204800D01*
X0155612Y0204800D01*
X0152800Y0201988D01*
X0152800Y0198012D01*
X0155612Y0195200D01*
X0159006Y0195200D01*
X0159406Y0194800D01*
X0155612Y0194800D01*
X0152800Y0191988D01*
X0152800Y0188012D01*
X0155200Y0185612D01*
X0155200Y0183994D01*
X0153536Y0182330D01*
X0153467Y0182359D01*
X0151733Y0182359D01*
X0150131Y0181695D01*
X0148905Y0180469D01*
X0148241Y0178867D01*
X0148241Y0177133D01*
X0148905Y0175531D01*
X0150131Y0174305D01*
X0151733Y0173641D01*
X0153467Y0173641D01*
X0155069Y0174305D01*
X0156295Y0175531D01*
X0156959Y0177133D01*
X0156959Y0178867D01*
X0156930Y0178936D01*
X0159635Y0181641D01*
X0160000Y0182523D01*
X0160000Y0185612D01*
X0162400Y0188012D01*
X0162400Y0191806D01*
X0169200Y0185006D01*
X0169200Y0081994D01*
X0165606Y0078400D01*
X0158324Y0078400D01*
X0158295Y0078469D01*
X0157069Y0079695D01*
X0155467Y0080359D01*
X0153733Y0080359D01*
X0152131Y0079695D01*
X0150905Y0078469D01*
X0150241Y0076867D01*
X0150241Y0075133D01*
X0150905Y0073531D01*
X0152131Y0072305D01*
X0153733Y0071641D01*
X0155467Y0071641D01*
X0157069Y0072305D01*
X0158295Y0073531D01*
X0158324Y0073600D01*
X0167077Y0073600D01*
X0167959Y0073965D01*
X0168635Y0074641D01*
X0173635Y0079641D01*
X0173921Y0080333D01*
X0173921Y0032321D01*
X0173200Y0031600D01*
X0136594Y0031600D01*
X0142194Y0037200D01*
X0143555Y0037200D01*
X0145319Y0037931D01*
X0146669Y0039281D01*
X0147400Y0041045D01*
X0147400Y0048955D01*
X0146669Y0050719D01*
X0145319Y0052069D01*
X0143555Y0052800D01*
X0141645Y0052800D01*
X0139881Y0052069D01*
X0138531Y0050719D01*
X0137800Y0048955D01*
X0137800Y0041045D01*
X0138225Y0040019D01*
X0133606Y0035400D01*
X0068594Y0035400D01*
X0055000Y0048994D01*
X0055000Y0053632D01*
X0055092Y0053670D01*
X0056330Y0054908D01*
X0057000Y0056525D01*
X0057000Y0063475D01*
X0056330Y0065092D01*
X0055092Y0066330D01*
X0053475Y0067000D01*
X0051725Y0067000D01*
X0050108Y0066330D01*
X0049886Y0066108D01*
X0043000Y0072994D01*
X0043000Y0081276D01*
X0043069Y0081305D01*
X0044295Y0082531D01*
X0044959Y0084133D01*
X0044959Y0085867D01*
X0044295Y0087469D01*
X0043069Y0088695D01*
X0041467Y0089359D01*
X0039733Y0089359D01*
X0038131Y0088695D01*
X0036905Y0087469D01*
X0036241Y0085867D01*
X0036241Y0084133D01*
X0036905Y0082531D01*
X0038131Y0081305D01*
X0038200Y0081276D01*
X0038200Y0071523D01*
X0038565Y0070641D01*
X0048200Y0061006D01*
X0048200Y0056525D01*
X0048870Y0054908D01*
X0050108Y0053670D01*
X0050200Y0053632D01*
X0050200Y0047523D01*
X0050565Y0046641D01*
X0065565Y0031641D01*
X0065606Y0031600D01*
X0006200Y0031600D01*
X0006200Y0031794D02*
X0065412Y0031794D01*
X0064213Y0032993D02*
X0006200Y0032993D01*
X0006200Y0034191D02*
X0063015Y0034191D01*
X0061816Y0035390D02*
X0006200Y0035390D01*
X0006200Y0036588D02*
X0060618Y0036588D01*
X0059419Y0037787D02*
X0006200Y0037787D01*
X0006200Y0038985D02*
X0058221Y0038985D01*
X0057022Y0040184D02*
X0006200Y0040184D01*
X0006200Y0041382D02*
X0055824Y0041382D01*
X0054625Y0042581D02*
X0006200Y0042581D01*
X0006200Y0043779D02*
X0053427Y0043779D01*
X0052228Y0044978D02*
X0006200Y0044978D01*
X0006200Y0046176D02*
X0051030Y0046176D01*
X0050261Y0047375D02*
X0006200Y0047375D01*
X0006200Y0048573D02*
X0050200Y0048573D01*
X0050200Y0049772D02*
X0006200Y0049772D01*
X0006200Y0050970D02*
X0050200Y0050970D01*
X0050200Y0052169D02*
X0006200Y0052169D01*
X0006200Y0053367D02*
X0050200Y0053367D01*
X0049212Y0054566D02*
X0006200Y0054566D01*
X0006200Y0055764D02*
X0048515Y0055764D01*
X0048200Y0056963D02*
X0006200Y0056963D01*
X0006200Y0058161D02*
X0048200Y0058161D01*
X0048200Y0059360D02*
X0006200Y0059360D01*
X0006200Y0060558D02*
X0048200Y0060558D01*
X0047449Y0061757D02*
X0006200Y0061757D01*
X0006200Y0062955D02*
X0046251Y0062955D01*
X0045052Y0064154D02*
X0006200Y0064154D01*
X0006200Y0065352D02*
X0043854Y0065352D01*
X0042655Y0066551D02*
X0006200Y0066551D01*
X0006200Y0067749D02*
X0041456Y0067749D01*
X0040258Y0068948D02*
X0006200Y0068948D01*
X0006200Y0070146D02*
X0039059Y0070146D01*
X0038274Y0071345D02*
X0036110Y0071345D01*
X0037301Y0072543D02*
X0038200Y0072543D01*
X0038200Y0073742D02*
X0037797Y0073742D01*
X0037959Y0074940D02*
X0038200Y0074940D01*
X0038200Y0076139D02*
X0037846Y0076139D01*
X0038200Y0077337D02*
X0037350Y0077337D01*
X0038200Y0078536D02*
X0036229Y0078536D01*
X0038200Y0079734D02*
X0031260Y0079734D01*
X0030061Y0080933D02*
X0038200Y0080933D01*
X0037304Y0082132D02*
X0028863Y0082132D01*
X0027664Y0083330D02*
X0036573Y0083330D01*
X0036241Y0084529D02*
X0026466Y0084529D01*
X0025267Y0085727D02*
X0036241Y0085727D01*
X0036679Y0086926D02*
X0024069Y0086926D01*
X0022870Y0088124D02*
X0037559Y0088124D01*
X0037600Y0090000D02*
X0027600Y0100000D01*
X0027600Y0110000D01*
X0022600Y0110000D01*
X0012600Y0120000D01*
X0012600Y0139000D01*
X0016600Y0143000D01*
X0028600Y0143000D01*
X0035600Y0150000D01*
X0052600Y0150000D01*
X0052600Y0149000D01*
X0061600Y0140000D01*
X0082600Y0140000D01*
X0087600Y0145000D01*
X0117600Y0145000D01*
X0122600Y0150000D01*
X0132600Y0140000D01*
X0132600Y0135000D01*
X0132600Y0120000D01*
X0142600Y0110000D01*
X0147600Y0110000D01*
X0147600Y0055000D01*
X0153600Y0049000D01*
X0153600Y0046000D01*
X0152600Y0045000D01*
X0150600Y0047000D01*
X0152200Y0047375D02*
X0153000Y0047375D01*
X0153000Y0048573D02*
X0152200Y0048573D01*
X0152200Y0049772D02*
X0153000Y0049772D01*
X0153000Y0050970D02*
X0152200Y0050970D01*
X0152200Y0052169D02*
X0153000Y0052169D01*
X0153000Y0052594D02*
X0153000Y0045400D01*
X0152200Y0045400D01*
X0152200Y0052594D01*
X0151523Y0052487D01*
X0150834Y0052263D01*
X0150189Y0051934D01*
X0149603Y0051509D01*
X0149091Y0050997D01*
X0148666Y0050411D01*
X0148337Y0049766D01*
X0148113Y0049077D01*
X0148000Y0048362D01*
X0148000Y0045400D01*
X0152200Y0045400D01*
X0152200Y0044600D01*
X0148000Y0044600D01*
X0148000Y0041638D01*
X0148113Y0040923D01*
X0148337Y0040234D01*
X0148666Y0039589D01*
X0149091Y0039003D01*
X0149603Y0038491D01*
X0150189Y0038066D01*
X0150834Y0037737D01*
X0151523Y0037513D01*
X0152200Y0037406D01*
X0152200Y0044600D01*
X0153000Y0044600D01*
X0153000Y0045400D01*
X0157200Y0045400D01*
X0157200Y0048362D01*
X0157087Y0049077D01*
X0156863Y0049766D01*
X0156534Y0050411D01*
X0156109Y0050997D01*
X0155597Y0051509D01*
X0155011Y0051934D01*
X0154366Y0052263D01*
X0153677Y0052487D01*
X0153000Y0052594D01*
X0154551Y0052169D02*
X0173921Y0052169D01*
X0173921Y0053367D02*
X0135000Y0053367D01*
X0135000Y0053632D02*
X0135092Y0053670D01*
X0136330Y0054908D01*
X0137000Y0056525D01*
X0137000Y0063475D01*
X0136330Y0065092D01*
X0135092Y0066330D01*
X0133475Y0067000D01*
X0131725Y0067000D01*
X0130108Y0066330D01*
X0128870Y0065092D01*
X0128200Y0063475D01*
X0128200Y0056525D01*
X0128870Y0054908D01*
X0130108Y0053670D01*
X0130200Y0053632D01*
X0130200Y0052201D01*
X0129881Y0052069D01*
X0128531Y0050719D01*
X0127800Y0048955D01*
X0127800Y0041045D01*
X0128531Y0039281D01*
X0129881Y0037931D01*
X0131645Y0037200D01*
X0133555Y0037200D01*
X0135319Y0037931D01*
X0136669Y0039281D01*
X0137400Y0041045D01*
X0137400Y0048955D01*
X0136669Y0050719D01*
X0135319Y0052069D01*
X0135000Y0052201D01*
X0135000Y0053632D01*
X0135988Y0054566D02*
X0173921Y0054566D01*
X0173921Y0055764D02*
X0136685Y0055764D01*
X0137000Y0056963D02*
X0173921Y0056963D01*
X0173921Y0058161D02*
X0137000Y0058161D01*
X0137000Y0059360D02*
X0173921Y0059360D01*
X0173921Y0060558D02*
X0137000Y0060558D01*
X0137000Y0061757D02*
X0173921Y0061757D01*
X0173921Y0062955D02*
X0137000Y0062955D01*
X0136719Y0064154D02*
X0173921Y0064154D01*
X0173921Y0065352D02*
X0136070Y0065352D01*
X0134559Y0066551D02*
X0173921Y0066551D01*
X0173921Y0067749D02*
X0048245Y0067749D01*
X0049443Y0066551D02*
X0050641Y0066551D01*
X0054559Y0066551D02*
X0060641Y0066551D01*
X0060108Y0066330D02*
X0058870Y0065092D01*
X0058200Y0063475D01*
X0058200Y0056525D01*
X0058870Y0054908D01*
X0060108Y0053670D01*
X0061725Y0053000D01*
X0063475Y0053000D01*
X0065092Y0053670D01*
X0066330Y0054908D01*
X0067000Y0056525D01*
X0067000Y0063475D01*
X0066330Y0065092D01*
X0065092Y0066330D01*
X0063475Y0067000D01*
X0061725Y0067000D01*
X0060108Y0066330D01*
X0059130Y0065352D02*
X0056070Y0065352D01*
X0056719Y0064154D02*
X0058481Y0064154D01*
X0058200Y0062955D02*
X0057000Y0062955D01*
X0057000Y0061757D02*
X0058200Y0061757D01*
X0058200Y0060558D02*
X0057000Y0060558D01*
X0057000Y0059360D02*
X0058200Y0059360D01*
X0058200Y0058161D02*
X0057000Y0058161D01*
X0057000Y0056963D02*
X0058200Y0056963D01*
X0058515Y0055764D02*
X0056685Y0055764D01*
X0055988Y0054566D02*
X0059212Y0054566D01*
X0060838Y0053367D02*
X0055000Y0053367D01*
X0055000Y0052169D02*
X0070121Y0052169D01*
X0070200Y0052201D02*
X0069881Y0052069D01*
X0068531Y0050719D01*
X0067800Y0048955D01*
X0067800Y0041045D01*
X0068531Y0039281D01*
X0069881Y0037931D01*
X0071645Y0037200D01*
X0073555Y0037200D01*
X0075319Y0037931D01*
X0076669Y0039281D01*
X0077400Y0041045D01*
X0077400Y0048955D01*
X0076669Y0050719D01*
X0075319Y0052069D01*
X0075000Y0052201D01*
X0075000Y0053632D01*
X0075092Y0053670D01*
X0076330Y0054908D01*
X0077000Y0056525D01*
X0077000Y0063475D01*
X0076330Y0065092D01*
X0075092Y0066330D01*
X0073475Y0067000D01*
X0071725Y0067000D01*
X0070108Y0066330D01*
X0068870Y0065092D01*
X0068200Y0063475D01*
X0068200Y0056525D01*
X0068870Y0054908D01*
X0070108Y0053670D01*
X0070200Y0053632D01*
X0070200Y0052201D01*
X0070200Y0053367D02*
X0064362Y0053367D01*
X0065988Y0054566D02*
X0069212Y0054566D01*
X0068515Y0055764D02*
X0066685Y0055764D01*
X0067000Y0056963D02*
X0068200Y0056963D01*
X0068200Y0058161D02*
X0067000Y0058161D01*
X0067000Y0059360D02*
X0068200Y0059360D01*
X0068200Y0060558D02*
X0067000Y0060558D01*
X0067000Y0061757D02*
X0068200Y0061757D01*
X0068200Y0062955D02*
X0067000Y0062955D01*
X0066719Y0064154D02*
X0068481Y0064154D01*
X0069130Y0065352D02*
X0066070Y0065352D01*
X0064559Y0066551D02*
X0070641Y0066551D01*
X0074559Y0066551D02*
X0080641Y0066551D01*
X0080108Y0066330D02*
X0078870Y0065092D01*
X0078200Y0063475D01*
X0078200Y0056525D01*
X0078870Y0054908D01*
X0080108Y0053670D01*
X0080200Y0053632D01*
X0080200Y0052201D01*
X0079881Y0052069D01*
X0078531Y0050719D01*
X0077800Y0048955D01*
X0077800Y0041045D01*
X0078531Y0039281D01*
X0079881Y0037931D01*
X0081645Y0037200D01*
X0083555Y0037200D01*
X0085319Y0037931D01*
X0086669Y0039281D01*
X0087400Y0041045D01*
X0087400Y0048955D01*
X0086669Y0050719D01*
X0085319Y0052069D01*
X0085000Y0052201D01*
X0085000Y0053632D01*
X0085092Y0053670D01*
X0086330Y0054908D01*
X0087000Y0056525D01*
X0087000Y0063475D01*
X0086330Y0065092D01*
X0085092Y0066330D01*
X0083475Y0067000D01*
X0081725Y0067000D01*
X0080108Y0066330D01*
X0079130Y0065352D02*
X0076070Y0065352D01*
X0076719Y0064154D02*
X0078481Y0064154D01*
X0078200Y0062955D02*
X0077000Y0062955D01*
X0077000Y0061757D02*
X0078200Y0061757D01*
X0078200Y0060558D02*
X0077000Y0060558D01*
X0077000Y0059360D02*
X0078200Y0059360D01*
X0078200Y0058161D02*
X0077000Y0058161D01*
X0077000Y0056963D02*
X0078200Y0056963D01*
X0078515Y0055764D02*
X0076685Y0055764D01*
X0075988Y0054566D02*
X0079212Y0054566D01*
X0080200Y0053367D02*
X0075000Y0053367D01*
X0075079Y0052169D02*
X0080121Y0052169D01*
X0078782Y0050970D02*
X0076418Y0050970D01*
X0077062Y0049772D02*
X0078138Y0049772D01*
X0077800Y0048573D02*
X0077400Y0048573D01*
X0077400Y0047375D02*
X0077800Y0047375D01*
X0077800Y0046176D02*
X0077400Y0046176D01*
X0077400Y0044978D02*
X0077800Y0044978D01*
X0077800Y0043779D02*
X0077400Y0043779D01*
X0077400Y0042581D02*
X0077800Y0042581D01*
X0077800Y0041382D02*
X0077400Y0041382D01*
X0077043Y0040184D02*
X0078157Y0040184D01*
X0078827Y0038985D02*
X0076373Y0038985D01*
X0074971Y0037787D02*
X0080229Y0037787D01*
X0084971Y0037787D02*
X0090229Y0037787D01*
X0089881Y0037931D02*
X0091645Y0037200D01*
X0093555Y0037200D01*
X0095319Y0037931D01*
X0096669Y0039281D01*
X0097400Y0041045D01*
X0097400Y0048955D01*
X0096669Y0050719D01*
X0095319Y0052069D01*
X0095000Y0052201D01*
X0095000Y0053632D01*
X0095092Y0053670D01*
X0096330Y0054908D01*
X0097000Y0056525D01*
X0097000Y0063475D01*
X0096330Y0065092D01*
X0095092Y0066330D01*
X0093475Y0067000D01*
X0091725Y0067000D01*
X0090108Y0066330D01*
X0088870Y0065092D01*
X0088200Y0063475D01*
X0088200Y0056525D01*
X0088870Y0054908D01*
X0090108Y0053670D01*
X0090200Y0053632D01*
X0090200Y0052201D01*
X0089881Y0052069D01*
X0088531Y0050719D01*
X0087800Y0048955D01*
X0087800Y0041045D01*
X0088531Y0039281D01*
X0089881Y0037931D01*
X0088827Y0038985D02*
X0086373Y0038985D01*
X0087043Y0040184D02*
X0088157Y0040184D01*
X0087800Y0041382D02*
X0087400Y0041382D01*
X0087400Y0042581D02*
X0087800Y0042581D01*
X0087800Y0043779D02*
X0087400Y0043779D01*
X0087400Y0044978D02*
X0087800Y0044978D01*
X0087800Y0046176D02*
X0087400Y0046176D01*
X0087400Y0047375D02*
X0087800Y0047375D01*
X0087800Y0048573D02*
X0087400Y0048573D01*
X0087062Y0049772D02*
X0088138Y0049772D01*
X0088782Y0050970D02*
X0086418Y0050970D01*
X0085079Y0052169D02*
X0090121Y0052169D01*
X0090200Y0053367D02*
X0085000Y0053367D01*
X0085988Y0054566D02*
X0089212Y0054566D01*
X0088515Y0055764D02*
X0086685Y0055764D01*
X0087000Y0056963D02*
X0088200Y0056963D01*
X0088200Y0058161D02*
X0087000Y0058161D01*
X0087000Y0059360D02*
X0088200Y0059360D01*
X0088200Y0060558D02*
X0087000Y0060558D01*
X0087000Y0061757D02*
X0088200Y0061757D01*
X0088200Y0062955D02*
X0087000Y0062955D01*
X0086719Y0064154D02*
X0088481Y0064154D01*
X0089130Y0065352D02*
X0086070Y0065352D01*
X0084559Y0066551D02*
X0090641Y0066551D01*
X0094559Y0066551D02*
X0100641Y0066551D01*
X0100108Y0066330D02*
X0098870Y0065092D01*
X0098200Y0063475D01*
X0098200Y0056525D01*
X0098870Y0054908D01*
X0100108Y0053670D01*
X0100200Y0053632D01*
X0100200Y0052201D01*
X0099881Y0052069D01*
X0098531Y0050719D01*
X0097800Y0048955D01*
X0097800Y0041045D01*
X0098531Y0039281D01*
X0099881Y0037931D01*
X0101645Y0037200D01*
X0103555Y0037200D01*
X0105319Y0037931D01*
X0106669Y0039281D01*
X0107400Y0041045D01*
X0107400Y0048955D01*
X0106669Y0050719D01*
X0105319Y0052069D01*
X0105000Y0052201D01*
X0105000Y0053632D01*
X0105092Y0053670D01*
X0106330Y0054908D01*
X0107000Y0056525D01*
X0107000Y0063475D01*
X0106330Y0065092D01*
X0105092Y0066330D01*
X0103475Y0067000D01*
X0101725Y0067000D01*
X0100108Y0066330D01*
X0099130Y0065352D02*
X0096070Y0065352D01*
X0096719Y0064154D02*
X0098481Y0064154D01*
X0098200Y0062955D02*
X0097000Y0062955D01*
X0097000Y0061757D02*
X0098200Y0061757D01*
X0098200Y0060558D02*
X0097000Y0060558D01*
X0097000Y0059360D02*
X0098200Y0059360D01*
X0098200Y0058161D02*
X0097000Y0058161D01*
X0097000Y0056963D02*
X0098200Y0056963D01*
X0098515Y0055764D02*
X0096685Y0055764D01*
X0095988Y0054566D02*
X0099212Y0054566D01*
X0100200Y0053367D02*
X0095000Y0053367D01*
X0095079Y0052169D02*
X0100121Y0052169D01*
X0098782Y0050970D02*
X0096418Y0050970D01*
X0097062Y0049772D02*
X0098138Y0049772D01*
X0097800Y0048573D02*
X0097400Y0048573D01*
X0097400Y0047375D02*
X0097800Y0047375D01*
X0097800Y0046176D02*
X0097400Y0046176D01*
X0097400Y0044978D02*
X0097800Y0044978D01*
X0097800Y0043779D02*
X0097400Y0043779D01*
X0097400Y0042581D02*
X0097800Y0042581D01*
X0097800Y0041382D02*
X0097400Y0041382D01*
X0097043Y0040184D02*
X0098157Y0040184D01*
X0098827Y0038985D02*
X0096373Y0038985D01*
X0094971Y0037787D02*
X0100229Y0037787D01*
X0104971Y0037787D02*
X0110229Y0037787D01*
X0109881Y0037931D02*
X0111645Y0037200D01*
X0113555Y0037200D01*
X0115319Y0037931D01*
X0116669Y0039281D01*
X0117400Y0041045D01*
X0117400Y0048955D01*
X0116669Y0050719D01*
X0115319Y0052069D01*
X0115000Y0052201D01*
X0115000Y0053632D01*
X0115092Y0053670D01*
X0116330Y0054908D01*
X0117000Y0056525D01*
X0117000Y0063475D01*
X0116330Y0065092D01*
X0115092Y0066330D01*
X0113475Y0067000D01*
X0111725Y0067000D01*
X0110108Y0066330D01*
X0108870Y0065092D01*
X0108200Y0063475D01*
X0108200Y0056525D01*
X0108870Y0054908D01*
X0110108Y0053670D01*
X0110200Y0053632D01*
X0110200Y0052201D01*
X0109881Y0052069D01*
X0108531Y0050719D01*
X0107800Y0048955D01*
X0107800Y0041045D01*
X0108531Y0039281D01*
X0109881Y0037931D01*
X0108827Y0038985D02*
X0106373Y0038985D01*
X0107043Y0040184D02*
X0108157Y0040184D01*
X0107800Y0041382D02*
X0107400Y0041382D01*
X0107400Y0042581D02*
X0107800Y0042581D01*
X0107800Y0043779D02*
X0107400Y0043779D01*
X0107400Y0044978D02*
X0107800Y0044978D01*
X0107800Y0046176D02*
X0107400Y0046176D01*
X0107400Y0047375D02*
X0107800Y0047375D01*
X0107800Y0048573D02*
X0107400Y0048573D01*
X0107062Y0049772D02*
X0108138Y0049772D01*
X0108782Y0050970D02*
X0106418Y0050970D01*
X0105079Y0052169D02*
X0110121Y0052169D01*
X0110200Y0053367D02*
X0105000Y0053367D01*
X0105988Y0054566D02*
X0109212Y0054566D01*
X0108515Y0055764D02*
X0106685Y0055764D01*
X0107000Y0056963D02*
X0108200Y0056963D01*
X0108200Y0058161D02*
X0107000Y0058161D01*
X0107000Y0059360D02*
X0108200Y0059360D01*
X0108200Y0060558D02*
X0107000Y0060558D01*
X0107000Y0061757D02*
X0108200Y0061757D01*
X0108200Y0062955D02*
X0107000Y0062955D01*
X0106719Y0064154D02*
X0108481Y0064154D01*
X0109130Y0065352D02*
X0106070Y0065352D01*
X0104559Y0066551D02*
X0110641Y0066551D01*
X0114559Y0066551D02*
X0120641Y0066551D01*
X0120108Y0066330D02*
X0118870Y0065092D01*
X0118200Y0063475D01*
X0118200Y0056525D01*
X0118870Y0054908D01*
X0120108Y0053670D01*
X0120200Y0053632D01*
X0120200Y0052201D01*
X0119881Y0052069D01*
X0118531Y0050719D01*
X0117800Y0048955D01*
X0117800Y0041045D01*
X0118531Y0039281D01*
X0119881Y0037931D01*
X0121645Y0037200D01*
X0123555Y0037200D01*
X0125319Y0037931D01*
X0126669Y0039281D01*
X0127400Y0041045D01*
X0127400Y0048955D01*
X0126669Y0050719D01*
X0125319Y0052069D01*
X0125000Y0052201D01*
X0125000Y0053632D01*
X0125092Y0053670D01*
X0126330Y0054908D01*
X0127000Y0056525D01*
X0127000Y0063475D01*
X0126330Y0065092D01*
X0125092Y0066330D01*
X0123475Y0067000D01*
X0121725Y0067000D01*
X0120108Y0066330D01*
X0119130Y0065352D02*
X0116070Y0065352D01*
X0116719Y0064154D02*
X0118481Y0064154D01*
X0118200Y0062955D02*
X0117000Y0062955D01*
X0117000Y0061757D02*
X0118200Y0061757D01*
X0118200Y0060558D02*
X0117000Y0060558D01*
X0117000Y0059360D02*
X0118200Y0059360D01*
X0118200Y0058161D02*
X0117000Y0058161D01*
X0117000Y0056963D02*
X0118200Y0056963D01*
X0118515Y0055764D02*
X0116685Y0055764D01*
X0115988Y0054566D02*
X0119212Y0054566D01*
X0120200Y0053367D02*
X0115000Y0053367D01*
X0115079Y0052169D02*
X0120121Y0052169D01*
X0118782Y0050970D02*
X0116418Y0050970D01*
X0117062Y0049772D02*
X0118138Y0049772D01*
X0117800Y0048573D02*
X0117400Y0048573D01*
X0117400Y0047375D02*
X0117800Y0047375D01*
X0117800Y0046176D02*
X0117400Y0046176D01*
X0117400Y0044978D02*
X0117800Y0044978D01*
X0117800Y0043779D02*
X0117400Y0043779D01*
X0117400Y0042581D02*
X0117800Y0042581D01*
X0117800Y0041382D02*
X0117400Y0041382D01*
X0117043Y0040184D02*
X0118157Y0040184D01*
X0118827Y0038985D02*
X0116373Y0038985D01*
X0114971Y0037787D02*
X0120229Y0037787D01*
X0124971Y0037787D02*
X0130229Y0037787D01*
X0128827Y0038985D02*
X0126373Y0038985D01*
X0127043Y0040184D02*
X0128157Y0040184D01*
X0127800Y0041382D02*
X0127400Y0041382D01*
X0127400Y0042581D02*
X0127800Y0042581D01*
X0127800Y0043779D02*
X0127400Y0043779D01*
X0127400Y0044978D02*
X0127800Y0044978D01*
X0127800Y0046176D02*
X0127400Y0046176D01*
X0127400Y0047375D02*
X0127800Y0047375D01*
X0127800Y0048573D02*
X0127400Y0048573D01*
X0127062Y0049772D02*
X0128138Y0049772D01*
X0128782Y0050970D02*
X0126418Y0050970D01*
X0125079Y0052169D02*
X0130121Y0052169D01*
X0130200Y0053367D02*
X0125000Y0053367D01*
X0125988Y0054566D02*
X0129212Y0054566D01*
X0128515Y0055764D02*
X0126685Y0055764D01*
X0127000Y0056963D02*
X0128200Y0056963D01*
X0128200Y0058161D02*
X0127000Y0058161D01*
X0127000Y0059360D02*
X0128200Y0059360D01*
X0128200Y0060558D02*
X0127000Y0060558D01*
X0127000Y0061757D02*
X0128200Y0061757D01*
X0128200Y0062955D02*
X0127000Y0062955D01*
X0126719Y0064154D02*
X0128481Y0064154D01*
X0129130Y0065352D02*
X0126070Y0065352D01*
X0124559Y0066551D02*
X0130641Y0066551D01*
X0132600Y0060000D02*
X0132600Y0045000D01*
X0137400Y0044978D02*
X0137800Y0044978D01*
X0137800Y0046176D02*
X0137400Y0046176D01*
X0137400Y0047375D02*
X0137800Y0047375D01*
X0137800Y0048573D02*
X0137400Y0048573D01*
X0137062Y0049772D02*
X0138138Y0049772D01*
X0138782Y0050970D02*
X0136418Y0050970D01*
X0135079Y0052169D02*
X0140121Y0052169D01*
X0145079Y0052169D02*
X0150649Y0052169D01*
X0149072Y0050970D02*
X0146418Y0050970D01*
X0147062Y0049772D02*
X0148340Y0049772D01*
X0148033Y0048573D02*
X0147400Y0048573D01*
X0147400Y0047375D02*
X0148000Y0047375D01*
X0148000Y0046176D02*
X0147400Y0046176D01*
X0147400Y0044978D02*
X0152200Y0044978D01*
X0153000Y0044978D02*
X0173921Y0044978D01*
X0173921Y0046176D02*
X0157200Y0046176D01*
X0157200Y0047375D02*
X0173921Y0047375D01*
X0173921Y0048573D02*
X0157167Y0048573D01*
X0156860Y0049772D02*
X0173921Y0049772D01*
X0173921Y0050970D02*
X0156128Y0050970D01*
X0153000Y0046176D02*
X0152200Y0046176D01*
X0153000Y0044600D02*
X0157200Y0044600D01*
X0157200Y0041638D01*
X0157087Y0040923D01*
X0156863Y0040234D01*
X0156534Y0039589D01*
X0156109Y0039003D01*
X0155597Y0038491D01*
X0155011Y0038066D01*
X0154366Y0037737D01*
X0153677Y0037513D01*
X0153000Y0037406D01*
X0153000Y0044600D01*
X0153000Y0043779D02*
X0152200Y0043779D01*
X0152200Y0042581D02*
X0153000Y0042581D01*
X0153000Y0041382D02*
X0152200Y0041382D01*
X0152200Y0040184D02*
X0153000Y0040184D01*
X0153000Y0038985D02*
X0152200Y0038985D01*
X0152200Y0037787D02*
X0153000Y0037787D01*
X0154463Y0037787D02*
X0173921Y0037787D01*
X0173921Y0038985D02*
X0156090Y0038985D01*
X0156837Y0040184D02*
X0173921Y0040184D01*
X0173921Y0041382D02*
X0157159Y0041382D01*
X0157200Y0042581D02*
X0173921Y0042581D01*
X0173921Y0043779D02*
X0157200Y0043779D01*
X0150737Y0037787D02*
X0144971Y0037787D01*
X0146373Y0038985D02*
X0149109Y0038985D01*
X0148363Y0040184D02*
X0147043Y0040184D01*
X0147400Y0041382D02*
X0148041Y0041382D01*
X0148000Y0042581D02*
X0147400Y0042581D01*
X0147400Y0043779D02*
X0148000Y0043779D01*
X0142600Y0045000D02*
X0142600Y0041000D01*
X0134600Y0033000D01*
X0067600Y0033000D01*
X0052600Y0048000D01*
X0052600Y0060000D01*
X0040600Y0072000D01*
X0040600Y0085000D01*
X0043000Y0080933D02*
X0168139Y0080933D01*
X0169200Y0082132D02*
X0157651Y0082132D01*
X0158069Y0082305D02*
X0159295Y0083531D01*
X0159959Y0085133D01*
X0159959Y0086867D01*
X0159930Y0086936D01*
X0167635Y0094641D01*
X0168000Y0095523D01*
X0168000Y0117477D01*
X0167635Y0118359D01*
X0166959Y0119035D01*
X0163959Y0122035D01*
X0163077Y0122400D01*
X0161988Y0122400D01*
X0159588Y0124800D01*
X0155612Y0124800D01*
X0152800Y0121988D01*
X0152800Y0118012D01*
X0155612Y0115200D01*
X0159588Y0115200D01*
X0161797Y0117409D01*
X0163200Y0116006D01*
X0163200Y0096994D01*
X0156536Y0090330D01*
X0156467Y0090359D01*
X0154733Y0090359D01*
X0153131Y0089695D01*
X0151905Y0088469D01*
X0151241Y0086867D01*
X0151241Y0085133D01*
X0151905Y0083531D01*
X0153131Y0082305D01*
X0154733Y0081641D01*
X0156467Y0081641D01*
X0158069Y0082305D01*
X0159095Y0083330D02*
X0169200Y0083330D01*
X0169200Y0084529D02*
X0159709Y0084529D01*
X0159959Y0085727D02*
X0169200Y0085727D01*
X0169200Y0086926D02*
X0159935Y0086926D01*
X0161118Y0088124D02*
X0169200Y0088124D01*
X0169200Y0089323D02*
X0162317Y0089323D01*
X0163515Y0090521D02*
X0169200Y0090521D01*
X0169200Y0091720D02*
X0164714Y0091720D01*
X0165912Y0092918D02*
X0169200Y0092918D01*
X0169200Y0094117D02*
X0167111Y0094117D01*
X0167914Y0095315D02*
X0169200Y0095315D01*
X0169200Y0096514D02*
X0168000Y0096514D01*
X0168000Y0097712D02*
X0169200Y0097712D01*
X0169200Y0098911D02*
X0168000Y0098911D01*
X0168000Y0100109D02*
X0169200Y0100109D01*
X0169200Y0101308D02*
X0168000Y0101308D01*
X0168000Y0102506D02*
X0169200Y0102506D01*
X0169200Y0103705D02*
X0168000Y0103705D01*
X0168000Y0104903D02*
X0169200Y0104903D01*
X0169200Y0106102D02*
X0168000Y0106102D01*
X0168000Y0107300D02*
X0169200Y0107300D01*
X0169200Y0108499D02*
X0168000Y0108499D01*
X0168000Y0109697D02*
X0169200Y0109697D01*
X0169200Y0110896D02*
X0168000Y0110896D01*
X0168000Y0112094D02*
X0169200Y0112094D01*
X0169200Y0113293D02*
X0168000Y0113293D01*
X0168000Y0114491D02*
X0169200Y0114491D01*
X0169200Y0115690D02*
X0168000Y0115690D01*
X0168000Y0116888D02*
X0169200Y0116888D01*
X0169200Y0118087D02*
X0167748Y0118087D01*
X0166709Y0119285D02*
X0169200Y0119285D01*
X0169200Y0120484D02*
X0165510Y0120484D01*
X0164312Y0121682D02*
X0169200Y0121682D01*
X0169200Y0122881D02*
X0161507Y0122881D01*
X0160309Y0124079D02*
X0169200Y0124079D01*
X0169200Y0125278D02*
X0154272Y0125278D01*
X0154635Y0125641D02*
X0155000Y0126523D01*
X0155000Y0127477D01*
X0155000Y0138006D01*
X0155249Y0138255D01*
X0156733Y0137641D01*
X0158467Y0137641D01*
X0160069Y0138305D01*
X0161295Y0139531D01*
X0161959Y0141133D01*
X0161959Y0142867D01*
X0161295Y0144469D01*
X0160069Y0145695D01*
X0158467Y0146359D01*
X0156733Y0146359D01*
X0155131Y0145695D01*
X0153905Y0144469D01*
X0153360Y0143154D01*
X0150565Y0140359D01*
X0150200Y0139477D01*
X0150200Y0127994D01*
X0147006Y0124800D01*
X0145612Y0124800D01*
X0142800Y0121988D01*
X0142800Y0118012D01*
X0145612Y0115200D01*
X0149588Y0115200D01*
X0152400Y0118012D01*
X0152400Y0121988D01*
X0151691Y0122697D01*
X0154635Y0125641D01*
X0154981Y0126476D02*
X0169200Y0126476D01*
X0169200Y0127675D02*
X0155000Y0127675D01*
X0155000Y0128873D02*
X0169200Y0128873D01*
X0169200Y0130072D02*
X0155000Y0130072D01*
X0155000Y0131270D02*
X0169200Y0131270D01*
X0169200Y0132469D02*
X0155000Y0132469D01*
X0155000Y0133668D02*
X0169200Y0133668D01*
X0169200Y0134866D02*
X0155000Y0134866D01*
X0155000Y0136065D02*
X0169200Y0136065D01*
X0169200Y0137263D02*
X0155000Y0137263D01*
X0152600Y0139000D02*
X0155600Y0142000D01*
X0157600Y0142000D01*
X0160226Y0138462D02*
X0169200Y0138462D01*
X0169200Y0139660D02*
X0161349Y0139660D01*
X0161845Y0140859D02*
X0169200Y0140859D01*
X0169200Y0142057D02*
X0161959Y0142057D01*
X0161798Y0143256D02*
X0169200Y0143256D01*
X0169200Y0144454D02*
X0161302Y0144454D01*
X0160112Y0145653D02*
X0169200Y0145653D01*
X0169200Y0146851D02*
X0136239Y0146851D01*
X0137400Y0148050D02*
X0169200Y0148050D01*
X0169200Y0149248D02*
X0137400Y0149248D01*
X0137400Y0150447D02*
X0154772Y0150447D01*
X0154604Y0150516D02*
X0156548Y0149711D01*
X0158652Y0149711D01*
X0160596Y0150516D01*
X0162084Y0152004D01*
X0162889Y0153948D01*
X0162889Y0156052D01*
X0162084Y0157996D01*
X0160596Y0159484D01*
X0158652Y0160289D01*
X0156548Y0160289D01*
X0154604Y0159484D01*
X0153116Y0157996D01*
X0152311Y0156052D01*
X0152311Y0153948D01*
X0153116Y0152004D01*
X0154604Y0150516D01*
X0153475Y0151645D02*
X0137400Y0151645D01*
X0136545Y0152844D02*
X0152768Y0152844D01*
X0152311Y0154042D02*
X0135346Y0154042D01*
X0134629Y0155241D02*
X0152311Y0155241D01*
X0152471Y0156439D02*
X0135827Y0156439D01*
X0137026Y0157638D02*
X0152968Y0157638D01*
X0153957Y0158836D02*
X0137400Y0158836D01*
X0137400Y0160035D02*
X0155934Y0160035D01*
X0159266Y0160035D02*
X0169200Y0160035D01*
X0169200Y0161233D02*
X0137400Y0161233D01*
X0136956Y0162432D02*
X0169200Y0162432D01*
X0169200Y0163630D02*
X0135758Y0163630D01*
X0135000Y0164829D02*
X0169200Y0164829D01*
X0169200Y0166027D02*
X0135000Y0166027D01*
X0135000Y0167226D02*
X0169200Y0167226D01*
X0169200Y0168424D02*
X0135000Y0168424D01*
X0135000Y0169623D02*
X0169200Y0169623D01*
X0169200Y0170821D02*
X0135000Y0170821D01*
X0134775Y0172020D02*
X0169200Y0172020D01*
X0169200Y0173218D02*
X0133776Y0173218D01*
X0132577Y0174417D02*
X0150018Y0174417D01*
X0148870Y0175615D02*
X0131379Y0175615D01*
X0129600Y0174000D02*
X0132600Y0171000D01*
X0132600Y0160000D01*
X0129442Y0163630D02*
X0125758Y0163630D01*
X0126956Y0162432D02*
X0128244Y0162432D01*
X0127800Y0161233D02*
X0127400Y0161233D01*
X0127400Y0160035D02*
X0127800Y0160035D01*
X0127800Y0158836D02*
X0127400Y0158836D01*
X0127026Y0157638D02*
X0128174Y0157638D01*
X0127600Y0155000D02*
X0106600Y0155000D01*
X0092600Y0169000D01*
X0092600Y0178000D01*
X0094600Y0180000D01*
X0097600Y0183000D01*
X0097600Y0190000D01*
X0097600Y0191000D01*
X0109600Y0203000D01*
X0117600Y0209000D02*
X0100600Y0209000D01*
X0097600Y0206000D01*
X0097600Y0200000D01*
X0093993Y0203181D02*
X0091207Y0203181D01*
X0092400Y0201988D02*
X0089588Y0204800D01*
X0085612Y0204800D01*
X0083212Y0202400D01*
X0076324Y0202400D01*
X0076295Y0202469D01*
X0075069Y0203695D01*
X0073467Y0204359D01*
X0071733Y0204359D01*
X0070131Y0203695D01*
X0068905Y0202469D01*
X0068241Y0200867D01*
X0068241Y0199133D01*
X0068905Y0197531D01*
X0070131Y0196305D01*
X0071733Y0195641D01*
X0073467Y0195641D01*
X0075069Y0196305D01*
X0076295Y0197531D01*
X0076324Y0197600D01*
X0083212Y0197600D01*
X0085612Y0195200D01*
X0089588Y0195200D01*
X0092400Y0198012D01*
X0092400Y0201988D01*
X0092400Y0201983D02*
X0092800Y0201983D01*
X0092800Y0200784D02*
X0092400Y0200784D01*
X0092400Y0199586D02*
X0092800Y0199586D01*
X0092800Y0198387D02*
X0092400Y0198387D01*
X0091577Y0197189D02*
X0093623Y0197189D01*
X0094822Y0195990D02*
X0090378Y0195990D01*
X0089366Y0194263D02*
X0088677Y0194487D01*
X0088000Y0194594D01*
X0088000Y0190400D01*
X0092194Y0190400D01*
X0092087Y0191077D01*
X0091863Y0191766D01*
X0091534Y0192411D01*
X0091109Y0192997D01*
X0090597Y0193509D01*
X0090011Y0193934D01*
X0089366Y0194263D01*
X0090481Y0193593D02*
X0094405Y0193593D01*
X0095603Y0194792D02*
X0039597Y0194792D01*
X0040378Y0195990D02*
X0070890Y0195990D01*
X0069247Y0197189D02*
X0041577Y0197189D01*
X0042400Y0198387D02*
X0068550Y0198387D01*
X0068241Y0199586D02*
X0042400Y0199586D01*
X0042400Y0200784D02*
X0068241Y0200784D01*
X0068703Y0201983D02*
X0042400Y0201983D01*
X0041207Y0203181D02*
X0047429Y0203181D01*
X0046056Y0204380D02*
X0040009Y0204380D01*
X0037600Y0200000D02*
X0032600Y0195000D01*
X0016600Y0195000D01*
X0008600Y0187000D01*
X0008600Y0099000D01*
X0032600Y0075000D01*
X0033600Y0075000D01*
X0029241Y0074940D02*
X0006200Y0074940D01*
X0006200Y0073742D02*
X0029403Y0073742D01*
X0029899Y0072543D02*
X0006200Y0072543D01*
X0006200Y0071345D02*
X0031090Y0071345D01*
X0028067Y0076139D02*
X0006200Y0076139D01*
X0006200Y0077337D02*
X0026868Y0077337D01*
X0025670Y0078536D02*
X0006200Y0078536D01*
X0006200Y0079734D02*
X0024471Y0079734D01*
X0023273Y0080933D02*
X0006200Y0080933D01*
X0006200Y0082132D02*
X0022074Y0082132D01*
X0020876Y0083330D02*
X0006200Y0083330D01*
X0006200Y0084529D02*
X0019677Y0084529D01*
X0018479Y0085727D02*
X0006200Y0085727D01*
X0006200Y0086926D02*
X0017280Y0086926D01*
X0016082Y0088124D02*
X0006200Y0088124D01*
X0006200Y0089323D02*
X0014883Y0089323D01*
X0013685Y0090521D02*
X0006200Y0090521D01*
X0006200Y0091720D02*
X0012486Y0091720D01*
X0011288Y0092918D02*
X0006200Y0092918D01*
X0006200Y0094117D02*
X0010089Y0094117D01*
X0008891Y0095315D02*
X0006200Y0095315D01*
X0006200Y0096514D02*
X0007692Y0096514D01*
X0006536Y0097712D02*
X0006200Y0097712D01*
X0006200Y0098911D02*
X0006200Y0098911D01*
X0006200Y0100109D02*
X0006200Y0100109D01*
X0006200Y0101308D02*
X0006200Y0101308D01*
X0006200Y0102506D02*
X0006200Y0102506D01*
X0006200Y0103705D02*
X0006200Y0103705D01*
X0006200Y0104903D02*
X0006200Y0104903D01*
X0006200Y0106102D02*
X0006200Y0106102D01*
X0006200Y0107300D02*
X0006200Y0107300D01*
X0006200Y0108499D02*
X0006200Y0108499D01*
X0006200Y0109697D02*
X0006200Y0109697D01*
X0006200Y0110896D02*
X0006200Y0110896D01*
X0006200Y0112094D02*
X0006200Y0112094D01*
X0006200Y0113293D02*
X0006200Y0113293D01*
X0006200Y0114491D02*
X0006200Y0114491D01*
X0006200Y0115690D02*
X0006200Y0115690D01*
X0006200Y0116888D02*
X0006200Y0116888D01*
X0006200Y0118087D02*
X0006200Y0118087D01*
X0006200Y0119285D02*
X0006200Y0119285D01*
X0006200Y0120484D02*
X0006200Y0120484D01*
X0006200Y0121682D02*
X0006200Y0121682D01*
X0006200Y0122881D02*
X0006200Y0122881D01*
X0006200Y0124079D02*
X0006200Y0124079D01*
X0006200Y0125278D02*
X0006200Y0125278D01*
X0006200Y0126476D02*
X0006200Y0126476D01*
X0006200Y0127675D02*
X0006200Y0127675D01*
X0006200Y0128873D02*
X0006200Y0128873D01*
X0006200Y0130072D02*
X0006200Y0130072D01*
X0006200Y0131270D02*
X0006200Y0131270D01*
X0006200Y0132469D02*
X0006200Y0132469D01*
X0006200Y0133668D02*
X0006200Y0133668D01*
X0006200Y0134866D02*
X0006200Y0134866D01*
X0006200Y0136065D02*
X0006200Y0136065D01*
X0006200Y0137263D02*
X0006200Y0137263D01*
X0006200Y0138462D02*
X0006200Y0138462D01*
X0006200Y0139660D02*
X0006200Y0139660D01*
X0006200Y0140859D02*
X0006200Y0140859D01*
X0006200Y0142057D02*
X0006200Y0142057D01*
X0006200Y0143256D02*
X0006200Y0143256D01*
X0006200Y0144454D02*
X0006200Y0144454D01*
X0006200Y0145653D02*
X0006200Y0145653D01*
X0006200Y0146851D02*
X0006200Y0146851D01*
X0006200Y0148050D02*
X0006200Y0148050D01*
X0006200Y0149248D02*
X0006200Y0149248D01*
X0006200Y0150447D02*
X0006200Y0150447D01*
X0006200Y0151645D02*
X0006200Y0151645D01*
X0006200Y0152844D02*
X0006200Y0152844D01*
X0006200Y0154042D02*
X0006200Y0154042D01*
X0006200Y0155241D02*
X0006200Y0155241D01*
X0006200Y0156439D02*
X0006200Y0156439D01*
X0006200Y0157638D02*
X0006200Y0157638D01*
X0006200Y0158836D02*
X0006200Y0158836D01*
X0006200Y0160035D02*
X0006200Y0160035D01*
X0006200Y0161233D02*
X0006200Y0161233D01*
X0006200Y0162432D02*
X0006200Y0162432D01*
X0006200Y0163630D02*
X0006200Y0163630D01*
X0006200Y0164829D02*
X0006200Y0164829D01*
X0006200Y0166027D02*
X0006200Y0166027D01*
X0006200Y0167226D02*
X0006200Y0167226D01*
X0006200Y0168424D02*
X0006200Y0168424D01*
X0006200Y0169623D02*
X0006200Y0169623D01*
X0006200Y0170821D02*
X0006200Y0170821D01*
X0006200Y0172020D02*
X0006200Y0172020D01*
X0006200Y0173218D02*
X0006200Y0173218D01*
X0006200Y0174417D02*
X0006200Y0174417D01*
X0006200Y0175615D02*
X0006200Y0175615D01*
X0006200Y0176814D02*
X0006200Y0176814D01*
X0006200Y0178012D02*
X0006200Y0178012D01*
X0006200Y0179211D02*
X0006200Y0179211D01*
X0006200Y0180409D02*
X0006200Y0180409D01*
X0006200Y0181608D02*
X0006200Y0181608D01*
X0006200Y0182806D02*
X0006200Y0182806D01*
X0006200Y0184005D02*
X0006200Y0184005D01*
X0006200Y0185203D02*
X0006200Y0185203D01*
X0006200Y0186402D02*
X0006200Y0186402D01*
X0006200Y0187601D02*
X0006251Y0187601D01*
X0006200Y0188799D02*
X0007005Y0188799D01*
X0006200Y0189998D02*
X0008203Y0189998D01*
X0009402Y0191196D02*
X0006200Y0191196D01*
X0006200Y0192395D02*
X0010600Y0192395D01*
X0011799Y0193593D02*
X0006200Y0193593D01*
X0006200Y0194792D02*
X0012997Y0194792D01*
X0014196Y0195990D02*
X0006200Y0195990D01*
X0006200Y0197189D02*
X0015612Y0197189D01*
X0017389Y0192395D02*
X0023657Y0192395D01*
X0023152Y0191196D02*
X0016190Y0191196D01*
X0014992Y0189998D02*
X0027200Y0189998D01*
X0027200Y0189600D02*
X0023006Y0189600D01*
X0023113Y0188923D01*
X0023337Y0188234D01*
X0023666Y0187589D01*
X0024091Y0187003D01*
X0024603Y0186491D01*
X0025189Y0186066D01*
X0025834Y0185737D01*
X0026523Y0185513D01*
X0027200Y0185406D01*
X0027200Y0189600D01*
X0027600Y0190000D02*
X0017600Y0190000D01*
X0012600Y0185000D01*
X0012600Y0139000D01*
X0011000Y0138462D02*
X0015487Y0138462D01*
X0015241Y0137867D02*
X0015241Y0136133D01*
X0015356Y0135855D01*
X0015200Y0135477D01*
X0015200Y0129523D01*
X0015565Y0128641D01*
X0022800Y0121406D01*
X0022800Y0118012D01*
X0025612Y0115200D01*
X0029588Y0115200D01*
X0030200Y0115812D01*
X0030200Y0113797D01*
X0030011Y0113934D01*
X0029366Y0114263D01*
X0028677Y0114487D01*
X0028000Y0114594D01*
X0028000Y0110400D01*
X0032194Y0110400D01*
X0032087Y0111077D01*
X0032066Y0111139D01*
X0032800Y0110406D01*
X0032800Y0108012D01*
X0035612Y0105200D01*
X0038200Y0105200D01*
X0038200Y0099724D01*
X0038131Y0099695D01*
X0036905Y0098469D01*
X0036241Y0096867D01*
X0036241Y0095133D01*
X0036905Y0093531D01*
X0038131Y0092305D01*
X0039733Y0091641D01*
X0041467Y0091641D01*
X0043069Y0092305D01*
X0044295Y0093531D01*
X0044959Y0095133D01*
X0044959Y0096867D01*
X0044295Y0098469D01*
X0043069Y0099695D01*
X0043000Y0099724D01*
X0043000Y0107477D01*
X0042635Y0108359D01*
X0042400Y0108594D01*
X0042400Y0111988D01*
X0040552Y0113836D01*
X0041123Y0113600D01*
X0083077Y0113600D01*
X0083959Y0113965D01*
X0084635Y0114641D01*
X0096664Y0126670D01*
X0096733Y0126641D01*
X0098467Y0126641D01*
X0100069Y0127305D01*
X0101295Y0128531D01*
X0101959Y0130133D01*
X0101959Y0131867D01*
X0101295Y0133469D01*
X0100069Y0134695D01*
X0098467Y0135359D01*
X0096733Y0135359D01*
X0095131Y0134695D01*
X0093905Y0133469D01*
X0093241Y0131867D01*
X0093241Y0130133D01*
X0093270Y0130064D01*
X0081606Y0118400D01*
X0042594Y0118400D01*
X0042400Y0118594D01*
X0042400Y0121988D01*
X0039588Y0124800D01*
X0035612Y0124800D01*
X0035000Y0124188D01*
X0035000Y0137641D01*
X0035467Y0137641D01*
X0037069Y0138305D01*
X0038295Y0139531D01*
X0038959Y0141133D01*
X0038959Y0142867D01*
X0038295Y0144469D01*
X0037069Y0145695D01*
X0035467Y0146359D01*
X0033733Y0146359D01*
X0032131Y0145695D01*
X0030905Y0144469D01*
X0030241Y0142867D01*
X0030241Y0142576D01*
X0030200Y0142477D01*
X0030200Y0124188D01*
X0029588Y0124800D01*
X0026194Y0124800D01*
X0020000Y0130994D01*
X0020000Y0132641D01*
X0020467Y0132641D01*
X0022069Y0133305D01*
X0023295Y0134531D01*
X0023959Y0136133D01*
X0023959Y0137867D01*
X0023295Y0139469D01*
X0022069Y0140695D01*
X0020467Y0141359D01*
X0018733Y0141359D01*
X0017131Y0140695D01*
X0015905Y0139469D01*
X0015241Y0137867D01*
X0015241Y0137263D02*
X0011000Y0137263D01*
X0011000Y0136065D02*
X0015269Y0136065D01*
X0015200Y0134866D02*
X0011000Y0134866D01*
X0011000Y0133668D02*
X0015200Y0133668D01*
X0015200Y0132469D02*
X0011000Y0132469D01*
X0011000Y0131270D02*
X0015200Y0131270D01*
X0015200Y0130072D02*
X0011000Y0130072D01*
X0011000Y0128873D02*
X0015469Y0128873D01*
X0016531Y0127675D02*
X0011000Y0127675D01*
X0011000Y0126476D02*
X0017729Y0126476D01*
X0018928Y0125278D02*
X0011000Y0125278D01*
X0011000Y0124079D02*
X0020126Y0124079D01*
X0021325Y0122881D02*
X0011000Y0122881D01*
X0011000Y0121682D02*
X0022523Y0121682D01*
X0022800Y0120484D02*
X0011000Y0120484D01*
X0011000Y0119285D02*
X0022800Y0119285D01*
X0022800Y0118087D02*
X0011000Y0118087D01*
X0011000Y0116888D02*
X0023923Y0116888D01*
X0025122Y0115690D02*
X0011000Y0115690D01*
X0011000Y0114491D02*
X0026552Y0114491D01*
X0026523Y0114487D02*
X0025834Y0114263D01*
X0025189Y0113934D01*
X0024603Y0113509D01*
X0024091Y0112997D01*
X0023666Y0112411D01*
X0023337Y0111766D01*
X0023113Y0111077D01*
X0023006Y0110400D01*
X0027200Y0110400D01*
X0027200Y0114594D01*
X0026523Y0114487D01*
X0027200Y0114491D02*
X0028000Y0114491D01*
X0028648Y0114491D02*
X0030200Y0114491D01*
X0030200Y0115690D02*
X0030078Y0115690D01*
X0028000Y0113293D02*
X0027200Y0113293D01*
X0027200Y0112094D02*
X0028000Y0112094D01*
X0028000Y0110896D02*
X0027200Y0110896D01*
X0027200Y0110400D02*
X0028000Y0110400D01*
X0028000Y0109600D01*
X0032194Y0109600D01*
X0032087Y0108923D01*
X0031863Y0108234D01*
X0031534Y0107589D01*
X0031109Y0107003D01*
X0030597Y0106491D01*
X0030011Y0106066D01*
X0029366Y0105737D01*
X0028677Y0105513D01*
X0028000Y0105406D01*
X0028000Y0109600D01*
X0027200Y0109600D01*
X0027200Y0105406D01*
X0026523Y0105513D01*
X0025834Y0105737D01*
X0025189Y0106066D01*
X0024603Y0106491D01*
X0024091Y0107003D01*
X0023666Y0107589D01*
X0023337Y0108234D01*
X0023113Y0108923D01*
X0023006Y0109600D01*
X0027200Y0109600D01*
X0027200Y0110400D01*
X0027200Y0109697D02*
X0011000Y0109697D01*
X0011000Y0108499D02*
X0023251Y0108499D01*
X0023876Y0107300D02*
X0011000Y0107300D01*
X0011000Y0106102D02*
X0025139Y0106102D01*
X0027200Y0106102D02*
X0028000Y0106102D01*
X0028000Y0107300D02*
X0027200Y0107300D01*
X0027200Y0108499D02*
X0028000Y0108499D01*
X0028000Y0109697D02*
X0032800Y0109697D01*
X0032800Y0108499D02*
X0031949Y0108499D01*
X0031324Y0107300D02*
X0033512Y0107300D01*
X0034710Y0106102D02*
X0030060Y0106102D01*
X0032115Y0110896D02*
X0032310Y0110896D01*
X0032600Y0114000D02*
X0032600Y0142000D01*
X0034600Y0142000D01*
X0037226Y0138462D02*
X0050241Y0138462D01*
X0050241Y0138867D02*
X0050241Y0137133D01*
X0050356Y0136855D01*
X0050200Y0136477D01*
X0050200Y0131431D01*
X0049631Y0131195D01*
X0048405Y0129969D01*
X0047741Y0128367D01*
X0047741Y0126633D01*
X0048405Y0125031D01*
X0049631Y0123805D01*
X0051233Y0123141D01*
X0052967Y0123141D01*
X0054569Y0123805D01*
X0055795Y0125031D01*
X0056459Y0126633D01*
X0056459Y0126924D01*
X0056500Y0127023D01*
X0056500Y0127977D01*
X0056459Y0128076D01*
X0056459Y0128367D01*
X0055795Y0129969D01*
X0055000Y0130765D01*
X0055000Y0133641D01*
X0055467Y0133641D01*
X0057069Y0134305D01*
X0058295Y0135531D01*
X0058959Y0137133D01*
X0058959Y0138867D01*
X0058295Y0140469D01*
X0057069Y0141695D01*
X0055467Y0142359D01*
X0053733Y0142359D01*
X0052131Y0141695D01*
X0050905Y0140469D01*
X0050241Y0138867D01*
X0050569Y0139660D02*
X0038349Y0139660D01*
X0038845Y0140859D02*
X0051294Y0140859D01*
X0053004Y0142057D02*
X0038959Y0142057D01*
X0038798Y0143256D02*
X0153402Y0143256D01*
X0153898Y0144454D02*
X0038302Y0144454D01*
X0037112Y0145653D02*
X0051094Y0145653D01*
X0050834Y0145737D02*
X0051523Y0145513D01*
X0052200Y0145406D01*
X0052200Y0149600D01*
X0053000Y0149600D01*
X0053000Y0150400D01*
X0057194Y0150400D01*
X0057087Y0151077D01*
X0056863Y0151766D01*
X0056534Y0152411D01*
X0056109Y0152997D01*
X0055597Y0153509D01*
X0055011Y0153934D01*
X0054366Y0154263D01*
X0053677Y0154487D01*
X0053000Y0154594D01*
X0053000Y0150400D01*
X0052200Y0150400D01*
X0052200Y0154594D01*
X0051523Y0154487D01*
X0050834Y0154263D01*
X0050189Y0153934D01*
X0049603Y0153509D01*
X0049091Y0152997D01*
X0048666Y0152411D01*
X0048337Y0151766D01*
X0048113Y0151077D01*
X0048006Y0150400D01*
X0052200Y0150400D01*
X0052200Y0149600D01*
X0048006Y0149600D01*
X0048113Y0148923D01*
X0048337Y0148234D01*
X0048666Y0147589D01*
X0049091Y0147003D01*
X0049603Y0146491D01*
X0050189Y0146066D01*
X0050834Y0145737D01*
X0052200Y0145653D02*
X0053000Y0145653D01*
X0053000Y0145406D02*
X0053677Y0145513D01*
X0054366Y0145737D01*
X0055011Y0146066D01*
X0055597Y0146491D01*
X0056109Y0147003D01*
X0056534Y0147589D01*
X0056863Y0148234D01*
X0057087Y0148923D01*
X0057194Y0149600D01*
X0053000Y0149600D01*
X0053000Y0145406D01*
X0054106Y0145653D02*
X0060159Y0145653D01*
X0060612Y0145200D02*
X0064588Y0145200D01*
X0067400Y0148012D01*
X0067400Y0150600D01*
X0073241Y0150600D01*
X0073241Y0149133D01*
X0073905Y0147531D01*
X0075131Y0146305D01*
X0076733Y0145641D01*
X0078467Y0145641D01*
X0080069Y0146305D01*
X0081295Y0147531D01*
X0081959Y0149133D01*
X0081959Y0150867D01*
X0081295Y0152469D01*
X0080069Y0153695D01*
X0078467Y0154359D01*
X0076733Y0154359D01*
X0076664Y0154330D01*
X0076635Y0154359D01*
X0075959Y0155035D01*
X0075077Y0155400D01*
X0065123Y0155400D01*
X0064241Y0155035D01*
X0064006Y0154800D01*
X0060612Y0154800D01*
X0057800Y0151988D01*
X0057800Y0148012D01*
X0060612Y0145200D01*
X0058961Y0146851D02*
X0055957Y0146851D01*
X0056769Y0148050D02*
X0057800Y0148050D01*
X0057800Y0149248D02*
X0057138Y0149248D01*
X0057187Y0150447D02*
X0057800Y0150447D01*
X0057800Y0151645D02*
X0056902Y0151645D01*
X0056220Y0152844D02*
X0058655Y0152844D01*
X0059854Y0154042D02*
X0054799Y0154042D01*
X0054588Y0155200D02*
X0057400Y0158012D01*
X0057400Y0161988D01*
X0054588Y0164800D01*
X0051194Y0164800D01*
X0046635Y0169359D01*
X0046635Y0169359D01*
X0045959Y0170035D01*
X0045077Y0170400D01*
X0022594Y0170400D01*
X0021379Y0171615D01*
X0022295Y0172531D01*
X0022959Y0174133D01*
X0022959Y0175867D01*
X0022295Y0177469D01*
X0021069Y0178695D01*
X0019467Y0179359D01*
X0017733Y0179359D01*
X0016131Y0178695D01*
X0014905Y0177469D01*
X0014241Y0175867D01*
X0014241Y0174133D01*
X0014905Y0172531D01*
X0016131Y0171305D01*
X0016200Y0171276D01*
X0016200Y0170523D01*
X0016565Y0169641D01*
X0017241Y0168965D01*
X0020241Y0165965D01*
X0021123Y0165600D01*
X0043606Y0165600D01*
X0047800Y0161406D01*
X0047800Y0158012D01*
X0050612Y0155200D01*
X0054588Y0155200D01*
X0054629Y0155241D02*
X0060571Y0155241D01*
X0060612Y0155200D02*
X0057800Y0158012D01*
X0057800Y0161988D01*
X0060612Y0164800D01*
X0064588Y0164800D01*
X0066988Y0162400D01*
X0071462Y0162400D01*
X0071905Y0163469D01*
X0073131Y0164695D01*
X0074733Y0165359D01*
X0076467Y0165359D01*
X0078069Y0164695D01*
X0079295Y0163469D01*
X0079959Y0161867D01*
X0079959Y0160133D01*
X0079295Y0158531D01*
X0078069Y0157305D01*
X0076467Y0156641D01*
X0074733Y0156641D01*
X0073131Y0157305D01*
X0072835Y0157600D01*
X0066988Y0157600D01*
X0064588Y0155200D01*
X0060612Y0155200D01*
X0059373Y0156439D02*
X0055827Y0156439D01*
X0057026Y0157638D02*
X0058174Y0157638D01*
X0057800Y0158836D02*
X0057400Y0158836D01*
X0057400Y0160035D02*
X0057800Y0160035D01*
X0057800Y0161233D02*
X0057400Y0161233D01*
X0056956Y0162432D02*
X0058244Y0162432D01*
X0059442Y0163630D02*
X0055758Y0163630D01*
X0052600Y0160000D02*
X0044600Y0168000D01*
X0021600Y0168000D01*
X0018600Y0171000D01*
X0018600Y0175000D01*
X0017375Y0179211D02*
X0011000Y0179211D01*
X0011000Y0180409D02*
X0090241Y0180409D01*
X0090241Y0179211D02*
X0019825Y0179211D01*
X0021752Y0178012D02*
X0090200Y0178012D01*
X0090200Y0176814D02*
X0022567Y0176814D01*
X0022959Y0175615D02*
X0090200Y0175615D01*
X0090200Y0174417D02*
X0022959Y0174417D01*
X0022580Y0173218D02*
X0090200Y0173218D01*
X0090200Y0172020D02*
X0021784Y0172020D01*
X0022173Y0170821D02*
X0090200Y0170821D01*
X0090200Y0169623D02*
X0046371Y0169623D01*
X0047570Y0168424D02*
X0090241Y0168424D01*
X0090980Y0167226D02*
X0048768Y0167226D01*
X0049967Y0166027D02*
X0092179Y0166027D01*
X0093377Y0164829D02*
X0077747Y0164829D01*
X0079134Y0163630D02*
X0094576Y0163630D01*
X0095774Y0162432D02*
X0079725Y0162432D01*
X0079959Y0161233D02*
X0096973Y0161233D01*
X0098171Y0160035D02*
X0079918Y0160035D01*
X0079422Y0158836D02*
X0099370Y0158836D01*
X0100568Y0157638D02*
X0078402Y0157638D01*
X0079232Y0154042D02*
X0104164Y0154042D01*
X0102965Y0155241D02*
X0075462Y0155241D01*
X0074600Y0153000D02*
X0065600Y0153000D01*
X0062600Y0150000D01*
X0066239Y0146851D02*
X0074584Y0146851D01*
X0073690Y0148050D02*
X0067400Y0148050D01*
X0067400Y0149248D02*
X0073241Y0149248D01*
X0073241Y0150447D02*
X0067400Y0150447D01*
X0065041Y0145653D02*
X0076705Y0145653D01*
X0078495Y0145653D02*
X0121094Y0145653D01*
X0120834Y0145737D02*
X0121523Y0145513D01*
X0122200Y0145406D01*
X0122200Y0149600D01*
X0118006Y0149600D01*
X0118113Y0148923D01*
X0118337Y0148234D01*
X0118666Y0147589D01*
X0119091Y0147003D01*
X0119603Y0146491D01*
X0120189Y0146066D01*
X0120834Y0145737D01*
X0122200Y0145653D02*
X0123000Y0145653D01*
X0123000Y0145406D02*
X0123677Y0145513D01*
X0124366Y0145737D01*
X0125011Y0146066D01*
X0125597Y0146491D01*
X0126109Y0147003D01*
X0126534Y0147589D01*
X0126863Y0148234D01*
X0127087Y0148923D01*
X0127194Y0149600D01*
X0123000Y0149600D01*
X0123000Y0145406D01*
X0124106Y0145653D02*
X0130159Y0145653D01*
X0128961Y0146851D02*
X0125957Y0146851D01*
X0126769Y0148050D02*
X0127800Y0148050D01*
X0127800Y0149248D02*
X0127138Y0149248D01*
X0127187Y0150447D02*
X0127800Y0150447D01*
X0127561Y0151645D02*
X0126902Y0151645D01*
X0127600Y0155000D02*
X0132600Y0150000D01*
X0135041Y0145653D02*
X0155088Y0145653D01*
X0152263Y0142057D02*
X0056196Y0142057D01*
X0057906Y0140859D02*
X0151064Y0140859D01*
X0150276Y0139660D02*
X0058631Y0139660D01*
X0058959Y0138462D02*
X0150200Y0138462D01*
X0150200Y0137263D02*
X0058959Y0137263D01*
X0058516Y0136065D02*
X0150200Y0136065D01*
X0150200Y0134866D02*
X0112657Y0134866D01*
X0113069Y0134695D02*
X0111467Y0135359D01*
X0109733Y0135359D01*
X0108131Y0134695D01*
X0106905Y0133469D01*
X0106241Y0131867D01*
X0106241Y0130133D01*
X0106905Y0128531D01*
X0108131Y0127305D01*
X0109733Y0126641D01*
X0111467Y0126641D01*
X0111536Y0126670D01*
X0113200Y0125006D01*
X0113200Y0107523D01*
X0113565Y0106641D01*
X0114241Y0105965D01*
X0120565Y0099641D01*
X0121241Y0098965D01*
X0122123Y0098600D01*
X0128462Y0098600D01*
X0128905Y0097531D01*
X0130106Y0096329D01*
X0128870Y0095092D01*
X0128200Y0093475D01*
X0128200Y0086525D01*
X0128870Y0084908D01*
X0130108Y0083670D01*
X0131725Y0083000D01*
X0133475Y0083000D01*
X0135092Y0083670D01*
X0136330Y0084908D01*
X0137000Y0086525D01*
X0137000Y0093475D01*
X0136330Y0095092D01*
X0135094Y0096329D01*
X0136295Y0097531D01*
X0136959Y0099133D01*
X0136959Y0100867D01*
X0136295Y0102469D01*
X0135069Y0103695D01*
X0133467Y0104359D01*
X0131733Y0104359D01*
X0130131Y0103695D01*
X0129835Y0103400D01*
X0123594Y0103400D01*
X0118000Y0108994D01*
X0118000Y0126477D01*
X0117635Y0127359D01*
X0116959Y0128035D01*
X0114930Y0130064D01*
X0114959Y0130133D01*
X0114959Y0131867D01*
X0114295Y0133469D01*
X0113069Y0134695D01*
X0114097Y0133668D02*
X0150200Y0133668D01*
X0150200Y0132469D02*
X0114710Y0132469D01*
X0114959Y0131270D02*
X0150200Y0131270D01*
X0150200Y0130072D02*
X0114934Y0130072D01*
X0116121Y0128873D02*
X0150200Y0128873D01*
X0149881Y0127675D02*
X0117319Y0127675D01*
X0118000Y0126476D02*
X0148682Y0126476D01*
X0147484Y0125278D02*
X0118000Y0125278D01*
X0118000Y0124079D02*
X0144891Y0124079D01*
X0143693Y0122881D02*
X0118000Y0122881D01*
X0118000Y0121682D02*
X0142800Y0121682D01*
X0142800Y0120484D02*
X0118000Y0120484D01*
X0118000Y0119285D02*
X0142800Y0119285D01*
X0142800Y0118087D02*
X0118000Y0118087D01*
X0118000Y0116888D02*
X0143923Y0116888D01*
X0145122Y0115690D02*
X0118000Y0115690D01*
X0118000Y0114491D02*
X0146552Y0114491D01*
X0146523Y0114487D02*
X0145834Y0114263D01*
X0145189Y0113934D01*
X0144603Y0113509D01*
X0144091Y0112997D01*
X0143666Y0112411D01*
X0143337Y0111766D01*
X0143113Y0111077D01*
X0143006Y0110400D01*
X0147200Y0110400D01*
X0147200Y0114594D01*
X0146523Y0114487D01*
X0147200Y0114491D02*
X0148000Y0114491D01*
X0148000Y0114594D02*
X0148677Y0114487D01*
X0149366Y0114263D01*
X0150011Y0113934D01*
X0150597Y0113509D01*
X0151109Y0112997D01*
X0151534Y0112411D01*
X0151863Y0111766D01*
X0152087Y0111077D01*
X0152194Y0110400D01*
X0148000Y0110400D01*
X0148000Y0109600D01*
X0152194Y0109600D01*
X0152087Y0108923D01*
X0151863Y0108234D01*
X0151534Y0107589D01*
X0151109Y0107003D01*
X0150597Y0106491D01*
X0150011Y0106066D01*
X0149366Y0105737D01*
X0148677Y0105513D01*
X0148000Y0105406D01*
X0148000Y0109600D01*
X0147200Y0109600D01*
X0147200Y0105406D01*
X0146523Y0105513D01*
X0145834Y0105737D01*
X0145189Y0106066D01*
X0144603Y0106491D01*
X0144091Y0107003D01*
X0143666Y0107589D01*
X0143337Y0108234D01*
X0143113Y0108923D01*
X0143006Y0109600D01*
X0147200Y0109600D01*
X0147200Y0110400D01*
X0148000Y0110400D01*
X0148000Y0114594D01*
X0148648Y0114491D02*
X0155303Y0114491D01*
X0155612Y0114800D02*
X0152800Y0111988D01*
X0152800Y0108012D01*
X0155612Y0105200D01*
X0159588Y0105200D01*
X0162400Y0108012D01*
X0162400Y0111988D01*
X0159588Y0114800D01*
X0155612Y0114800D01*
X0155122Y0115690D02*
X0150078Y0115690D01*
X0151277Y0116888D02*
X0153923Y0116888D01*
X0152800Y0118087D02*
X0152400Y0118087D01*
X0152400Y0119285D02*
X0152800Y0119285D01*
X0152800Y0120484D02*
X0152400Y0120484D01*
X0152400Y0121682D02*
X0152800Y0121682D01*
X0153693Y0122881D02*
X0151875Y0122881D01*
X0153074Y0124079D02*
X0154891Y0124079D01*
X0152600Y0127000D02*
X0147600Y0122000D01*
X0147600Y0120000D01*
X0147200Y0113293D02*
X0148000Y0113293D01*
X0148000Y0112094D02*
X0147200Y0112094D01*
X0147200Y0110896D02*
X0148000Y0110896D01*
X0148000Y0109697D02*
X0152800Y0109697D01*
X0152800Y0108499D02*
X0151949Y0108499D01*
X0151324Y0107300D02*
X0153512Y0107300D01*
X0154710Y0106102D02*
X0150060Y0106102D01*
X0148000Y0106102D02*
X0147200Y0106102D01*
X0147200Y0107300D02*
X0148000Y0107300D01*
X0148000Y0108499D02*
X0147200Y0108499D01*
X0147200Y0109697D02*
X0118000Y0109697D01*
X0118000Y0110896D02*
X0143085Y0110896D01*
X0143504Y0112094D02*
X0118000Y0112094D01*
X0118000Y0113293D02*
X0144387Y0113293D01*
X0143251Y0108499D02*
X0118495Y0108499D01*
X0119694Y0107300D02*
X0143876Y0107300D01*
X0145139Y0106102D02*
X0120892Y0106102D01*
X0122091Y0104903D02*
X0163200Y0104903D01*
X0163200Y0103705D02*
X0135047Y0103705D01*
X0136258Y0102506D02*
X0163200Y0102506D01*
X0163200Y0101308D02*
X0136777Y0101308D01*
X0136959Y0100109D02*
X0163200Y0100109D01*
X0163200Y0098911D02*
X0136867Y0098911D01*
X0136371Y0097712D02*
X0163200Y0097712D01*
X0162720Y0096514D02*
X0135278Y0096514D01*
X0136107Y0095315D02*
X0161521Y0095315D01*
X0160323Y0094117D02*
X0136734Y0094117D01*
X0137000Y0092918D02*
X0159124Y0092918D01*
X0157926Y0091720D02*
X0137000Y0091720D01*
X0137000Y0090521D02*
X0156727Y0090521D01*
X0152758Y0089323D02*
X0137000Y0089323D01*
X0137000Y0088124D02*
X0151762Y0088124D01*
X0151265Y0086926D02*
X0137000Y0086926D01*
X0136670Y0085727D02*
X0151241Y0085727D01*
X0151491Y0084529D02*
X0135951Y0084529D01*
X0134272Y0083330D02*
X0152105Y0083330D01*
X0153549Y0082132D02*
X0043896Y0082132D01*
X0044626Y0083330D02*
X0051535Y0083330D01*
X0051616Y0083303D02*
X0052269Y0083200D01*
X0052400Y0083200D01*
X0052400Y0089800D01*
X0048400Y0089800D01*
X0048400Y0087069D01*
X0048503Y0086416D01*
X0048708Y0085788D01*
X0049008Y0085199D01*
X0049396Y0084664D01*
X0049864Y0084196D01*
X0050399Y0083808D01*
X0050988Y0083508D01*
X0051616Y0083303D01*
X0052400Y0083330D02*
X0052800Y0083330D01*
X0052800Y0083200D02*
X0052931Y0083200D01*
X0053584Y0083303D01*
X0054212Y0083508D01*
X0054801Y0083808D01*
X0055336Y0084196D01*
X0055804Y0084664D01*
X0056192Y0085199D01*
X0056492Y0085788D01*
X0056697Y0086416D01*
X0056800Y0087069D01*
X0056800Y0089800D01*
X0052800Y0089800D01*
X0052800Y0090200D01*
X0052400Y0090200D01*
X0052400Y0096800D01*
X0052269Y0096800D01*
X0051616Y0096697D01*
X0050988Y0096492D01*
X0050399Y0096192D01*
X0049864Y0095804D01*
X0049396Y0095336D01*
X0049008Y0094801D01*
X0048708Y0094212D01*
X0048503Y0093584D01*
X0048400Y0092931D01*
X0048400Y0090200D01*
X0052400Y0090200D01*
X0052400Y0089800D01*
X0052800Y0089800D01*
X0052800Y0083200D01*
X0053665Y0083330D02*
X0060928Y0083330D01*
X0061725Y0083000D02*
X0060108Y0083670D01*
X0058870Y0084908D01*
X0058200Y0086525D01*
X0058200Y0093475D01*
X0058870Y0095092D01*
X0060108Y0096330D01*
X0061725Y0097000D01*
X0063475Y0097000D01*
X0065092Y0096330D01*
X0066330Y0095092D01*
X0067000Y0093475D01*
X0067000Y0086525D01*
X0066330Y0084908D01*
X0065092Y0083670D01*
X0063475Y0083000D01*
X0061725Y0083000D01*
X0064272Y0083330D02*
X0070928Y0083330D01*
X0071725Y0083000D02*
X0073475Y0083000D01*
X0075092Y0083670D01*
X0076330Y0084908D01*
X0077000Y0086525D01*
X0077000Y0093475D01*
X0076330Y0095092D01*
X0075092Y0096330D01*
X0073475Y0097000D01*
X0071725Y0097000D01*
X0070108Y0096330D01*
X0068870Y0095092D01*
X0068200Y0093475D01*
X0068200Y0086525D01*
X0068870Y0084908D01*
X0070108Y0083670D01*
X0071725Y0083000D01*
X0069249Y0084529D02*
X0065951Y0084529D01*
X0066670Y0085727D02*
X0068530Y0085727D01*
X0068200Y0086926D02*
X0067000Y0086926D01*
X0067000Y0088124D02*
X0068200Y0088124D01*
X0068200Y0089323D02*
X0067000Y0089323D01*
X0067000Y0090521D02*
X0068200Y0090521D01*
X0068200Y0091720D02*
X0067000Y0091720D01*
X0067000Y0092918D02*
X0068200Y0092918D01*
X0068466Y0094117D02*
X0066734Y0094117D01*
X0066107Y0095315D02*
X0069093Y0095315D01*
X0070551Y0096514D02*
X0064649Y0096514D01*
X0060551Y0096514D02*
X0054146Y0096514D01*
X0054212Y0096492D02*
X0053584Y0096697D01*
X0052931Y0096800D01*
X0052800Y0096800D01*
X0052800Y0090200D01*
X0056800Y0090200D01*
X0056800Y0092931D01*
X0056697Y0093584D01*
X0056492Y0094212D01*
X0056192Y0094801D01*
X0055804Y0095336D01*
X0055336Y0095804D01*
X0054801Y0096192D01*
X0054212Y0096492D01*
X0052800Y0096514D02*
X0052400Y0096514D01*
X0052400Y0095315D02*
X0052800Y0095315D01*
X0052800Y0094117D02*
X0052400Y0094117D01*
X0052400Y0092918D02*
X0052800Y0092918D01*
X0052800Y0091720D02*
X0052400Y0091720D01*
X0052400Y0090521D02*
X0052800Y0090521D01*
X0052600Y0090000D02*
X0037600Y0090000D01*
X0039543Y0091720D02*
X0019274Y0091720D01*
X0018076Y0092918D02*
X0037517Y0092918D01*
X0036662Y0094117D02*
X0016877Y0094117D01*
X0015679Y0095315D02*
X0036241Y0095315D01*
X0036241Y0096514D02*
X0014480Y0096514D01*
X0013282Y0097712D02*
X0036591Y0097712D01*
X0037346Y0098911D02*
X0012083Y0098911D01*
X0011000Y0100109D02*
X0038200Y0100109D01*
X0038200Y0101308D02*
X0011000Y0101308D01*
X0011000Y0102506D02*
X0038200Y0102506D01*
X0038200Y0103705D02*
X0011000Y0103705D01*
X0011000Y0104903D02*
X0038200Y0104903D01*
X0040600Y0107000D02*
X0040600Y0096000D01*
X0043683Y0092918D02*
X0048400Y0092918D01*
X0048400Y0091720D02*
X0041657Y0091720D01*
X0041555Y0089323D02*
X0048400Y0089323D01*
X0048400Y0090521D02*
X0020473Y0090521D01*
X0021672Y0089323D02*
X0039645Y0089323D01*
X0043641Y0088124D02*
X0048400Y0088124D01*
X0048423Y0086926D02*
X0044521Y0086926D01*
X0044959Y0085727D02*
X0048739Y0085727D01*
X0049532Y0084529D02*
X0044959Y0084529D01*
X0043000Y0079734D02*
X0152225Y0079734D01*
X0150971Y0078536D02*
X0043000Y0078536D01*
X0043000Y0077337D02*
X0150436Y0077337D01*
X0150241Y0076139D02*
X0043000Y0076139D01*
X0043000Y0074940D02*
X0150321Y0074940D01*
X0150817Y0073742D02*
X0043000Y0073742D01*
X0043451Y0072543D02*
X0151892Y0072543D01*
X0154600Y0076000D02*
X0166600Y0076000D01*
X0171600Y0081000D01*
X0171600Y0186000D01*
X0157600Y0200000D01*
X0161207Y0203181D02*
X0173921Y0203181D01*
X0173921Y0201983D02*
X0162400Y0201983D01*
X0162400Y0200784D02*
X0173921Y0200784D01*
X0173921Y0199586D02*
X0162400Y0199586D01*
X0162607Y0198387D02*
X0173921Y0198387D01*
X0173921Y0197189D02*
X0163805Y0197189D01*
X0165004Y0195990D02*
X0173921Y0195990D01*
X0173921Y0194792D02*
X0166203Y0194792D01*
X0167401Y0193593D02*
X0173921Y0193593D01*
X0173921Y0192395D02*
X0168600Y0192395D01*
X0169798Y0191196D02*
X0173921Y0191196D01*
X0173921Y0189998D02*
X0170997Y0189998D01*
X0172195Y0188799D02*
X0173921Y0188799D01*
X0173921Y0187601D02*
X0173394Y0187601D01*
X0169002Y0185203D02*
X0160000Y0185203D01*
X0160000Y0184005D02*
X0169200Y0184005D01*
X0169200Y0182806D02*
X0160000Y0182806D01*
X0159602Y0181608D02*
X0169200Y0181608D01*
X0169200Y0180409D02*
X0158404Y0180409D01*
X0157205Y0179211D02*
X0169200Y0179211D01*
X0169200Y0178012D02*
X0156959Y0178012D01*
X0156827Y0176814D02*
X0169200Y0176814D01*
X0169200Y0175615D02*
X0156330Y0175615D01*
X0155182Y0174417D02*
X0169200Y0174417D01*
X0167804Y0186402D02*
X0160790Y0186402D01*
X0161989Y0187601D02*
X0166605Y0187601D01*
X0165407Y0188799D02*
X0162400Y0188799D01*
X0162400Y0189998D02*
X0164208Y0189998D01*
X0163010Y0191196D02*
X0162400Y0191196D01*
X0157600Y0190000D02*
X0157600Y0183000D01*
X0152600Y0178000D01*
X0148241Y0178012D02*
X0124304Y0178012D01*
X0125951Y0176814D02*
X0148373Y0176814D01*
X0148383Y0179211D02*
X0107205Y0179211D01*
X0108404Y0180409D02*
X0148880Y0180409D01*
X0150043Y0181608D02*
X0109602Y0181608D01*
X0110801Y0182806D02*
X0154012Y0182806D01*
X0155200Y0184005D02*
X0111999Y0184005D01*
X0113198Y0185203D02*
X0155200Y0185203D01*
X0154410Y0186402D02*
X0150474Y0186402D01*
X0150597Y0186491D02*
X0151109Y0187003D01*
X0151534Y0187589D01*
X0151863Y0188234D01*
X0152087Y0188923D01*
X0152194Y0189600D01*
X0148000Y0189600D01*
X0148000Y0190400D01*
X0152194Y0190400D01*
X0152087Y0191077D01*
X0151863Y0191766D01*
X0151534Y0192411D01*
X0151109Y0192997D01*
X0150597Y0193509D01*
X0150011Y0193934D01*
X0149366Y0194263D01*
X0148677Y0194487D01*
X0148000Y0194594D01*
X0148000Y0190400D01*
X0147200Y0190400D01*
X0147200Y0194594D01*
X0146523Y0194487D01*
X0145834Y0194263D01*
X0145189Y0193934D01*
X0144603Y0193509D01*
X0144091Y0192997D01*
X0143666Y0192411D01*
X0143337Y0191766D01*
X0143113Y0191077D01*
X0143006Y0190400D01*
X0147200Y0190400D01*
X0147200Y0189600D01*
X0148000Y0189600D01*
X0148000Y0185406D01*
X0148677Y0185513D01*
X0149366Y0185737D01*
X0150011Y0186066D01*
X0150597Y0186491D01*
X0151540Y0187601D02*
X0153211Y0187601D01*
X0152800Y0188799D02*
X0152046Y0188799D01*
X0152800Y0189998D02*
X0148000Y0189998D01*
X0147600Y0190000D02*
X0142600Y0185000D01*
X0142600Y0139000D01*
X0138600Y0135000D01*
X0132600Y0135000D01*
X0123000Y0146851D02*
X0122200Y0146851D01*
X0122200Y0148050D02*
X0123000Y0148050D01*
X0123000Y0149248D02*
X0122200Y0149248D01*
X0119243Y0146851D02*
X0080616Y0146851D01*
X0081510Y0148050D02*
X0118431Y0148050D01*
X0118062Y0149248D02*
X0081959Y0149248D01*
X0081959Y0150447D02*
X0118013Y0150447D01*
X0118298Y0151645D02*
X0081637Y0151645D01*
X0080921Y0152844D02*
X0105534Y0152844D01*
X0101767Y0156439D02*
X0065827Y0156439D01*
X0064738Y0155241D02*
X0064629Y0155241D01*
X0062600Y0160000D02*
X0074600Y0160000D01*
X0075600Y0161000D01*
X0071475Y0162432D02*
X0066956Y0162432D01*
X0065758Y0163630D02*
X0072066Y0163630D01*
X0073453Y0164829D02*
X0051165Y0164829D01*
X0047800Y0161233D02*
X0011000Y0161233D01*
X0011000Y0160035D02*
X0024391Y0160035D01*
X0024270Y0159984D02*
X0022616Y0158330D01*
X0021720Y0156170D01*
X0021720Y0153830D01*
X0022616Y0151670D01*
X0024270Y0150016D01*
X0026430Y0149120D01*
X0028770Y0149120D01*
X0030930Y0150016D01*
X0032584Y0151670D01*
X0033480Y0153830D01*
X0033480Y0156170D01*
X0032584Y0158330D01*
X0030930Y0159984D01*
X0028770Y0160880D01*
X0026430Y0160880D01*
X0024270Y0159984D01*
X0023121Y0158836D02*
X0011000Y0158836D01*
X0011000Y0157638D02*
X0022329Y0157638D01*
X0021832Y0156439D02*
X0011000Y0156439D01*
X0011000Y0155241D02*
X0021720Y0155241D01*
X0021720Y0154042D02*
X0011000Y0154042D01*
X0011000Y0152844D02*
X0022129Y0152844D01*
X0022640Y0151645D02*
X0011000Y0151645D01*
X0011000Y0150447D02*
X0023838Y0150447D01*
X0026122Y0149248D02*
X0011000Y0149248D01*
X0011000Y0148050D02*
X0048431Y0148050D01*
X0048062Y0149248D02*
X0029078Y0149248D01*
X0031362Y0150447D02*
X0048013Y0150447D01*
X0048298Y0151645D02*
X0032560Y0151645D01*
X0033071Y0152844D02*
X0048980Y0152844D01*
X0050401Y0154042D02*
X0033480Y0154042D01*
X0033480Y0155241D02*
X0050571Y0155241D01*
X0049373Y0156439D02*
X0033368Y0156439D01*
X0032871Y0157638D02*
X0048174Y0157638D01*
X0047800Y0158836D02*
X0032079Y0158836D01*
X0030809Y0160035D02*
X0047800Y0160035D01*
X0046774Y0162432D02*
X0011000Y0162432D01*
X0011000Y0163630D02*
X0045576Y0163630D01*
X0044377Y0164829D02*
X0011000Y0164829D01*
X0011000Y0166027D02*
X0020179Y0166027D01*
X0018980Y0167226D02*
X0011000Y0167226D01*
X0011000Y0168424D02*
X0017782Y0168424D01*
X0016583Y0169623D02*
X0011000Y0169623D01*
X0011000Y0170821D02*
X0016200Y0170821D01*
X0015415Y0172020D02*
X0011000Y0172020D01*
X0011000Y0173218D02*
X0014620Y0173218D01*
X0014241Y0174417D02*
X0011000Y0174417D01*
X0011000Y0175615D02*
X0014241Y0175615D01*
X0014633Y0176814D02*
X0011000Y0176814D01*
X0011000Y0178012D02*
X0015448Y0178012D01*
X0011000Y0181608D02*
X0090548Y0181608D01*
X0091242Y0182806D02*
X0011000Y0182806D01*
X0011000Y0184005D02*
X0092878Y0184005D01*
X0095200Y0185203D02*
X0039592Y0185203D01*
X0040790Y0186402D02*
X0059033Y0186402D01*
X0061600Y0190000D02*
X0037600Y0190000D01*
X0034410Y0186402D02*
X0030474Y0186402D01*
X0030597Y0186491D02*
X0031109Y0187003D01*
X0031534Y0187589D01*
X0031863Y0188234D01*
X0032087Y0188923D01*
X0032194Y0189600D01*
X0028000Y0189600D01*
X0028000Y0185406D01*
X0028677Y0185513D01*
X0029366Y0185737D01*
X0030011Y0186066D01*
X0030597Y0186491D01*
X0031540Y0187601D02*
X0033211Y0187601D01*
X0032800Y0188799D02*
X0032046Y0188799D01*
X0032800Y0189998D02*
X0028000Y0189998D01*
X0028000Y0188799D02*
X0027200Y0188799D01*
X0027200Y0187601D02*
X0028000Y0187601D01*
X0028000Y0186402D02*
X0027200Y0186402D01*
X0024726Y0186402D02*
X0011396Y0186402D01*
X0011000Y0185203D02*
X0035608Y0185203D01*
X0032800Y0191196D02*
X0032048Y0191196D01*
X0031543Y0192395D02*
X0033206Y0192395D01*
X0040795Y0193593D02*
X0059028Y0193593D01*
X0064172Y0193593D02*
X0084719Y0193593D01*
X0084603Y0193509D02*
X0085189Y0193934D01*
X0085834Y0194263D01*
X0086523Y0194487D01*
X0087200Y0194594D01*
X0087200Y0190400D01*
X0088000Y0190400D01*
X0088000Y0189600D01*
X0092194Y0189600D01*
X0092087Y0188923D01*
X0091863Y0188234D01*
X0091534Y0187589D01*
X0091109Y0187003D01*
X0090597Y0186491D01*
X0090011Y0186066D01*
X0089366Y0185737D01*
X0088677Y0185513D01*
X0088000Y0185406D01*
X0088000Y0189600D01*
X0087200Y0189600D01*
X0087200Y0185406D01*
X0086523Y0185513D01*
X0085834Y0185737D01*
X0085189Y0186066D01*
X0084603Y0186491D01*
X0084091Y0187003D01*
X0083666Y0187589D01*
X0083337Y0188234D01*
X0083113Y0188923D01*
X0083006Y0189600D01*
X0087200Y0189600D01*
X0087200Y0190400D01*
X0083006Y0190400D01*
X0083113Y0191077D01*
X0083337Y0191766D01*
X0083666Y0192411D01*
X0084091Y0192997D01*
X0084603Y0193509D01*
X0083657Y0192395D02*
X0065326Y0192395D01*
X0065823Y0191196D02*
X0083152Y0191196D01*
X0083153Y0188799D02*
X0065821Y0188799D01*
X0065959Y0189998D02*
X0087200Y0189998D01*
X0087600Y0190000D02*
X0087600Y0145000D01*
X0077600Y0150000D02*
X0074600Y0153000D01*
X0057631Y0134866D02*
X0095543Y0134866D01*
X0094103Y0133668D02*
X0055531Y0133668D01*
X0055000Y0132469D02*
X0093490Y0132469D01*
X0093241Y0131270D02*
X0055000Y0131270D01*
X0055693Y0130072D02*
X0093266Y0130072D01*
X0092079Y0128873D02*
X0056249Y0128873D01*
X0056500Y0127675D02*
X0090881Y0127675D01*
X0089682Y0126476D02*
X0056394Y0126476D01*
X0055898Y0125278D02*
X0088484Y0125278D01*
X0087285Y0124079D02*
X0054844Y0124079D01*
X0054100Y0127500D02*
X0052100Y0127500D01*
X0052600Y0129000D02*
X0054100Y0127500D01*
X0052600Y0129000D02*
X0052600Y0136000D01*
X0054600Y0138000D01*
X0050241Y0137263D02*
X0035000Y0137263D01*
X0035000Y0136065D02*
X0050200Y0136065D01*
X0050200Y0134866D02*
X0035000Y0134866D01*
X0035000Y0133668D02*
X0050200Y0133668D01*
X0050200Y0132469D02*
X0035000Y0132469D01*
X0035000Y0131270D02*
X0049812Y0131270D01*
X0048507Y0130072D02*
X0035000Y0130072D01*
X0035000Y0128873D02*
X0047951Y0128873D01*
X0047741Y0127675D02*
X0035000Y0127675D01*
X0035000Y0126476D02*
X0047806Y0126476D01*
X0048302Y0125278D02*
X0035000Y0125278D01*
X0030200Y0125278D02*
X0025716Y0125278D01*
X0024518Y0126476D02*
X0030200Y0126476D01*
X0030200Y0127675D02*
X0023319Y0127675D01*
X0022121Y0128873D02*
X0030200Y0128873D01*
X0030200Y0130072D02*
X0020922Y0130072D01*
X0020000Y0131270D02*
X0030200Y0131270D01*
X0030200Y0132469D02*
X0020000Y0132469D01*
X0022432Y0133668D02*
X0030200Y0133668D01*
X0030200Y0134866D02*
X0023434Y0134866D01*
X0023931Y0136065D02*
X0030200Y0136065D01*
X0030200Y0137263D02*
X0023959Y0137263D01*
X0023713Y0138462D02*
X0030200Y0138462D01*
X0030200Y0139660D02*
X0023105Y0139660D01*
X0021675Y0140859D02*
X0030200Y0140859D01*
X0030200Y0142057D02*
X0011000Y0142057D01*
X0011000Y0140859D02*
X0017525Y0140859D01*
X0016095Y0139660D02*
X0011000Y0139660D01*
X0011000Y0143256D02*
X0030402Y0143256D01*
X0030898Y0144454D02*
X0011000Y0144454D01*
X0011000Y0145653D02*
X0032088Y0145653D01*
X0019600Y0137000D02*
X0017600Y0135000D01*
X0017600Y0130000D01*
X0027600Y0120000D01*
X0024387Y0113293D02*
X0011000Y0113293D01*
X0011000Y0112094D02*
X0023504Y0112094D01*
X0023085Y0110896D02*
X0011000Y0110896D01*
X0032600Y0114000D02*
X0036600Y0110000D01*
X0037600Y0110000D01*
X0040600Y0107000D01*
X0042495Y0108499D02*
X0113200Y0108499D01*
X0113200Y0109697D02*
X0042400Y0109697D01*
X0042400Y0110896D02*
X0113200Y0110896D01*
X0113200Y0112094D02*
X0042294Y0112094D01*
X0041095Y0113293D02*
X0113200Y0113293D01*
X0113200Y0114491D02*
X0084485Y0114491D01*
X0085684Y0115690D02*
X0113200Y0115690D01*
X0113200Y0116888D02*
X0086882Y0116888D01*
X0088081Y0118087D02*
X0113200Y0118087D01*
X0113200Y0119285D02*
X0089279Y0119285D01*
X0090478Y0120484D02*
X0113200Y0120484D01*
X0113200Y0121682D02*
X0091676Y0121682D01*
X0092875Y0122881D02*
X0113200Y0122881D01*
X0113200Y0124079D02*
X0094074Y0124079D01*
X0095272Y0125278D02*
X0112928Y0125278D01*
X0111729Y0126476D02*
X0096471Y0126476D01*
X0100440Y0127675D02*
X0107760Y0127675D01*
X0106763Y0128873D02*
X0101437Y0128873D01*
X0101934Y0130072D02*
X0106266Y0130072D01*
X0106241Y0131270D02*
X0101959Y0131270D01*
X0101710Y0132469D02*
X0106490Y0132469D01*
X0107103Y0133668D02*
X0101097Y0133668D01*
X0099657Y0134866D02*
X0108543Y0134866D01*
X0110600Y0131000D02*
X0115600Y0126000D01*
X0115600Y0108000D01*
X0122600Y0101000D01*
X0132600Y0101000D01*
X0132600Y0100000D01*
X0129922Y0096514D02*
X0124649Y0096514D01*
X0125092Y0096330D02*
X0123475Y0097000D01*
X0121725Y0097000D01*
X0120108Y0096330D01*
X0118870Y0095092D01*
X0118200Y0093475D01*
X0118200Y0086525D01*
X0118870Y0084908D01*
X0120108Y0083670D01*
X0121725Y0083000D01*
X0123475Y0083000D01*
X0125092Y0083670D01*
X0126330Y0084908D01*
X0127000Y0086525D01*
X0127000Y0093475D01*
X0126330Y0095092D01*
X0125092Y0096330D01*
X0126107Y0095315D02*
X0129093Y0095315D01*
X0128466Y0094117D02*
X0126734Y0094117D01*
X0127000Y0092918D02*
X0128200Y0092918D01*
X0128200Y0091720D02*
X0127000Y0091720D01*
X0127000Y0090521D02*
X0128200Y0090521D01*
X0128200Y0089323D02*
X0127000Y0089323D01*
X0127000Y0088124D02*
X0128200Y0088124D01*
X0128200Y0086926D02*
X0127000Y0086926D01*
X0126670Y0085727D02*
X0128530Y0085727D01*
X0129249Y0084529D02*
X0125951Y0084529D01*
X0124272Y0083330D02*
X0130928Y0083330D01*
X0120928Y0083330D02*
X0114272Y0083330D01*
X0113475Y0083000D02*
X0115092Y0083670D01*
X0116330Y0084908D01*
X0117000Y0086525D01*
X0117000Y0093475D01*
X0116330Y0095092D01*
X0115092Y0096330D01*
X0113475Y0097000D01*
X0111725Y0097000D01*
X0110108Y0096330D01*
X0108870Y0095092D01*
X0108200Y0093475D01*
X0108200Y0086525D01*
X0108870Y0084908D01*
X0110108Y0083670D01*
X0111725Y0083000D01*
X0113475Y0083000D01*
X0110928Y0083330D02*
X0104272Y0083330D01*
X0103475Y0083000D02*
X0101725Y0083000D01*
X0100108Y0083670D01*
X0098870Y0084908D01*
X0098200Y0086525D01*
X0098200Y0093475D01*
X0098870Y0095092D01*
X0100108Y0096330D01*
X0101725Y0097000D01*
X0103475Y0097000D01*
X0105092Y0096330D01*
X0106330Y0095092D01*
X0107000Y0093475D01*
X0107000Y0086525D01*
X0106330Y0084908D01*
X0105092Y0083670D01*
X0103475Y0083000D01*
X0100928Y0083330D02*
X0094272Y0083330D01*
X0093475Y0083000D02*
X0095092Y0083670D01*
X0096330Y0084908D01*
X0097000Y0086525D01*
X0097000Y0093475D01*
X0096330Y0095092D01*
X0095092Y0096330D01*
X0093475Y0097000D01*
X0091725Y0097000D01*
X0090108Y0096330D01*
X0088870Y0095092D01*
X0088200Y0093475D01*
X0088200Y0086525D01*
X0088870Y0084908D01*
X0090108Y0083670D01*
X0091725Y0083000D01*
X0093475Y0083000D01*
X0090928Y0083330D02*
X0084272Y0083330D01*
X0083475Y0083000D02*
X0081725Y0083000D01*
X0080108Y0083670D01*
X0078870Y0084908D01*
X0078200Y0086525D01*
X0078200Y0093475D01*
X0078870Y0095092D01*
X0080108Y0096330D01*
X0081725Y0097000D01*
X0083475Y0097000D01*
X0085092Y0096330D01*
X0086330Y0095092D01*
X0087000Y0093475D01*
X0087000Y0086525D01*
X0086330Y0084908D01*
X0085092Y0083670D01*
X0083475Y0083000D01*
X0085951Y0084529D02*
X0089249Y0084529D01*
X0088530Y0085727D02*
X0086670Y0085727D01*
X0087000Y0086926D02*
X0088200Y0086926D01*
X0088200Y0088124D02*
X0087000Y0088124D01*
X0087000Y0089323D02*
X0088200Y0089323D01*
X0088200Y0090521D02*
X0087000Y0090521D01*
X0087000Y0091720D02*
X0088200Y0091720D01*
X0088200Y0092918D02*
X0087000Y0092918D01*
X0086734Y0094117D02*
X0088466Y0094117D01*
X0089093Y0095315D02*
X0086107Y0095315D01*
X0084649Y0096514D02*
X0090551Y0096514D01*
X0094649Y0096514D02*
X0100551Y0096514D01*
X0099093Y0095315D02*
X0096107Y0095315D01*
X0096734Y0094117D02*
X0098466Y0094117D01*
X0098200Y0092918D02*
X0097000Y0092918D01*
X0097000Y0091720D02*
X0098200Y0091720D01*
X0098200Y0090521D02*
X0097000Y0090521D01*
X0097000Y0089323D02*
X0098200Y0089323D01*
X0098200Y0088124D02*
X0097000Y0088124D01*
X0097000Y0086926D02*
X0098200Y0086926D01*
X0098530Y0085727D02*
X0096670Y0085727D01*
X0095951Y0084529D02*
X0099249Y0084529D01*
X0105951Y0084529D02*
X0109249Y0084529D01*
X0108530Y0085727D02*
X0106670Y0085727D01*
X0107000Y0086926D02*
X0108200Y0086926D01*
X0108200Y0088124D02*
X0107000Y0088124D01*
X0107000Y0089323D02*
X0108200Y0089323D01*
X0108200Y0090521D02*
X0107000Y0090521D01*
X0107000Y0091720D02*
X0108200Y0091720D01*
X0108200Y0092918D02*
X0107000Y0092918D01*
X0106734Y0094117D02*
X0108466Y0094117D01*
X0109093Y0095315D02*
X0106107Y0095315D01*
X0104649Y0096514D02*
X0110551Y0096514D01*
X0114649Y0096514D02*
X0120551Y0096514D01*
X0119093Y0095315D02*
X0116107Y0095315D01*
X0116734Y0094117D02*
X0118466Y0094117D01*
X0118200Y0092918D02*
X0117000Y0092918D01*
X0117000Y0091720D02*
X0118200Y0091720D01*
X0118200Y0090521D02*
X0117000Y0090521D01*
X0117000Y0089323D02*
X0118200Y0089323D01*
X0118200Y0088124D02*
X0117000Y0088124D01*
X0117000Y0086926D02*
X0118200Y0086926D01*
X0118530Y0085727D02*
X0116670Y0085727D01*
X0115951Y0084529D02*
X0119249Y0084529D01*
X0128829Y0097712D02*
X0044609Y0097712D01*
X0044959Y0096514D02*
X0051054Y0096514D01*
X0049381Y0095315D02*
X0044959Y0095315D01*
X0044538Y0094117D02*
X0048677Y0094117D01*
X0052400Y0089323D02*
X0052800Y0089323D01*
X0052800Y0088124D02*
X0052400Y0088124D01*
X0052400Y0086926D02*
X0052800Y0086926D01*
X0052800Y0085727D02*
X0052400Y0085727D01*
X0052400Y0084529D02*
X0052800Y0084529D01*
X0055668Y0084529D02*
X0059249Y0084529D01*
X0058530Y0085727D02*
X0056461Y0085727D01*
X0056777Y0086926D02*
X0058200Y0086926D01*
X0058200Y0088124D02*
X0056800Y0088124D01*
X0056800Y0089323D02*
X0058200Y0089323D01*
X0058200Y0090521D02*
X0056800Y0090521D01*
X0056800Y0091720D02*
X0058200Y0091720D01*
X0058200Y0092918D02*
X0056800Y0092918D01*
X0056523Y0094117D02*
X0058466Y0094117D01*
X0059093Y0095315D02*
X0055819Y0095315D01*
X0043854Y0098911D02*
X0121373Y0098911D01*
X0120097Y0100109D02*
X0043000Y0100109D01*
X0043000Y0101308D02*
X0118898Y0101308D01*
X0117700Y0102506D02*
X0043000Y0102506D01*
X0043000Y0103705D02*
X0116501Y0103705D01*
X0115303Y0104903D02*
X0043000Y0104903D01*
X0043000Y0106102D02*
X0114104Y0106102D01*
X0113292Y0107300D02*
X0043000Y0107300D01*
X0041600Y0116000D02*
X0082600Y0116000D01*
X0097600Y0131000D01*
X0086087Y0122881D02*
X0041507Y0122881D01*
X0042400Y0121682D02*
X0084888Y0121682D01*
X0083690Y0120484D02*
X0042400Y0120484D01*
X0042400Y0119285D02*
X0082491Y0119285D01*
X0080551Y0096514D02*
X0074649Y0096514D01*
X0076107Y0095315D02*
X0079093Y0095315D01*
X0078466Y0094117D02*
X0076734Y0094117D01*
X0077000Y0092918D02*
X0078200Y0092918D01*
X0078200Y0091720D02*
X0077000Y0091720D01*
X0077000Y0090521D02*
X0078200Y0090521D01*
X0078200Y0089323D02*
X0077000Y0089323D01*
X0077000Y0088124D02*
X0078200Y0088124D01*
X0078200Y0086926D02*
X0077000Y0086926D01*
X0076670Y0085727D02*
X0078530Y0085727D01*
X0079249Y0084529D02*
X0075951Y0084529D01*
X0074272Y0083330D02*
X0080928Y0083330D01*
X0082600Y0060000D02*
X0082600Y0045000D01*
X0072600Y0045000D02*
X0072600Y0060000D01*
X0068782Y0050970D02*
X0055000Y0050970D01*
X0055000Y0049772D02*
X0068138Y0049772D01*
X0067800Y0048573D02*
X0055421Y0048573D01*
X0056619Y0047375D02*
X0067800Y0047375D01*
X0067800Y0046176D02*
X0057818Y0046176D01*
X0059016Y0044978D02*
X0067800Y0044978D01*
X0067800Y0043779D02*
X0060215Y0043779D01*
X0061413Y0042581D02*
X0067800Y0042581D01*
X0067800Y0041382D02*
X0062612Y0041382D01*
X0063810Y0040184D02*
X0068157Y0040184D01*
X0068827Y0038985D02*
X0065009Y0038985D01*
X0066207Y0037787D02*
X0070229Y0037787D01*
X0067406Y0036588D02*
X0134794Y0036588D01*
X0134971Y0037787D02*
X0135992Y0037787D01*
X0136373Y0038985D02*
X0137191Y0038985D01*
X0137043Y0040184D02*
X0138157Y0040184D01*
X0137800Y0041382D02*
X0137400Y0041382D01*
X0137400Y0042581D02*
X0137800Y0042581D01*
X0137800Y0043779D02*
X0137400Y0043779D01*
X0141582Y0036588D02*
X0173921Y0036588D01*
X0173921Y0035390D02*
X0140384Y0035390D01*
X0139185Y0034191D02*
X0173921Y0034191D01*
X0173921Y0032993D02*
X0137987Y0032993D01*
X0136788Y0031794D02*
X0173394Y0031794D01*
X0173921Y0068948D02*
X0047046Y0068948D01*
X0045848Y0070146D02*
X0173921Y0070146D01*
X0173921Y0071345D02*
X0044649Y0071345D01*
X0041600Y0116000D02*
X0037600Y0120000D01*
X0040309Y0124079D02*
X0049356Y0124079D01*
X0049243Y0146851D02*
X0011000Y0146851D01*
X0012595Y0187601D02*
X0023660Y0187601D01*
X0023153Y0188799D02*
X0013793Y0188799D01*
X0006200Y0198387D02*
X0022800Y0198387D01*
X0022800Y0199586D02*
X0006200Y0199586D01*
X0006200Y0200784D02*
X0022800Y0200784D01*
X0022800Y0201983D02*
X0006200Y0201983D01*
X0006200Y0203181D02*
X0023993Y0203181D01*
X0025191Y0204380D02*
X0006200Y0204380D01*
X0006200Y0205578D02*
X0025784Y0205578D01*
X0026983Y0206777D02*
X0006200Y0206777D01*
X0006200Y0207975D02*
X0028181Y0207975D01*
X0029576Y0209174D02*
X0006200Y0209174D01*
X0027600Y0204000D02*
X0027600Y0200000D01*
X0027600Y0204000D02*
X0030600Y0207000D01*
X0049600Y0207000D01*
X0053959Y0206777D02*
X0095324Y0206777D01*
X0095200Y0205578D02*
X0053729Y0205578D01*
X0053144Y0204380D02*
X0085191Y0204380D01*
X0083993Y0203181D02*
X0075583Y0203181D01*
X0072600Y0200000D02*
X0087600Y0200000D01*
X0083623Y0197189D02*
X0075953Y0197189D01*
X0074310Y0195990D02*
X0084822Y0195990D01*
X0087200Y0193593D02*
X0088000Y0193593D01*
X0088000Y0192395D02*
X0087200Y0192395D01*
X0087200Y0191196D02*
X0088000Y0191196D01*
X0088000Y0189998D02*
X0092800Y0189998D01*
X0092800Y0191196D02*
X0092048Y0191196D01*
X0091543Y0192395D02*
X0093206Y0192395D01*
X0092800Y0188799D02*
X0092046Y0188799D01*
X0091540Y0187601D02*
X0093211Y0187601D01*
X0094410Y0186402D02*
X0090474Y0186402D01*
X0088000Y0186402D02*
X0087200Y0186402D01*
X0087200Y0187601D02*
X0088000Y0187601D01*
X0088000Y0188799D02*
X0087200Y0188799D01*
X0084726Y0186402D02*
X0064167Y0186402D01*
X0065324Y0187601D02*
X0083660Y0187601D01*
X0090009Y0204380D02*
X0095191Y0204380D01*
X0096181Y0207975D02*
X0053914Y0207975D01*
X0053418Y0209174D02*
X0097380Y0209174D01*
X0116793Y0188799D02*
X0143153Y0188799D01*
X0143113Y0188923D02*
X0143337Y0188234D01*
X0143666Y0187589D01*
X0144091Y0187003D01*
X0144603Y0186491D01*
X0145189Y0186066D01*
X0145834Y0185737D01*
X0146523Y0185513D01*
X0147200Y0185406D01*
X0147200Y0189600D01*
X0143006Y0189600D01*
X0143113Y0188923D01*
X0143660Y0187601D02*
X0115595Y0187601D01*
X0114396Y0186402D02*
X0144726Y0186402D01*
X0147200Y0186402D02*
X0148000Y0186402D01*
X0148000Y0187601D02*
X0147200Y0187601D01*
X0147200Y0188799D02*
X0148000Y0188799D01*
X0147200Y0189998D02*
X0117992Y0189998D01*
X0119190Y0191196D02*
X0143152Y0191196D01*
X0143657Y0192395D02*
X0120389Y0192395D01*
X0121587Y0193593D02*
X0144719Y0193593D01*
X0145612Y0195200D02*
X0149588Y0195200D01*
X0152400Y0198012D01*
X0152400Y0201988D01*
X0149588Y0204800D01*
X0146194Y0204800D01*
X0143635Y0207359D01*
X0142959Y0208035D01*
X0142077Y0208400D01*
X0134123Y0208400D01*
X0133241Y0208035D01*
X0131241Y0206035D01*
X0130565Y0205359D01*
X0130200Y0204477D01*
X0130200Y0203724D01*
X0130131Y0203695D01*
X0128905Y0202469D01*
X0128241Y0200867D01*
X0128241Y0199133D01*
X0128905Y0197531D01*
X0130131Y0196305D01*
X0131733Y0195641D01*
X0133467Y0195641D01*
X0135069Y0196305D01*
X0136295Y0197531D01*
X0136959Y0199133D01*
X0136959Y0200867D01*
X0136295Y0202469D01*
X0135379Y0203385D01*
X0135594Y0203600D01*
X0140606Y0203600D01*
X0142800Y0201406D01*
X0142800Y0198012D01*
X0145612Y0195200D01*
X0144822Y0195990D02*
X0134310Y0195990D01*
X0135953Y0197189D02*
X0143623Y0197189D01*
X0142800Y0198387D02*
X0136650Y0198387D01*
X0136959Y0199586D02*
X0142800Y0199586D01*
X0142800Y0200784D02*
X0136959Y0200784D01*
X0136497Y0201983D02*
X0142223Y0201983D01*
X0141025Y0203181D02*
X0135583Y0203181D01*
X0134600Y0206000D02*
X0132600Y0204000D01*
X0132600Y0200000D01*
X0130890Y0195990D02*
X0123779Y0195990D01*
X0124000Y0197189D02*
X0129247Y0197189D01*
X0128550Y0198387D02*
X0124000Y0198387D01*
X0124000Y0199586D02*
X0128241Y0199586D01*
X0128241Y0200784D02*
X0124000Y0200784D01*
X0124000Y0201983D02*
X0128703Y0201983D01*
X0129617Y0203181D02*
X0124000Y0203181D01*
X0124000Y0204380D02*
X0130200Y0204380D01*
X0130784Y0205578D02*
X0123958Y0205578D01*
X0123217Y0206777D02*
X0131983Y0206777D01*
X0133181Y0207975D02*
X0122019Y0207975D01*
X0120820Y0209174D02*
X0173921Y0209174D01*
X0173921Y0207975D02*
X0143019Y0207975D01*
X0144217Y0206777D02*
X0173921Y0206777D01*
X0173921Y0205578D02*
X0145416Y0205578D01*
X0141600Y0206000D02*
X0134600Y0206000D01*
X0141600Y0206000D02*
X0147600Y0200000D01*
X0151207Y0203181D02*
X0153993Y0203181D01*
X0152800Y0201983D02*
X0152400Y0201983D01*
X0152400Y0200784D02*
X0152800Y0200784D01*
X0152800Y0199586D02*
X0152400Y0199586D01*
X0152400Y0198387D02*
X0152800Y0198387D01*
X0153623Y0197189D02*
X0151577Y0197189D01*
X0150378Y0195990D02*
X0154822Y0195990D01*
X0155603Y0194792D02*
X0122786Y0194792D01*
X0121600Y0197000D02*
X0099600Y0175000D01*
X0103580Y0173218D02*
X0103654Y0173218D01*
X0103959Y0174417D02*
X0118241Y0174417D01*
X0118241Y0173218D02*
X0109546Y0173218D01*
X0110482Y0172020D02*
X0118702Y0172020D01*
X0119614Y0170821D02*
X0110959Y0170821D01*
X0110959Y0169623D02*
X0130200Y0169623D01*
X0130200Y0168424D02*
X0110666Y0168424D01*
X0109990Y0167226D02*
X0130200Y0167226D01*
X0130200Y0166027D02*
X0110967Y0166027D01*
X0112165Y0164829D02*
X0130200Y0164829D01*
X0129385Y0170821D02*
X0125586Y0170821D01*
X0122600Y0174000D02*
X0129600Y0174000D01*
X0120896Y0178012D02*
X0106007Y0178012D01*
X0104808Y0176814D02*
X0119249Y0176814D01*
X0118551Y0175615D02*
X0103959Y0175615D01*
X0106600Y0170000D02*
X0105100Y0168500D01*
X0113600Y0160000D01*
X0122600Y0160000D01*
X0119442Y0163630D02*
X0113364Y0163630D01*
X0114562Y0162432D02*
X0118244Y0162432D01*
X0121600Y0197000D02*
X0121600Y0205000D01*
X0117600Y0209000D01*
X0147200Y0193593D02*
X0148000Y0193593D01*
X0148000Y0192395D02*
X0147200Y0192395D01*
X0147200Y0191196D02*
X0148000Y0191196D01*
X0150481Y0193593D02*
X0154405Y0193593D01*
X0153206Y0192395D02*
X0151543Y0192395D01*
X0152048Y0191196D02*
X0152800Y0191196D01*
X0155191Y0204380D02*
X0150009Y0204380D01*
X0160009Y0204380D02*
X0173921Y0204380D01*
X0169200Y0158836D02*
X0161243Y0158836D01*
X0162232Y0157638D02*
X0169200Y0157638D01*
X0169200Y0156439D02*
X0162729Y0156439D01*
X0162889Y0155241D02*
X0169200Y0155241D01*
X0169200Y0154042D02*
X0162889Y0154042D01*
X0162432Y0152844D02*
X0169200Y0152844D01*
X0169200Y0151645D02*
X0161725Y0151645D01*
X0160428Y0150447D02*
X0169200Y0150447D01*
X0152600Y0139000D02*
X0152600Y0127000D01*
X0157600Y0120000D02*
X0162600Y0120000D01*
X0165600Y0117000D01*
X0165600Y0096000D01*
X0155600Y0086000D01*
X0156975Y0079734D02*
X0166940Y0079734D01*
X0165742Y0078536D02*
X0158229Y0078536D01*
X0157308Y0072543D02*
X0173921Y0072543D01*
X0173921Y0073742D02*
X0167420Y0073742D01*
X0168635Y0074641D02*
X0168635Y0074641D01*
X0168935Y0074940D02*
X0173921Y0074940D01*
X0173921Y0076139D02*
X0170133Y0076139D01*
X0171332Y0077337D02*
X0173921Y0077337D01*
X0173921Y0078536D02*
X0172530Y0078536D01*
X0173674Y0079734D02*
X0173921Y0079734D01*
X0163200Y0106102D02*
X0160490Y0106102D01*
X0161688Y0107300D02*
X0163200Y0107300D01*
X0163200Y0108499D02*
X0162400Y0108499D01*
X0162400Y0109697D02*
X0163200Y0109697D01*
X0163200Y0110896D02*
X0162400Y0110896D01*
X0162294Y0112094D02*
X0163200Y0112094D01*
X0163200Y0113293D02*
X0161095Y0113293D01*
X0159897Y0114491D02*
X0163200Y0114491D01*
X0163200Y0115690D02*
X0160078Y0115690D01*
X0161277Y0116888D02*
X0162318Y0116888D01*
X0154105Y0113293D02*
X0150813Y0113293D01*
X0151696Y0112094D02*
X0152906Y0112094D01*
X0152800Y0110896D02*
X0152115Y0110896D01*
X0130153Y0103705D02*
X0123289Y0103705D01*
X0122600Y0060000D02*
X0122600Y0045000D01*
X0112600Y0045000D02*
X0112600Y0060000D01*
X0102600Y0060000D02*
X0102600Y0045000D01*
X0092600Y0045000D02*
X0092600Y0060000D01*
X0053000Y0146851D02*
X0052200Y0146851D01*
X0052200Y0148050D02*
X0053000Y0148050D01*
X0053000Y0149248D02*
X0052200Y0149248D01*
X0052200Y0150447D02*
X0053000Y0150447D01*
X0053000Y0151645D02*
X0052200Y0151645D01*
X0052200Y0152844D02*
X0053000Y0152844D01*
X0053000Y0154042D02*
X0052200Y0154042D01*
X0051771Y0203181D02*
X0069617Y0203181D01*
D15*
X0072600Y0200000D03*
X0061600Y0190000D03*
X0049600Y0207000D03*
X0018600Y0175000D03*
X0034600Y0142000D03*
X0019600Y0137000D03*
X0052100Y0127500D03*
X0054600Y0138000D03*
X0075600Y0161000D03*
X0077600Y0150000D03*
X0097600Y0131000D03*
X0110600Y0131000D03*
X0132600Y0100000D03*
X0154600Y0076000D03*
X0155600Y0086000D03*
X0157600Y0142000D03*
X0152600Y0178000D03*
X0132600Y0200000D03*
X0122600Y0174000D03*
X0106600Y0170000D03*
X0099600Y0175000D03*
X0094600Y0180000D03*
X0109600Y0203000D03*
X0040600Y0096000D03*
X0040600Y0085000D03*
X0033600Y0075000D03*
M02*
