G75*
%MOIN*%
%OFA0B0*%
%FSLAX25Y25*%
%IPPOS*%
%LPD*%
%AMOC8*
5,1,8,0,0,1.08239X$1,22.5*
%
%ADD10C,0.03359*%
%ADD11C,0.02178*%
%ADD12C,0.06800*%
%ADD13C,0.06800*%
%ADD14OC8,0.06800*%
%ADD15C,0.06000*%
%ADD16C,0.05918*%
D10*
X0027600Y0155000D03*
D11*
X0157600Y0155000D03*
D12*
X0152600Y0048000D02*
X0152600Y0042000D01*
X0142600Y0042000D02*
X0142600Y0048000D01*
X0132600Y0048000D02*
X0132600Y0042000D01*
X0122600Y0042000D02*
X0122600Y0048000D01*
X0112600Y0048000D02*
X0112600Y0042000D01*
X0102600Y0042000D02*
X0102600Y0048000D01*
X0092600Y0048000D02*
X0092600Y0042000D01*
X0082600Y0042000D02*
X0082600Y0048000D01*
X0072600Y0048000D02*
X0072600Y0042000D01*
D13*
X0027600Y0110000D03*
X0052600Y0150000D03*
X0027600Y0190000D03*
X0087600Y0190000D03*
X0122600Y0150000D03*
X0147600Y0110000D03*
X0147600Y0190000D03*
D14*
X0147600Y0200000D03*
X0157600Y0200000D03*
X0157600Y0190000D03*
X0132600Y0160000D03*
X0132600Y0150000D03*
X0122600Y0160000D03*
X0097600Y0190000D03*
X0097600Y0200000D03*
X0087600Y0200000D03*
X0062600Y0160000D03*
X0062600Y0150000D03*
X0052600Y0160000D03*
X0037600Y0190000D03*
X0037600Y0200000D03*
X0027600Y0200000D03*
X0027600Y0120000D03*
X0037600Y0120000D03*
X0037600Y0110000D03*
X0147600Y0120000D03*
X0157600Y0120000D03*
X0157600Y0110000D03*
D15*
X0052600Y0062600D02*
X0052600Y0057400D01*
X0062600Y0057400D02*
X0062600Y0062600D01*
X0072600Y0062600D02*
X0072600Y0057400D01*
X0082600Y0057400D02*
X0082600Y0062600D01*
X0092600Y0062600D02*
X0092600Y0057400D01*
X0102600Y0057400D02*
X0102600Y0062600D01*
X0112600Y0062600D02*
X0112600Y0057400D01*
X0122600Y0057400D02*
X0122600Y0062600D01*
X0132600Y0062600D02*
X0132600Y0057400D01*
X0132600Y0087400D02*
X0132600Y0092600D01*
X0122600Y0092600D02*
X0122600Y0087400D01*
X0112600Y0087400D02*
X0112600Y0092600D01*
X0102600Y0092600D02*
X0102600Y0087400D01*
X0092600Y0087400D02*
X0092600Y0092600D01*
X0082600Y0092600D02*
X0082600Y0087400D01*
X0072600Y0087400D02*
X0072600Y0092600D01*
X0062600Y0092600D02*
X0062600Y0087400D01*
X0052600Y0087400D02*
X0052600Y0092600D01*
D16*
X0040600Y0096000D03*
X0040600Y0085000D03*
X0033600Y0075000D03*
X0052100Y0127500D03*
X0054600Y0138000D03*
X0034600Y0142000D03*
X0019600Y0137000D03*
X0018600Y0175000D03*
X0049600Y0207000D03*
X0061600Y0190000D03*
X0072600Y0200000D03*
X0094600Y0180000D03*
X0099600Y0175000D03*
X0106600Y0170000D03*
X0122600Y0174000D03*
X0132600Y0200000D03*
X0152600Y0178000D03*
X0157600Y0142000D03*
X0132600Y0100000D03*
X0154600Y0076000D03*
X0155600Y0086000D03*
X0110600Y0131000D03*
X0097600Y0131000D03*
X0077600Y0150000D03*
X0075600Y0161000D03*
X0109600Y0203000D03*
M02*
