G75*
%MOIN*%
%OFA0B0*%
%FSLAX25Y25*%
%IPPOS*%
%LPD*%
%AMOC8*
5,1,8,0,0,1.08239X$1,22.5*
%
%ADD10C,0.00000*%
D10*
X0001600Y0027000D02*
X0001600Y0214701D01*
X0178521Y0214701D01*
X0178521Y0027000D01*
X0001600Y0027000D01*
X0026320Y0155000D02*
X0026322Y0155071D01*
X0026328Y0155142D01*
X0026338Y0155213D01*
X0026352Y0155282D01*
X0026369Y0155351D01*
X0026391Y0155419D01*
X0026416Y0155486D01*
X0026445Y0155551D01*
X0026477Y0155614D01*
X0026513Y0155676D01*
X0026552Y0155735D01*
X0026595Y0155792D01*
X0026640Y0155847D01*
X0026689Y0155899D01*
X0026740Y0155948D01*
X0026794Y0155994D01*
X0026851Y0156038D01*
X0026909Y0156078D01*
X0026970Y0156114D01*
X0027033Y0156148D01*
X0027098Y0156177D01*
X0027164Y0156203D01*
X0027232Y0156226D01*
X0027300Y0156244D01*
X0027370Y0156259D01*
X0027440Y0156270D01*
X0027511Y0156277D01*
X0027582Y0156280D01*
X0027653Y0156279D01*
X0027724Y0156274D01*
X0027795Y0156265D01*
X0027865Y0156252D01*
X0027934Y0156236D01*
X0028002Y0156215D01*
X0028069Y0156191D01*
X0028135Y0156163D01*
X0028198Y0156131D01*
X0028260Y0156096D01*
X0028320Y0156058D01*
X0028378Y0156016D01*
X0028433Y0155972D01*
X0028486Y0155924D01*
X0028536Y0155873D01*
X0028583Y0155820D01*
X0028627Y0155764D01*
X0028668Y0155706D01*
X0028706Y0155645D01*
X0028740Y0155583D01*
X0028770Y0155518D01*
X0028797Y0155453D01*
X0028821Y0155385D01*
X0028840Y0155317D01*
X0028856Y0155248D01*
X0028868Y0155177D01*
X0028876Y0155107D01*
X0028880Y0155036D01*
X0028880Y0154964D01*
X0028876Y0154893D01*
X0028868Y0154823D01*
X0028856Y0154752D01*
X0028840Y0154683D01*
X0028821Y0154615D01*
X0028797Y0154547D01*
X0028770Y0154482D01*
X0028740Y0154417D01*
X0028706Y0154355D01*
X0028668Y0154294D01*
X0028627Y0154236D01*
X0028583Y0154180D01*
X0028536Y0154127D01*
X0028486Y0154076D01*
X0028433Y0154028D01*
X0028378Y0153984D01*
X0028320Y0153942D01*
X0028260Y0153904D01*
X0028198Y0153869D01*
X0028135Y0153837D01*
X0028069Y0153809D01*
X0028002Y0153785D01*
X0027934Y0153764D01*
X0027865Y0153748D01*
X0027795Y0153735D01*
X0027724Y0153726D01*
X0027653Y0153721D01*
X0027582Y0153720D01*
X0027511Y0153723D01*
X0027440Y0153730D01*
X0027370Y0153741D01*
X0027300Y0153756D01*
X0027232Y0153774D01*
X0027164Y0153797D01*
X0027098Y0153823D01*
X0027033Y0153852D01*
X0026970Y0153886D01*
X0026909Y0153922D01*
X0026851Y0153962D01*
X0026794Y0154006D01*
X0026740Y0154052D01*
X0026689Y0154101D01*
X0026640Y0154153D01*
X0026595Y0154208D01*
X0026552Y0154265D01*
X0026513Y0154324D01*
X0026477Y0154386D01*
X0026445Y0154449D01*
X0026416Y0154514D01*
X0026391Y0154581D01*
X0026369Y0154649D01*
X0026352Y0154718D01*
X0026338Y0154787D01*
X0026328Y0154858D01*
X0026322Y0154929D01*
X0026320Y0155000D01*
X0156911Y0155000D02*
X0156913Y0155052D01*
X0156919Y0155104D01*
X0156929Y0155155D01*
X0156942Y0155205D01*
X0156960Y0155255D01*
X0156981Y0155302D01*
X0157005Y0155348D01*
X0157034Y0155392D01*
X0157065Y0155434D01*
X0157099Y0155473D01*
X0157136Y0155510D01*
X0157176Y0155543D01*
X0157219Y0155574D01*
X0157263Y0155601D01*
X0157309Y0155625D01*
X0157358Y0155645D01*
X0157407Y0155661D01*
X0157458Y0155674D01*
X0157509Y0155683D01*
X0157561Y0155688D01*
X0157613Y0155689D01*
X0157665Y0155686D01*
X0157717Y0155679D01*
X0157768Y0155668D01*
X0157818Y0155654D01*
X0157867Y0155635D01*
X0157914Y0155613D01*
X0157959Y0155588D01*
X0158003Y0155559D01*
X0158044Y0155527D01*
X0158083Y0155492D01*
X0158118Y0155454D01*
X0158151Y0155413D01*
X0158181Y0155371D01*
X0158207Y0155326D01*
X0158230Y0155279D01*
X0158249Y0155230D01*
X0158265Y0155180D01*
X0158277Y0155130D01*
X0158285Y0155078D01*
X0158289Y0155026D01*
X0158289Y0154974D01*
X0158285Y0154922D01*
X0158277Y0154870D01*
X0158265Y0154820D01*
X0158249Y0154770D01*
X0158230Y0154721D01*
X0158207Y0154674D01*
X0158181Y0154629D01*
X0158151Y0154587D01*
X0158118Y0154546D01*
X0158083Y0154508D01*
X0158044Y0154473D01*
X0158003Y0154441D01*
X0157959Y0154412D01*
X0157914Y0154387D01*
X0157867Y0154365D01*
X0157818Y0154346D01*
X0157768Y0154332D01*
X0157717Y0154321D01*
X0157665Y0154314D01*
X0157613Y0154311D01*
X0157561Y0154312D01*
X0157509Y0154317D01*
X0157458Y0154326D01*
X0157407Y0154339D01*
X0157358Y0154355D01*
X0157309Y0154375D01*
X0157263Y0154399D01*
X0157219Y0154426D01*
X0157176Y0154457D01*
X0157136Y0154490D01*
X0157099Y0154527D01*
X0157065Y0154566D01*
X0157034Y0154608D01*
X0157005Y0154652D01*
X0156981Y0154698D01*
X0156960Y0154745D01*
X0156942Y0154795D01*
X0156929Y0154845D01*
X0156919Y0154896D01*
X0156913Y0154948D01*
X0156911Y0155000D01*
M02*
